<svg xmlns="http://www.w3.org/2000/svg" viewBox="1636.5 513 31 22.2">
  <defs>
    <style>
      .cls-1 {
        fill: #583318;
      }
    </style>
  </defs>
  <g id="noun_630392_cc" transform="translate(1636 508.1)">
    <g id="group">
      <rect id="rectangle" class="cls-1" width="31" height="3.2" transform="translate(0.5 11.7)"/>
      <path id="path" class="cls-1" d="M.5,24.3a2.862,2.862,0,0,0,2.8,2.8H28.7a2.862,2.862,0,0,0,2.8-2.8V16.4H.5v7.9Zm16.6-2.9h1.2a.8.8,0,0,1,0,1.6H17.1a.789.789,0,0,1-.8-.8C16.4,21.7,16.7,21.4,17.1,21.4Zm-3.8,0h1.2a.8.8,0,1,1,0,1.6H13.3a.8.8,0,1,1,0-1.6Zm-3.8,0h1.2a.8.8,0,1,1,0,1.6H9.5a.789.789,0,0,1-.8-.8A.736.736,0,0,1,9.5,21.4Zm-3.9,0H6.8a.8.8,0,1,1,0,1.6H5.6a.789.789,0,0,1-.8-.8C4.9,21.7,5.2,21.4,5.6,21.4Z"/>
      <path id="path-2" data-name="path" class="cls-1" d="M31.5,7.7a2.862,2.862,0,0,0-2.8-2.8H3.3A2.862,2.862,0,0,0,.5,7.7v2.5h31Z"/>
    </g>
  </g>
</svg>
