<svg xmlns="http://www.w3.org/2000/svg" viewBox="244.207 277.285 20.663 23.452">
  <defs>
    <style>
      .cls-1 {
        fill: #fff;
      }
    </style>
  </defs>
  <path id="noun_64" class="cls-1" d="M8.627,11.793l.928,1.37h1.727l.8-1.37-.84-1.459H9.509ZM9.338,22.81v-3.1l-1.731.973-.882-.5V19.09l2.566-1.459V15.6l-1.862,1.2V14.635l-1.78,1.026v2.924l-.973.6-.823-.544v-1.96l-2.7,1.524L0,17.723V16.487l2.835-1.55-1.773-.891V12.915l1.006-.551,2.543,1.5,1.767-1.019-.043-.033L4.53,11.774l1.754-1.088L4.523,9.666,1.98,11.161l-.954-.475V9.558l1.721-.967L0,7.1V5.864L1.055,5.32,3.763,6.883V4.89l.816-.551,1,.577L5.572,7.9,7.391,8.938,7.385,6.831,9.292,7.857V5.821L6.726,4.36V3.278l.882-.511,1.731.973V.649L10.328,0l1,.649V3.74l1.793-.993.9.6v.973l-2.655,1.5V7.857l1.816-1.108V8.965l1.871-1.02V4.756l.9-.42.947.42V6.8l2.786-1.5.974.593V7.037L17.942,8.584l1.7.954v1.1l-.882.489L16.15,9.584l-1.806,1.147L16.09,11.82l-1.8,1.036,1.859.973,2.612-1.459.839.593v1.052l-1.639.921,2.609,1.55V17.7l-1.1.5L16.9,16.749V18.68l-.921.515-.9-.515V15.749l-1.9-1.081V16.7L11.367,15.6v2.036l2.567,1.459v1.154l-.886.442-1.721-.973v3.1l-1,.642Z" transform="translate(244.207 277.285)"/>
</svg>
