<svg xmlns="http://www.w3.org/2000/svg" viewBox="1228.555 404.555 19 19">
  <defs>
    <style>
      .cls-1 {
        fill: #583318;
      }
    </style>
  </defs>
  <g id="Group_996" data-name="Group 996" transform="translate(1351 308)">
    <g id="Group_995" data-name="Group 995">
      <g id="Group_999" data-name="Group 999" transform="translate(11 -3)">
        <g id="Group_998" data-name="Group 998">
          <g id="Group_997" data-name="Group 997">
            <path id="Path_761" data-name="Path 761" class="cls-1" d="M-19.528-24.41A2.375,2.375,0,0,1-21.9-26.785a2.375,2.375,0,0,1,2.375-2.375,2.375,2.375,0,0,1,2.375,2.375,2.375,2.375,0,0,1-2.375,2.375m.045-11.875h-.045a9.5,9.5,0,0,0-9.5,9.5v.045a9.646,9.646,0,0,0,9.746,9.455h.347a1.187,1.187,0,0,0,1.187-1.187,1.187,1.187,0,0,0-1.187-1.188h-.347a7.268,7.268,0,0,1-7.371-7.092,7.125,7.125,0,0,1,7.092-7.157h.065A7.268,7.268,0,0,1-12.4-26.539v2.722a1.187,1.187,0,0,1-1.187,1.187,1.187,1.187,0,0,1-1.188-1.187v-2.969a4.765,4.765,0,0,0-4.749-4.781,4.764,4.764,0,0,0-4.781,4.749,4.764,4.764,0,0,0,4.748,4.781A4.761,4.761,0,0,0-17-22.774a3.563,3.563,0,0,0,4.453,2.358,3.562,3.562,0,0,0,2.515-3.4v-2.722a9.647,9.647,0,0,0-9.455-9.746" transform="translate(-104.417 135.84)"/>
          </g>
        </g>
      </g>
    </g>
  </g>
</svg>
