<svg xmlns="http://www.w3.org/2000/svg" viewBox="8.295 638.795 22 22">
  <defs>
    <style>
      .cls-1 {
        fill: #583318;
      }
    </style>
  </defs>
  <g id="Group_649" data-name="Group 649" transform="translate(243.548 564.048)">
    <path id="Path_510" data-name="Path 510" class="cls-1" d="M33,974.362a11,11,0,1,0,11,11A11.018,11.018,0,0,0,33,974.362Zm0,2.357a8.643,8.643,0,1,1-8.643,8.643A8.625,8.625,0,0,1,33,976.719Zm0,1.571a1.179,1.179,0,0,0-1.179,1.179v5.893a1.177,1.177,0,0,0,.589,1.019l4.42,2.553a1.177,1.177,0,1,0,1.179-2.038l-3.83-2.21v-5.218A1.179,1.179,0,0,0,33,978.291Z" transform="translate(-257.253 -899.616)"/>
  </g>
</svg>
