<svg xmlns="http://www.w3.org/2000/svg" xmlns:xlink="http://www.w3.org/1999/xlink" viewBox="1731.16 51.5 120.266 119.821">
  <defs>
    <style>
      .cls-1 {
        fill: none;
      }

      .cls-2 {
        clip-path: url(#clip-path);
      }

      .cls-3 {
        fill: #583318;
      }
    </style>
    <clipPath id="clip-path">
      <path id="Path_12" data-name="Path 12" class="cls-1" d="M0-1012.821H120.266V-893H0Z" transform="translate(0 1012.821)"/>
    </clipPath>
  </defs>
  <g id="Group_51" data-name="Group 51" transform="translate(1731.16 333.501)">
    <g id="Group_50" data-name="Group 50" class="cls-2" transform="translate(0 -282.001)">
      <g id="Group_49" data-name="Group 49" transform="translate(0 0)">
        <path id="Path_11" data-name="Path 11" class="cls-3" d="M-670.095-90.429a4.7,4.7,0,0,0,5.32,3.76l3.246-.516a3.326,3.326,0,0,1,4.026,3.812l-.338,3.269A4.7,4.7,0,0,0-653.8-75l3.26.42a3.326,3.326,0,0,1,2.789,4.791l-1.245,3.042a4.7,4.7,0,0,0,2.442,6.039l3.009,1.321A3.326,3.326,0,0,1-642.214-54l-2.051,2.568a4.7,4.7,0,0,0,.642,6.482l2.515,2.115a3.326,3.326,0,0,1-.244,5.538l-2.692,1.886a4.7,4.7,0,0,0-1.21,6.4l1.818,2.738a3.326,3.326,0,0,1-1.8,5.245l-3.114,1.051a4.7,4.7,0,0,0-2.964,5.8l.972,3.14a3.326,3.326,0,0,1-3.2,4.527l-3.284.131a4.7,4.7,0,0,0-4.479,4.73l.049,3.286A3.326,3.326,0,0,1-665.6,5.082l-3.188-.8a4.7,4.7,0,0,0-5.63,3.277l-.879,3.167a3.326,3.326,0,0,1-5.14,2.079l-2.834-1.665a4.7,4.7,0,0,0-6.325,1.559l-1.736,2.791a3.326,3.326,0,0,1-5.517.546l-2.25-2.4a4.7,4.7,0,0,0-6.508-.287l-2.452,2.189a3.326,3.326,0,0,1-5.447-1.03l-1.484-2.933a4.7,4.7,0,0,0-6.164-2.109l-2.969,1.409a3.326,3.326,0,0,1-4.937-2.523l-.6-3.232a4.7,4.7,0,0,0-5.32-3.76l-3.246.515a3.326,3.326,0,0,1-4.026-3.811l.337-3.269a4.7,4.7,0,0,0-4.045-5.106l-3.26-.42A3.326,3.326,0,0,1-752-15.517l1.245-3.042A4.7,4.7,0,0,0-753.2-24.6l-3.009-1.321a3.326,3.326,0,0,1-1.326-5.383l2.051-2.568a4.7,4.7,0,0,0-.642-6.483l-2.515-2.116a3.326,3.326,0,0,1,.244-5.538l2.692-1.886a4.7,4.7,0,0,0,1.21-6.4l-1.818-2.738a3.326,3.326,0,0,1,1.794-5.245l3.115-1.051a4.7,4.7,0,0,0,2.964-5.8l-.973-3.14a3.326,3.326,0,0,1,3.2-4.527l3.284-.131a4.7,4.7,0,0,0,4.479-4.731l-.049-3.286a3.326,3.326,0,0,1,4.346-3.443l3.188.8a4.7,4.7,0,0,0,5.63-3.277l.879-3.167a3.326,3.326,0,0,1,5.139-2.079l2.833,1.665A4.7,4.7,0,0,0-710.155-98l1.736-2.791a3.326,3.326,0,0,1,5.517-.547l2.25,2.4a4.7,4.7,0,0,0,6.508.287l2.452-2.189a3.326,3.326,0,0,1,5.448,1.03l1.483,2.933a4.7,4.7,0,0,0,6.164,2.109l2.968-1.409a3.326,3.326,0,0,1,4.937,2.523Z" transform="translate(760.007 102.563)"/>
      </g>
    </g>
  </g>
</svg>
