<svg xmlns="http://www.w3.org/2000/svg" xmlns:xlink="http://www.w3.org/1999/xlink" viewBox="3647 241 36 36">
  <defs>
    <style>
      .cls-1 {
        fill: none;
      }

      .cls-2 {
        fill: #83dd7f;
        stroke: #583318;
        stroke-width: 2px;
      }

      .cls-3 {
        clip-path: url(#clip-path);
      }

      .cls-4 {
        fill: #583318;
      }

      .cls-5 {
        stroke: none;
      }
    </style>
    <clipPath id="clip-path">
      <path id="Path_567" data-name="Path 567" class="cls-1" d="M0-269.529H20.628v15.284H0Z" transform="translate(0 269.529)"/>
    </clipPath>
  </defs>
  <g id="Group_723" data-name="Group 723" transform="translate(3615 96)">
    <g id="ellipse-3" class="cls-2" transform="translate(32 145)">
      <circle class="cls-5" cx="18" cy="18" r="18"/>
      <circle class="cls-1" cx="18" cy="18" r="17"/>
    </g>
    <g id="Group_722" data-name="Group 722" transform="translate(39.597 155.957)">
      <g id="Group_721" data-name="Group 721" class="cls-3">
        <g id="Group_720" data-name="Group 720" transform="translate(0 0)">
          <path id="Path_566" data-name="Path 566" class="cls-4" d="M-328.622-.13a.764.764,0,0,0-.442.239c-4.109,4.3-8.079,8.963-12.138,13.248l-5.943-4.547a.766.766,0,0,0-1.074.143.766.766,0,0,0,.143,1.074h0l6.493,4.965a.764.764,0,0,0,1.014-.083c4.266-4.463,8.382-9.332,12.6-13.749a.764.764,0,0,0-.014-1.08.764.764,0,0,0-.642-.209" transform="translate(348.376 0.138)"/>
        </g>
      </g>
    </g>
  </g>
</svg>
