<svg xmlns="http://www.w3.org/2000/svg" viewBox="426.295 1354.795 22 22">
  <defs>
    <style>
      .cls-1 {
        fill: #fff;
      }
    </style>
  </defs>
  <g id="Group_976" data-name="Group 976" transform="translate(661.548 1280.048)">
    <path id="Path_750" data-name="Path 750" class="cls-1" d="M33,974.362a11,11,0,1,0,11,11A11.018,11.018,0,0,0,33,974.362Zm0,2.357a8.643,8.643,0,1,1-8.643,8.643A8.625,8.625,0,0,1,33,976.719Zm0,1.571a1.179,1.179,0,0,0-1.179,1.179v5.893a1.177,1.177,0,0,0,.589,1.019l4.42,2.553a1.177,1.177,0,1,0,1.179-2.038l-3.83-2.21v-5.218A1.179,1.179,0,0,0,33,978.291Z" transform="translate(-257.253 -899.616)"/>
  </g>
</svg>
