<svg xmlns="http://www.w3.org/2000/svg" xmlns:xlink="http://www.w3.org/1999/xlink" viewBox="2317.812 285.636 29.595 14.798">
  <defs>
    <style>
      .cls-1 {
        fill: none;
      }

      .cls-2 {
        clip-path: url(#clip-path);
      }

      .cls-3 {
        fill: #583318;
      }
    </style>
    <clipPath id="clip-path">
      <path id="Path_889" data-name="Path 889" class="cls-1" d="M0-299.339H29.6v14.8H0Z" transform="translate(0 299.339)"/>
    </clipPath>
  </defs>
  <g id="Group_1221" data-name="Group 1221" transform="translate(2314.545 284.002)">
    <g id="Group_1220" data-name="Group 1220" class="cls-2" transform="translate(3.266 1.633)">
      <g id="Group_1219" data-name="Group 1219" transform="translate(0)">
        <path id="Path_888" data-name="Path 888" class="cls-3" d="M-499.1-57.911a.185.185,0,0,1-.185.185.185.185,0,0,1-.185-.185v-1.053a.185.185,0,0,1,.185-.185.185.185,0,0,1,.185.185Zm0,2.457a.185.185,0,0,1-.185.185.185.185,0,0,1-.185-.185v-1.053a.185.185,0,0,1,.185-.185.185.185,0,0,1,.185.185Zm0,2.457a.185.185,0,0,1-.185.185A.185.185,0,0,1-499.47-53v-1.053a.185.185,0,0,1,.185-.185.185.185,0,0,1,.185.185Zm0,2.457a.185.185,0,0,1-.185.185.185.185,0,0,1-.185-.185v-1.053a.185.185,0,0,1,.185-.185.185.185,0,0,1,.185.185Zm0,2.457a.185.185,0,0,1-.185.185.185.185,0,0,1-.185-.185v-1.053a.185.185,0,0,1,.185-.185.185.185,0,0,1,.185.185Zm-11.158-.261a5.179,5.179,0,0,1-5.179-5.179,5.179,5.179,0,0,1,5.179-5.179,5.179,5.179,0,0,1,5.179,5.179,5.179,5.179,0,0,1-5.179,5.179m-10.419-9.566a.185.185,0,0,1-.185.185.185.185,0,0,1-.185-.185v-1.053a.185.185,0,0,1,.185-.185.185.185,0,0,1,.185.185Zm0,2.457a.185.185,0,0,1-.185.185.185.185,0,0,1-.185-.185v-1.053a.185.185,0,0,1,.185-.185.185.185,0,0,1,.185.185Zm0,2.457a.185.185,0,0,1-.185.185.185.185,0,0,1-.185-.185v-1.053a.185.185,0,0,1,.185-.185.185.185,0,0,1,.185.185Zm0,2.457a.185.185,0,0,1-.185.185.185.185,0,0,1-.185-.185v-1.053a.185.185,0,0,1,.185-.185.185.185,0,0,1,.185.185Zm0,2.457a.185.185,0,0,1-.185.185.185.185,0,0,1-.185-.185v-1.053a.185.185,0,0,1,.185-.185.185.185,0,0,1,.185.185Zm25.217-7.413v-3.946a1.48,1.48,0,0,0-1.48-1.48h-2.16v.555a.185.185,0,0,1-.185.185.185.185,0,0,1-.185-.185v-.555h-21.207v.555a.185.185,0,0,1-.185.185.185.185,0,0,1-.185-.185v-.555h-2.529a1.48,1.48,0,0,0-1.48,1.48v3.984a1.963,1.963,0,0,1,.37-.037,1.973,1.973,0,0,1,1.973,1.973,1.972,1.972,0,0,1-1.973,1.973,1.967,1.967,0,0,1-.37-.037v3.984a1.48,1.48,0,0,0,1.48,1.48h2.529v-.555a.185.185,0,0,1,.185-.185.185.185,0,0,1,.185.185v.555h21.207v-.555a.185.185,0,0,1,.185-.185.185.185,0,0,1,.185.185v.555h2.16a1.48,1.48,0,0,0,1.48-1.48v-3.947a1.973,1.973,0,0,1-1.973-1.973,1.973,1.973,0,0,1,1.973-1.973" transform="translate(525.056 60.923)"/>
      </g>
    </g>
  </g>
</svg>
