<svg xmlns="http://www.w3.org/2000/svg" viewBox="1465.509 234.581 27.998 30.838">
  <defs>
    <style>
      .cls-1 {
        fill: #d5a86c;
      }

      .cls-2 {
        fill: #ffd;
      }

      .cls-3 {
        fill: #583318;
      }

      .cls-4, .cls-6 {
        fill: none;
      }

      .cls-4 {
        stroke: #583318;
      }

      .cls-5 {
        stroke: none;
      }
    </style>
  </defs>
  <g id="Group_1292" data-name="Group 1292" transform="translate(1204.988 1.402)">
    <g id="noun_215018_cc" transform="translate(260.521 233.179)">
      <g id="Group_1134" data-name="Group 1134" transform="translate(0 0)">
        <circle id="Ellipse_62" data-name="Ellipse 62" class="cls-1" cx="13.39" cy="13.39" r="13.39" transform="translate(0.789 4.058)"/>
        <circle id="Ellipse_61" data-name="Ellipse 61" class="cls-2" cx="13.39" cy="13.39" r="13.39" transform="translate(0.789)"/>
        <path id="Path_790" data-name="Path 790" class="cls-3" d="M18.6,0a14.028,14.028,0,0,0-14,14v2.868a14,14,0,0,0,28-.031V13.968A14.022,14.022,0,0,0,18.6,0ZM7.1,22.478a12.961,12.961,0,0,1-.678-1.634A12.2,12.2,0,0,0,7.1,21.893Zm1.511,2.405c-.216-.247-.4-.524-.586-.771v-.956a5.54,5.54,0,0,0,.586.617Zm2.128,2.066c-.4-.308-.8-.678-1.172-1.018V24.668c.37.308.771.617,1.172.894Zm2.189,1.388c-.432-.216-.833-.463-1.233-.709V26.117c.4.216.8.432,1.233.617Zm2.467.925a12.833,12.833,0,0,1-1.542-.493v-1.6a12.726,12.726,0,0,0,1.542.463Zm2.775.4a17.3,17.3,0,0,1-1.819-.185V27.813A17.3,17.3,0,0,0,18.167,28Zm2.775-.216a11.733,11.733,0,0,1-1.819.216v-1.7a17.3,17.3,0,0,0,1.819-.185Zm2.5-.74a12.951,12.951,0,0,1-1.542.524V27.566A12.726,12.726,0,0,0,23.44,27.1Zm2.189-1.141a9.816,9.816,0,0,1-1.233.709V26.7a9.4,9.4,0,0,0,1.233-.648Zm2.1-1.727a12.4,12.4,0,0,1-1.172,1.048V25.469c.4-.278.8-.586,1.172-.894Zm1.511-1.85c-.185.278-.37.524-.555.771V23.681c.185-.185.37-.4.555-.617Zm.956-1.665V21.8c.216-.308.4-.617.586-.925A11.863,11.863,0,0,1,30.193,22.324ZM18.6,26.8A12.812,12.812,0,1,1,31.426,14,12.857,12.857,0,0,1,18.6,26.8Z" transform="translate(-4.6 0.004)"/>
        <ellipse id="Ellipse_77" data-name="Ellipse 77" class="cls-1" cx="9.16" cy="9.867" rx="9.16" ry="9.867" transform="translate(5.092 4.396)"/>
        <path id="Path_791" data-name="Path 791" class="cls-3" d="M25.745,10.6A9.952,9.952,0,0,0,15.8,20.545V21c0,.086.029.257.029.372a.362.362,0,0,0,.029.171h0a9.936,9.936,0,0,0,19.775-.029h0v-.029c0-.114.029-.2.029-.314h0c0-.2.029-.429.029-.629A9.952,9.952,0,0,0,25.745,10.6Zm8.973,10.488v.171c0,.086-.029.171-.029.229a9.006,9.006,0,0,1-17.889.2h0a.558.558,0,0,0-.029-.2c-.029-.229-.029-.457-.057-.686a9,9,0,0,1,18,.286Z" transform="translate(-11.561 -6.542)"/>
        <path id="Path_792" data-name="Path 792" class="cls-3" d="M44.463,23.218a2.893,2.893,0,0,0-2.346-2.646V19.1H41.043v1.423h-1.2V19.1H38.772v1.423H37V21.6h0v7.937h0v1.073h1.822v1.423H39.9V30.606h1.2v1.423h1.073V30.556a2.92,2.92,0,0,0,2.346-2.646h0v-.2h0a3.16,3.16,0,0,0-1.273-2.146,2.905,2.905,0,0,0,1.2-2.146h0v-.1c.025-.025.025-.05.025-.1Zm-2.87,2.9a1.725,1.725,0,1,1,0,3.444H38.073V26.113h3.519V25.04H38.1V21.6h3.519a1.725,1.725,0,1,1,0,3.444v1.073Z" transform="translate(-26.125 -11.685)"/>
      </g>
    </g>
    <g id="Ellipse_81" data-name="Ellipse 81" class="cls-4" transform="translate(261.198 233.633)">
      <circle class="cls-5" cx="13.426" cy="13.426" r="13.426"/>
      <circle class="cls-6" cx="13.426" cy="13.426" r="12.926"/>
    </g>
  </g>
</svg>
