<svg xmlns="http://www.w3.org/2000/svg" xmlns:xlink="http://www.w3.org/1999/xlink" viewBox="2973.788 449.067 40.177 22.381">
  <defs>
    <style>
      .cls-1 {
        fill: none;
      }

      .cls-2 {
        clip-path: url(#clip-path);
      }

      .cls-3 {
        fill: #fff;
      }
    </style>
    <clipPath id="clip-path">
      <path id="Path_8" data-name="Path 8" class="cls-1" d="M0-319.1H40.177v22.381H0Z" transform="translate(0 319.098)"/>
    </clipPath>
  </defs>
  <g id="Group_44" data-name="Group 44" transform="translate(2973.788 449.067)">
    <g id="Group_43" data-name="Group 43" class="cls-2">
      <g id="Group_41" data-name="Group 41" transform="translate(0 0)">
        <path id="Path_6" data-name="Path 6" class="cls-3" d="M-484.355-206.866a4.813,4.813,0,0,0-4.292,4.432l-22.122-.065a4.8,4.8,0,0,0-4.278-4.417l.021-8.82a4.53,4.53,0,0,0,4.278-4.381l22.129.065c.641,2.932,1.7,4.018,4.285,4.381Zm2.85-15.5-36.321-.1a1.938,1.938,0,0,0-1.914,1.962l-.042,18.355a1.937,1.937,0,0,0,1.9,1.969l36.328.094a1.925,1.925,0,0,0,1.906-1.955l.042-18.362a1.926,1.926,0,0,0-1.9-1.962" transform="translate(519.783 222.469)"/>
      </g>
      <g id="Group_42" data-name="Group 42" transform="translate(12.982 3.881)">
        <path id="Path_7" data-name="Path 7" class="cls-3" d="M-133.141-127.378a1.993,1.993,0,0,1-1.5,1.7,6.322,6.322,0,0,1-.633.145v1.05h-.851v-1.036c-1.688-.384-2.421-1.188-2.294-2.52h1.478c.014.094.028.188.035.275a1.03,1.03,0,0,0,.985.985,1.585,1.585,0,0,0,.323.007.867.867,0,0,0,.887-.623,1.048,1.048,0,0,0-.345-1.195,8.317,8.317,0,0,0-.907-.463,10.649,10.649,0,0,1-1.407-.745,2.181,2.181,0,0,1,.3-3.62,8.224,8.224,0,0,1,1.034-.362v-1.093h.845v1.151a2.344,2.344,0,0,1,1.752,1.115,2.365,2.365,0,0,1,.281,1.318h-1.492a4.46,4.46,0,0,0-.113-.572.9.9,0,0,0-.957-.652.793.793,0,0,0-.851.579,1.012,1.012,0,0,0,.3,1.195,8.311,8.311,0,0,0,.971.514,12.693,12.693,0,0,1,1.252.637,2.087,2.087,0,0,1,.9,2.208m-2.611-9.608a7.217,7.217,0,0,0-7.128,7.292,7.221,7.221,0,0,0,7.092,7.335,7.209,7.209,0,0,0,7.121-7.3,7.214,7.214,0,0,0-7.086-7.328" transform="translate(142.879 136.986)"/>
      </g>
    </g>
  </g>
</svg>
