<svg xmlns="http://www.w3.org/2000/svg" viewBox="1238.088 120.178 23.825 23.825">
  <defs>
    <style>
      .cls-1 {
        fill: #583318;
      }

      .cls-2, .cls-4 {
        fill: none;
      }

      .cls-2 {
        stroke: #583318;
        stroke-width: 2px;
      }

      .cls-3 {
        stroke: none;
      }
    </style>
  </defs>
  <g id="Group_1113" data-name="Group 1113" transform="translate(1203)">
    <g id="noun_642295_cc" transform="translate(38.674 127.993)">
      <g id="Group_1111" data-name="Group 1111" transform="translate(0 0)">
        <path id="Path_789" data-name="Path 789" class="cls-1" d="M2.005,0A2.005,2.005,0,1,1,0,2.005,2.005,2.005,0,0,1,2.005,0Z" transform="translate(5.869 4.381) rotate(-76.891)"/>
        <path id="Path_788" data-name="Path 788" class="cls-1" d="M18.175.138a.147.147,0,0,0-.191-.082l-.69.267a.862.862,0,0,0-1.317.513,4.548,4.548,0,0,0-.955.7,6.17,6.17,0,0,1-1.181.608.042.042,0,0,0-.054-.017.042.042,0,0,0-.027.051l-.1.041-.013-.033c-.07.027-.115.08-.087.15l.11.285c.027.07.1.079.166.052l-.013-.033.1-.038a.045.045,0,0,0,.083-.03A6.153,6.153,0,0,1,15.29,2.23a8.831,8.831,0,0,0,.941-.061,3.839,3.839,0,0,1,.069.7,2.453,2.453,0,0,1-.447,1.475,3.731,3.731,0,0,1-1.665,1.206,5.729,5.729,0,0,1-.755.243c-.1.023-.171.039-.22.049l-.052.009h-.01a.861.861,0,0,0-.135.033.874.874,0,0,0-.185-.02H8.642c-.36-.412-1.009-1.135-1.836-1.96A30.354,30.354,0,0,0,3.712,1.192a.754.754,0,0,0-1.165.143c-.235.415-.208.98.5,1.526a27.71,27.71,0,0,1,2.535,2.27C6.2,5.74,6.709,6.295,7.068,6.7c.179.2.32.362.415.473l.108.126.014.017V14.45c.3,1.168,6.252,1.081,6.1,0V7.507a7.193,7.193,0,0,0,1.946-.742,4.963,4.963,0,0,0,1.612-1.417,4.2,4.2,0,0,0,.767-2.475,5.757,5.757,0,0,0-.158-1.3l.608-.235a.147.147,0,0,0,.087-.189Z" transform="translate(-2.415 -0.046)"/>
      </g>
    </g>
    <g id="Ellipse_43" data-name="Ellipse 43" class="cls-2" transform="translate(35.088 120.178)">
      <ellipse class="cls-3" cx="11.912" cy="11.912" rx="11.912" ry="11.912"/>
      <ellipse class="cls-4" cx="11.912" cy="11.912" rx="10.912" ry="10.912"/>
    </g>
  </g>
</svg>
