<svg xmlns="http://www.w3.org/2000/svg" viewBox="-718.403 2129.571 34.692 34.857">
  <defs>
    <style>
      .cls-1 {
        fill: #583318;
      }
    </style>
  </defs>
  <path id="iconmonstr-whatsapp-1" class="cls-1" d="M.057,34.857l2.45-8.951a17.272,17.272,0,1,1,6.707,6.549l-9.157,2.4Zm9.581-5.529a14.323,14.323,0,1,0-3.984-3.874L4.2,30.753l5.435-1.425Zm16.538-7.936c-.107-.18-.4-.288-.828-.5s-2.553-1.261-2.95-1.4-.683-.216-.972.216-1.115,1.4-1.367,1.692-.5.324-.935.107a11.78,11.78,0,0,1-3.471-2.142,12.992,12.992,0,0,1-2.4-2.99c-.251-.431-.026-.665.189-.88.195-.193.431-.5.648-.757a2.831,2.831,0,0,0,.436-.719.793.793,0,0,0-.036-.757c-.109-.215-.972-2.34-1.33-3.2-.351-.841-.707-.728-.972-.741L11.36,9.3a1.581,1.581,0,0,0-1.15.54,4.843,4.843,0,0,0-1.51,3.6A8.4,8.4,0,0,0,10.46,17.9c.216.288,3.043,4.648,7.372,6.517a24.973,24.973,0,0,0,2.46.909,5.932,5.932,0,0,0,2.719.171,4.446,4.446,0,0,0,2.913-2.052,3.6,3.6,0,0,0,.251-2.054Z" transform="translate(-718.46 2129.571)"/>
</svg>
