<svg xmlns="http://www.w3.org/2000/svg" viewBox="0 0 9.449 16.786">
  <defs>
    <style>
      .cls-1 {
        fill: #ffd;
      }
    </style>
  </defs>
  <g id="Group_1326" data-name="Group 1326" transform="translate(9.449) rotate(90)">
    <path id="Path_657" data-name="Path 657" class="cls-1" d="M-196.666-6.676a1.051,1.051,0,0,0-.747-.31,1.037,1.037,0,0,0-.748.313L-205.5.663a1.061,1.061,0,0,0,0,1.492,1.048,1.048,0,0,0,.746.309h0A1.058,1.058,0,0,0-204,2.155l6.592-6.591,6.59,6.59a1.052,1.052,0,0,0,.749.31,1.051,1.051,0,0,0,.741-.3,1.047,1.047,0,0,0,.313-.752,1.048,1.048,0,0,0-.309-.746Z" transform="translate(205.804 6.986)"/>
  </g>
</svg>
