<svg xmlns="http://www.w3.org/2000/svg" viewBox="-695.805 1681.512 21.805 19.703">
  <defs>
    <style>
      .cls-1 {
        fill: #ffd;
      }
    </style>
  </defs>
  <g id="noun_3359_cc" transform="translate(-378.806 1800.512)">
    <path id="Path_874" data-name="Path 874" class="cls-1" d="M6.052,8.282a3.862,3.862,0,0,1-.4.081C4.028,8.6,2.563,7.813,2.385,6.6l5.9-.866a1.886,1.886,0,0,1-.428,1.442,6.916,6.916,0,0,1,2.316-.528A5.189,5.189,0,1,0,4.4,10.322,6.987,6.987,0,0,1,6.052,8.282Zm.531-5.821a.848.848,0,1,1-.716.962A.848.848,0,0,1,6.583,2.461Zm-3.508.515a.848.848,0,1,1-.716.962A.848.848,0,0,1,3.074,2.977Z" transform="translate(-317 -119)"/>
    <path id="Path_875" data-name="Path 875" class="cls-1" d="M58.12.029a5.188,5.188,0,0,0-5.5,6.7,6.973,6.973,0,0,1,5.069,3.655A5.19,5.19,0,0,0,58.12.029Zm.55,3.618a.848.848,0,1,1,.755.932A.847.847,0,0,1,58.67,3.647Zm-3.527-.371a.848.848,0,1,1,.755.932A.848.848,0,0,1,55.143,3.276Zm2.1,5.1c-1.638-.172-2.861-1.3-2.733-2.52l5.929.624C60.311,7.7,58.879,8.553,57.242,8.381Z" transform="translate(-357.963 -119.001)"/>
    <path id="Path_876" data-name="Path 876" class="cls-1" d="M26.271,46.613a6.1,6.1,0,1,0-6.02-6.178A6.1,6.1,0,0,0,26.271,46.613Zm2.2-9.007a1,1,0,1,1-1.01.983A1,1,0,0,1,28.471,37.605Zm1.366,4.113c-.019,1.44-1.6,2.587-3.536,2.562s-3.488-1.213-3.469-2.653ZM24.3,37.551a1,1,0,1,1-1.009.984A1,1,0,0,1,24.3,37.551Z" transform="translate(-332.835 -145.911)"/>
  </g>
</svg>
