<svg xmlns="http://www.w3.org/2000/svg" viewBox="-632 2129.571 34.857 34.857">
  <defs>
    <style>
      .cls-1 {
        fill: #583318;
      }
    </style>
  </defs>
  <path id="iconmonstr-facebook-5" class="cls-1" d="M17.429,2.9A14.524,14.524,0,1,1,2.9,17.429,14.54,14.54,0,0,1,17.429,2.9Zm0-2.9A17.429,17.429,0,1,0,34.857,17.429,17.429,17.429,0,0,0,17.429,0Zm-2.9,14.524h-2.9v2.9h2.9v8.714h4.357V17.429h2.643l.261-2.9h-2.9v-1.21c0-.694.139-.969.81-.969h2.094V8.714H18.294c-2.611,0-3.77,1.15-3.77,3.352v2.457Z" transform="translate(-632 2129.571)"/>
</svg>
