<svg xmlns="http://www.w3.org/2000/svg" viewBox="1226.759 52.545 13.144 22.418">
  <defs>
    <style>
      .cls-1 {
        fill: #fff;
      }
    </style>
  </defs>
  <g id="Group_861" data-name="Group 861" transform="matrix(0.035, -0.999, 0.999, 0.035, 1226.759, 74.53)">
    <path id="Path_659" data-name="Path 659" class="cls-1" d="M-193.828-6.58a1.377,1.377,0,0,0-.98-.406,1.359,1.359,0,0,0-.981.41L-205.4,3.038a1.391,1.391,0,0,0,0,1.955,1.373,1.373,0,0,0,.978.4h0a1.387,1.387,0,0,0,.98-.4l8.639-8.638,8.637,8.636a1.379,1.379,0,0,0,.982.407,1.378,1.378,0,0,0,.972-.4,1.372,1.372,0,0,0,.41-.985,1.373,1.373,0,0,0-.4-.978Z" transform="translate(205.804 6.986)"/>
  </g>
</svg>
