<svg xmlns="http://www.w3.org/2000/svg" viewBox="0 0 40 40"><defs><style>.a{fill:#d84040;}.b,.f{fill:#583318;}.c{fill:#e6cca9;}.d{fill:#ffd;}.e,.f{stroke:none;}</style></defs><g transform="translate(-18 -616)"><g class="a" transform="translate(18 616)"><path class="e" d="M 20 39 C 17.43457984924316 39 14.94641971588135 38.49777984619141 12.60464954376221 37.50730133056641 C 10.34226036071777 36.55038833618164 8.310219764709473 35.18027877807617 6.564970016479492 33.43503189086914 C 4.819719791412354 31.68977928161621 3.449609994888306 29.65773963928223 2.492700099945068 27.39534950256348 C 1.502220034599304 25.05357933044434 1 22.5654296875 1 20 C 1 17.43457984924316 1.502220034599304 14.94641971588135 2.492700099945068 12.60464954376221 C 3.449609994888306 10.34226036071777 4.819719791412354 8.310219764709473 6.564970016479492 6.564970016479492 C 8.310219764709473 4.819719791412354 10.34226036071777 3.449609994888306 12.60464954376221 2.492700099945068 C 14.94641971588135 1.502220034599304 17.43457984924316 1 20 1 C 22.5654296875 1 25.05357933044434 1.502220034599304 27.39534950256348 2.492700099945068 C 29.65773963928223 3.449609994888306 31.68977928161621 4.819719791412354 33.43503189086914 6.564970016479492 C 35.18027877807617 8.310219764709473 36.55038833618164 10.34226036071777 37.50730133056641 12.60464954376221 C 38.49777984619141 14.94641971588135 39 17.43457984924316 39 20 C 39 22.5654296875 38.49777984619141 25.05357933044434 37.50730133056641 27.39534950256348 C 36.55038833618164 29.65773963928223 35.18027877807617 31.68977928161621 33.43503189086914 33.43503189086914 C 31.68977928161621 35.18027877807617 29.65773963928223 36.55038833618164 27.39534950256348 37.50730133056641 C 25.05357933044434 38.49777984619141 22.5654296875 39 20 39 Z"/><path class="f" d="M 20 38 C 24.80797958374023 38 29.32817077636719 36.12767028808594 32.72792053222656 32.72792053222656 C 36.12767028808594 29.32817077636719 38 24.80797958374023 38 20 C 38 15.19202995300293 36.12767028808594 10.67183017730713 32.72792053222656 7.272079944610596 C 29.32817077636719 3.872329950332642 24.80797958374023 2 20 2 C 15.19202995300293 2 10.67183017730713 3.872329950332642 7.272079944610596 7.272079944610596 C 3.872329950332642 10.67183017730713 2 15.19202995300293 2 20 C 2 24.80797958374023 3.872329950332642 29.32817077636719 7.272079944610596 32.72792053222656 C 10.67183017730713 36.12767028808594 15.19202995300293 38 20 38 M 20 40 C 8.954310417175293 40 0 31.04570007324219 0 20 C 0 8.954310417175293 8.954310417175293 0 20 0 C 31.04570007324219 0 40 8.954310417175293 40 20 C 40 31.04570007324219 31.04570007324219 40 20 40 Z"/></g><g transform="translate(26 626.704)"><path class="b" d="M21.959,4.082a2.041,2.041,0,1,0,0-4.082H2.041a2.041,2.041,0,0,0,0,4.082h.17L3.9,18.85a2.825,2.825,0,0,0,2.631,2.641H17.476a2.835,2.835,0,0,0,2.636-2.655l.288-2.528.737.619a.667.667,0,1,0,.86-1.02l-1.417-1.2,1.214-10.63ZM2.041,2.745a.709.709,0,0,1,0-1.417H21.959a.709.709,0,1,1,0,1.417ZM12.08,6.2a2.216,2.216,0,1,0,1.186,4.087l5.906,4.984-.387,3.4a1.544,1.544,0,0,1-1.313,1.488H6.529A1.537,1.537,0,0,1,5.22,18.68L3.553,4.082H20.447l-1.1,9.6L14.126,9.269a2.245,2.245,0,0,0,.17-.855A2.219,2.219,0,0,0,12.08,6.2Zm-.43,2.726.444.373H12.08a.883.883,0,1,1,.869-1.02L12.51,7.9a.667.667,0,0,0-.86,1.02Z"/><path class="c" d="M28.909,29.517a.709.709,0,1,1,0-1.417H48.827a.709.709,0,1,1,0,1.417Z" transform="translate(-26.868 -26.772)"/><path class="d" d="M83.728,88.517A2.216,2.216,0,1,0,84.913,92.6l5.906,4.984-.387,3.4a1.544,1.544,0,0,1-1.313,1.488H78.176A1.537,1.537,0,0,1,76.868,101L75.2,86.4H92.094L91,96l-5.225-4.413a2.245,2.245,0,0,0,.17-.855A2.219,2.219,0,0,0,83.728,88.517Z" transform="translate(-71.647 -82.318)"/><g transform="translate(5.4 4.082)"><path class="c" d="M188.294,117.471a2.19,2.19,0,0,1-.359-1.2,2.219,2.219,0,0,1,2.216-2.216,2.16,2.16,0,0,1,.822.161,2.214,2.214,0,1,0-2.679,3.26Z" transform="translate(-183.47 -111.934)"/><path class="c" d="M122.152,217.709l4.885,4.124-.387,3.4a1.544,1.544,0,0,1-1.313,1.488H114.394a.6.6,0,0,1-.094,0,1.333,1.333,0,0,0,1.129.855h10.942a1.544,1.544,0,0,0,1.313-1.488l.387-3.4-5.906-4.984S122.157,217.7,122.152,217.709Z" transform="translate(-114.3 -211.497)"/><path class="c" d="M388.8,86.4l-1,8.731,1.03.869,1.1-9.6Z" transform="translate(-374.879 -86.4)"/></g></g></g></svg>