<svg xmlns="http://www.w3.org/2000/svg" viewBox="1647.028 307.179 15.272 16.821">
  <defs>
    <style>
      .cls-1 {
        fill: #d5a86c;
      }

      .cls-2 {
        fill: #ffd;
      }

      .cls-3 {
        fill: #583318;
      }
    </style>
  </defs>
  <g id="noun_215018_cc" transform="translate(1617 279.179)">
    <g id="Group_1134" data-name="Group 1134" transform="translate(30.028 28)">
      <circle id="Ellipse_62" data-name="Ellipse 62" class="cls-1" cx="7.304" cy="7.304" r="7.304" transform="translate(0.43 2.213)"/>
      <circle id="Ellipse_61" data-name="Ellipse 61" class="cls-2" cx="7.304" cy="7.304" r="7.304" transform="translate(0.43 0)"/>
      <path id="Path_790" data-name="Path 790" class="cls-3" d="M12.236,0A7.652,7.652,0,0,0,4.6,7.636V9.2a7.636,7.636,0,0,0,15.272-.017V7.619A7.648,7.648,0,0,0,12.236,0ZM5.962,12.261a7.07,7.07,0,0,1-.37-.891,6.653,6.653,0,0,0,.37.572Zm.824,1.312c-.118-.135-.219-.286-.32-.42v-.521a3.023,3.023,0,0,0,.32.336ZM7.947,14.7c-.219-.168-.437-.37-.639-.555v-.69c.2.168.42.336.639.488Zm1.194.757c-.235-.118-.454-.252-.673-.387v-.824c.219.118.437.235.673.336Zm1.346.5a7,7,0,0,1-.841-.269v-.875a6.942,6.942,0,0,0,.841.252ZM12,16.18a9.436,9.436,0,0,1-.992-.1v-.908a9.436,9.436,0,0,0,.992.1Zm1.514-.118a6.4,6.4,0,0,1-.992.118v-.925a9.436,9.436,0,0,0,.992-.1Zm1.362-.4a7.064,7.064,0,0,1-.841.286v-.908a6.942,6.942,0,0,0,.841-.252Zm1.194-.622a5.354,5.354,0,0,1-.673.387v-.858a5.126,5.126,0,0,0,.673-.353Zm1.144-.942a6.764,6.764,0,0,1-.639.572v-.774c.219-.151.437-.32.639-.488Zm.824-1.009c-.1.151-.2.286-.3.42v-.589c.1-.1.2-.219.3-.336Zm.521-.908v-.286c.118-.168.219-.336.32-.5A6.471,6.471,0,0,1,18.56,12.177Zm-6.324,2.439a6.988,6.988,0,1,1,7-6.98A7.013,7.013,0,0,1,12.236,14.616Z" transform="translate(-4.6 0.002)"/>
      <path id="Path_791" data-name="Path 791" class="cls-3" d="M21.653,10.6A5.857,5.857,0,0,0,15.8,16.453v.269c0,.05.017.151.017.219a.213.213,0,0,0,.017.1h0a5.848,5.848,0,0,0,11.639-.017h0v-.017c0-.067.017-.118.017-.185h0c0-.118.017-.252.017-.37A5.857,5.857,0,0,0,21.653,10.6Zm5.281,6.173v.1c0,.05-.017.1-.017.135a5.3,5.3,0,0,1-10.529.118h0a.328.328,0,0,0-.017-.118c-.017-.135-.017-.269-.034-.4a5.3,5.3,0,0,1,10.6.168Z" transform="translate(-13.916 -8.815)"/>
      <path id="Path_792" data-name="Path 792" class="cls-3" d="M41.071,21.346a1.578,1.578,0,0,0-1.28-1.443v-.8h-.585v.776h-.653V19.1h-.585v.776H37v.585h0v4.329h0v.585h.994v.776h.585v-.776h.653v.776h.585v-.8a1.593,1.593,0,0,0,1.28-1.443h0V23.8h0a1.724,1.724,0,0,0-.694-1.171,1.585,1.585,0,0,0,.653-1.171h0V21.4c.014-.014.014-.027.014-.054ZM39.5,22.926a.941.941,0,1,1,0,1.879h-1.92V22.926H39.5V22.34H37.6V20.461h1.92a.941.941,0,1,1,0,1.879v.585Z" transform="translate(-31.068 -15.055)"/>
    </g>
  </g>
</svg>
