<?xml version="1.0" encoding="UTF-8"?>
<svg width="36px" height="35px" viewBox="0 0 36 35" version="1.1" xmlns="http://www.w3.org/2000/svg" xmlns:xlink="http://www.w3.org/1999/xlink">
    <!-- Generator: Sketch 46 (44423) - http://www.bohemiancoding.com/sketch -->
    <title>Path_18</title>
    <desc>Created with Sketch.</desc>
    <defs></defs>
    <g id="Page-1" stroke="none" stroke-width="1" fill="none" fill-rule="evenodd">
        <g id="icon-star-vote" fill-rule="nonzero" fill="#583318">
            <path d="M28.33,34.471 C29.0809076,34.3748981 29.612344,33.6891305 29.518,32.938 C29.518,32.918 29.513,32.898 29.509,32.878 L27.767,22.211 L35.391,14.611 C35.9263981,14.0746393 35.9304116,13.2072924 35.4,12.666 C35.195224,12.4574401 34.9287462,12.3203443 34.64,12.275 L24.027,10.641 L19.216,0.973 C19.0552172,0.647704385 18.7711062,0.40014974 18.4268657,0.285402905 C18.0826252,0.17065607 17.7068036,0.198233218 17.383,0.362 C17.120617,0.495290829 16.9081304,0.709530678 16.777,0.973 L11.966,10.641 L1.353,12.275 C0.605650756,12.3957405 0.0967674245,13.0982499 0.215,13.846 C0.259720179,14.135763 0.395630746,14.403731 0.603,14.611 L8.227,22.211 L6.485,32.878 C6.35752108,33.6244168 6.85797031,34.3332747 7.604,34.463 C7.89955764,34.5131205 8.20339281,34.463888 8.468,34.323 L17.995,29.354 L27.522,34.323 C27.7671451,34.4533364 28.0463698,34.505342 28.322,34.472 L28.33,34.471 Z" id="Path_18"></path>
        </g>
    </g>
</svg>