<svg xmlns="http://www.w3.org/2000/svg" viewBox="4519.054 357.984 21.336 14.016">
  <defs>
    <style>
      .cls-1 {
        fill: #ffd;
      }
    </style>
  </defs>
  <g id="Group_1239" data-name="Group 1239" transform="translate(4519.054 357.984)">
    <path id="Path_766" data-name="Path 766" class="cls-1" d="M69.4,37.013v1.579a.4.4,0,0,0,.395.395h3.919a.395.395,0,0,0,.335-.6l-.98-1.579a.4.4,0,0,0-.335-.186H69.791A.394.394,0,0,0,69.4,37.013Z" transform="translate(-53.125 -32.006)"/>
    <path id="Path_767" data-name="Path 767" class="cls-1" d="M3.763,32.55H5.21a.494.494,0,1,0,0-.987H3.763a.494.494,0,1,0,0,.987Z" transform="translate(-2.627 -28.145)"/>
    <path id="Path_768" data-name="Path 768" class="cls-1" d="M1.047,43.407h.033a.494.494,0,0,0,0-.987H1.047a.494.494,0,0,0,0,.987Z" transform="translate(-0.553 -36.436)"/>
    <path id="Path_769" data-name="Path 769" class="cls-1" d="M4.917,19.8H9.8a.66.66,0,0,1,.011.723H6.877a.493.493,0,0,0-.494.494v2.073H4.568a.494.494,0,0,0,0,.987h3.74a.832.832,0,0,1,.008.734H6.877a.489.489,0,0,0-.485.45H3.763a.494.494,0,0,0,0,.987H6.383v2.12a.493.493,0,0,0,.494.493h.777a2.382,2.382,0,0,0,4.757,0h4.155V18.441a2.416,2.416,0,0,0-.419-.592,2.633,2.633,0,0,0-1.97-.745h-7.3a.493.493,0,0,0-.494.494V18.81H4.917a.493.493,0,1,0,0,.987Zm6.513,8.937a1.4,1.4,0,1,1-1.4-1.4A1.4,1.4,0,0,1,11.431,28.734Z" transform="translate(-2.627 -17.103)"/>
    <path id="Path_770" data-name="Path 770" class="cls-1" d="M63.184,31.946V29.38a.494.494,0,0,1,.493-.493h3.215L66.033,27.5a.494.494,0,0,0-.419-.233H62.037v9.353h.027a2.381,2.381,0,0,0,4.756,0h1.528a.494.494,0,0,0,.494-.494V32.439H63.678A.493.493,0,0,1,63.184,31.946ZM65.84,36.5a1.4,1.4,0,1,1-1.4-1.4A1.4,1.4,0,0,1,65.84,36.5Z" transform="translate(-47.505 -24.866)"/>
  </g>
</svg>
