<?xml version="1.0" encoding="utf-8"?>
<!-- Generator: Adobe Illustrator 16.0.0, SVG Export Plug-In . SVG Version: 6.00 Build 0)  -->
<!DOCTYPE svg PUBLIC "-//W3C//DTD SVG 1.1//EN" "http://www.w3.org/Graphics/SVG/1.1/DTD/svg11.dtd">
<svg version="1.1" id="Layer_1" xmlns="http://www.w3.org/2000/svg" xmlns:xlink="http://www.w3.org/1999/xlink" x="0px" y="0px"
	 width="835.896px" height="835.917px" viewBox="806.137 84.999 835.896 835.917"
	 enable-background="new 806.137 84.999 835.896 835.917" xml:space="preserve">
<path fill="#583318" d="M1558.138,337.27c-8.543-0.625-16.446-5.385-20.955-12.736l-0.208-0.353
	c-4.178-6.91-5.354-15.305-3.244-23.062c1.908-7.076,6.692-13.133,13.129-16.625l0.331-0.165l0.387-0.246
	c4.26-2.703,9.181-4.158,14.228-4.208c10.067,0.13,19.447,5.7,24.413,14.536l0.146,0.266l0.044,0.07
	c3.836,6.108,5.047,13.627,3.323,20.629c-1.906,7.445-6.82,13.967-13.477,17.867c-4.587,2.515-9.86,3.908-15.178,3.985
	L1558.138,337.27z"/>
<path fill="#583318" d="M1418.347,194.69c-5.089,0-10.132-1.296-14.589-3.75c-13.53-8.486-18.049-26.024-10.304-39.992
	c5.479-8.701,14.88-13.893,25.166-13.893l0.158,0c5.188,0.012,10.33,1.321,14.885,3.785c13.369,8.234,17.745,25.345,9.957,38.991
	l-0.2,0.371c-4.779,8.598-13.734,14.084-23.55,14.486L1418.347,194.69z"/>
<path fill="#583318" d="M1222.942,920.916c-54.988,0-108.617-10.706-159.398-31.819c-50.787-21.115-96.203-51.594-134.986-90.587
	c-39.146-38.936-69.698-84.527-90.819-135.522c-21.121-50.994-31.752-104.837-31.599-160.032
	c-0.149-55.209,10.483-109.047,31.604-160.038c21.12-50.99,51.67-96.579,90.803-135.5c38.798-39.009,84.214-69.488,134.998-90.603
	C1114.322,95.704,1167.951,85,1222.946,85l1.5,0c15.562,0,28.363,12.663,28.537,28.228c0.004,0.219,0.004,0.421,0,0.625
	c0.086,7.708-2.804,14.909-8.135,20.361c-5.331,5.452-12.466,8.501-20.091,8.587h-0.636
	c-96.191,0.112-186.587,37.618-254.577,105.607c-67.989,67.989-105.495,158.385-105.608,254.536
	c0.106,96.163,37.609,186.564,105.6,254.56c67.99,67.994,158.39,105.503,254.545,105.617
	c96.163-0.113,186.562-37.622,254.553-105.616c67.99-67.995,105.493-158.397,105.6-254.554
	c-0.176-15.776,12.487-28.725,28.227-28.901l1.033-0.002c15.562,0,28.364,12.663,28.538,28.228c0.003,0.215,0.003,0.425,0,0.636
	c0.153,55.241-10.478,109.084-31.599,160.078c-21.12,50.995-51.672,96.587-90.807,135.511
	c-38.799,39.008-84.215,69.487-134.998,90.602c-50.775,21.111-104.403,31.816-159.392,31.816
	C1225.232,920.916,1222.942,920.916,1222.942,920.916z"/>
</svg>
