<svg xmlns="http://www.w3.org/2000/svg" viewBox="2840.663 450.217 67.505 19.828">
  <defs>
    <style>
      .cls-1 {
        fill: #fff;
      }
    </style>
  </defs>
  <g id="Group_52" data-name="Group 52" transform="translate(2790 -78)">
    <path id="iconmonstr-payment-3" class="cls-1" d="M24.367,12.868l.465,2.127H23.166l.8-2.058.266-.7.135.635Zm5.376-6.39V21.35a2.479,2.479,0,0,1-2.479,2.479H2.479A2.479,2.479,0,0,1,0,21.35V6.479A2.479,2.479,0,0,1,2.479,4H27.264A2.479,2.479,0,0,1,29.743,6.479ZM8.494,17.6l3.159-7.348H9.528l-1.964,5.02-.209-1.02-.7-3.383a.84.84,0,0,0-.91-.622H2.5l-.026.152a8.487,8.487,0,0,1,2.108.807L6.371,17.6H8.494Zm5.977-7.354H12.465L11.21,17.6h2.006l1.254-7.363ZM20.2,15.2c.007-.838-.527-1.475-1.684-2-.7-.341-1.131-.568-1.126-.912,0-.306.363-.633,1.149-.633a3.691,3.691,0,0,1,1.5.283l.18.084.271-1.595a5.165,5.165,0,0,0-1.8-.31c-1.983,0-3.38,1-3.392,2.43-.011,1.058,1,1.648,1.759,2,.781.361,1.043.591,1.04.913,0,.493-.623.719-1.2.719a4.2,4.2,0,0,1-1.889-.387l-.259-.118-.281,1.648a6.337,6.337,0,0,0,2.236.393c2.109,0,3.479-.988,3.495-2.516Zm7.061,2.409L25.639,10.25h-1.55a1,1,0,0,0-1.051.611l-2.98,6.747h2.107l.423-1.107,2.57,0,.244,1.1Z" transform="translate(50.663 524.217)"/>
    <path id="iconmonstr-payment-5" class="cls-1" d="M19.03,19.312a.394.394,0,1,1-.393-.417A.39.39,0,0,1,19.03,19.312ZM10.645,18.9a.418.418,0,1,0,.393.417A.391.391,0,0,0,10.645,18.9Zm4.173-.014a.335.335,0,0,0-.346.316h.676A.323.323,0,0,0,14.818,18.883Zm6.448.014a.418.418,0,1,0,.393.417A.391.391,0,0,0,21.265,18.9ZM29.532,6.461V21.227a2.462,2.462,0,0,1-2.461,2.461H2.461A2.462,2.462,0,0,1,0,21.227V6.461A2.462,2.462,0,0,1,2.461,4h24.61a2.462,2.462,0,0,1,2.461,2.461ZM6.822,12.6a4.9,4.9,0,0,0,7.483,4.17,5.44,5.44,0,0,1,0-8.34A4.9,4.9,0,0,0,6.822,12.6Zm2.887,6.551a.485.485,0,0,0-.512-.518.506.506,0,0,0-.458.231.479.479,0,0,0-.431-.231.43.43,0,0,0-.381.193V18.66H7.644v1.3h.285V19.24a.3.3,0,0,1,.319-.346c.188,0,.283.123.283.343v.725h.285V19.24a.307.307,0,0,1,.319-.346c.193,0,.285.123.285.343v.725h.288v-.816Zm1.6-.485h-.283v.158a.5.5,0,0,0-.411-.191.685.685,0,0,0,0,1.368.493.493,0,0,0,.411-.191v.158H11.3Zm1.432.911c0-.229-.171-.348-.455-.39l-.133-.02c-.123-.016-.22-.041-.22-.128s.092-.153.247-.153a.837.837,0,0,1,.406.112l.123-.229a.974.974,0,0,0-.532-.137c-.33,0-.541.158-.541.417,0,.213.158.343.449.384l.133.02c.155.022.229.063.229.137,0,.1-.1.158-.3.158a.694.694,0,0,1-.433-.137l-.133.22a.929.929,0,0,0,.564.17c.375,0,.593-.177.593-.425ZM14,19.9l-.081-.242a.523.523,0,0,1-.251.074c-.142,0-.188-.087-.188-.218v-.588h.463v-.258h-.463v-.395h-.285v.395h-.265v.258h.265v.594c0,.3.117.482.452.482A.676.676,0,0,0,14,19.9Zm1.443-.583a.625.625,0,0,0-.619-.684A.685.685,0,0,0,14.841,20a.8.8,0,0,0,.534-.182l-.139-.209a.62.62,0,0,1-.379.137.363.363,0,0,1-.39-.319h.967l.007-.111Zm1.117-.647-.2-.036a.384.384,0,0,0-.343.191v-.158h-.281v1.3h.283v-.731c0-.215.092-.335.278-.335l.177.033.087-.267Zm.379.647a.39.39,0,0,1,.393-.417.574.574,0,0,1,.341.117l.137-.229a.68.68,0,0,0-.469-.155.684.684,0,1,0,0,1.368.682.682,0,0,0,.469-.155l-.137-.229a.571.571,0,0,1-.341.117.389.389,0,0,1-.391-.417Zm2.358-.651h-.283v.158a.5.5,0,0,0-.411-.191A.685.685,0,0,0,18.6,20a.493.493,0,0,0,.411-.191v.158H19.3Zm1.2,0-.2-.036a.384.384,0,0,0-.343.191v-.158h-.281v1.3h.283v-.731c0-.215.092-.335.278-.335l.177.033.087-.267Zm1.43-.527h-.283v.68a.5.5,0,0,0-.411-.191.685.685,0,0,0,0,1.368.493.493,0,0,0,.411-.191v.158h.283ZM22.71,12.6a4.9,4.9,0,1,0-4.9,4.9A4.9,4.9,0,0,0,22.71,12.6Z" transform="translate(88.636 524.217)"/>
  </g>
</svg>
