<svg xmlns="http://www.w3.org/2000/svg" viewBox="1411.415 240.818 24 26.726">
  <defs>
    <style>
      .cls-1 {
        fill: #fff;
      }

      .cls-2 {
        fill: #d84040;
      }

      .cls-3 {
        fill: #583318;
      }
    </style>
  </defs>
  <g id="Group_1121" data-name="Group 1121" transform="translate(1201.041 50.818)">
    <g id="Group_1109" data-name="Group 1109" transform="translate(210.374 190)">
      <path id="Path_787" data-name="Path 787" class="cls-1" d="M16.768,1.67m0-1.67A11.73,11.73,0,0,0,12.8,22.774a3.993,3.993,0,0,1,1.878,1.383c.391.5.783.991,1.148,1.487a1.178,1.178,0,0,0,1.852,0c.391-.5.783-.991,1.148-1.487A4.209,4.209,0,0,1,20.707,22.8,11.7,11.7,0,0,0,28.3,9.757a11.457,11.457,0,0,0-3.965-6.991A11.707,11.707,0,0,0,16.768,0Z" transform="translate(-4.755 0.316)"/>
      <circle id="Ellipse_39" data-name="Ellipse 39" class="cls-2" cx="8.438" cy="8.438" r="8.438" transform="translate(3.647 3.542)"/>
      <g id="Group_1108" data-name="Group 1108" transform="translate(0 0)">
        <path id="Path_786" data-name="Path 786" class="cls-3" d="M17.052,1.71a10.186,10.186,0,0,1,6.626,2.431,10.442,10.442,0,0,1,3.527,6.119,10.288,10.288,0,0,1-6.626,11.463A6.111,6.111,0,0,0,17.854,23.7l-.534.695a.3.3,0,0,1-.481,0L16.3,23.7a5.968,5.968,0,0,0-2.725-1.977,10.481,10.481,0,0,1-5.424-4.516A10.176,10.176,0,0,1,6.926,10.26a10.305,10.305,0,0,1,3.527-6.119,10.064,10.064,0,0,1,6.6-2.431m0-1.71a12.014,12.014,0,0,0-4.061,23.326,4.089,4.089,0,0,1,1.924,1.416c.4.508.8,1.015,1.176,1.523a1.206,1.206,0,0,0,1.9,0c.4-.508.8-1.015,1.176-1.523a4.31,4.31,0,0,1,1.924-1.389,11.984,11.984,0,0,0,7.775-13.36A11.734,11.734,0,0,0,24.8,2.832,11.99,11.99,0,0,0,17.052,0Z" transform="translate(-5.039 0)"/>
      </g>
      <g id="Group_1120" data-name="Group 1120" transform="translate(0 0)">
        <path id="Path_786-2" data-name="Path 786" class="cls-3" d="M17.052,1.71a10.186,10.186,0,0,1,6.626,2.431,10.442,10.442,0,0,1,3.527,6.119,10.288,10.288,0,0,1-6.626,11.463A6.111,6.111,0,0,0,17.854,23.7l-.534.695a.3.3,0,0,1-.481,0L16.3,23.7a5.968,5.968,0,0,0-2.725-1.977,10.481,10.481,0,0,1-5.424-4.516A10.176,10.176,0,0,1,6.926,10.26a10.305,10.305,0,0,1,3.527-6.119,10.064,10.064,0,0,1,6.6-2.431m0-1.71a12.014,12.014,0,0,0-4.061,23.326,4.089,4.089,0,0,1,1.924,1.416c.4.508.8,1.015,1.176,1.523a1.206,1.206,0,0,0,1.9,0c.4-.508.8-1.015,1.176-1.523a4.31,4.31,0,0,1,1.924-1.389,11.984,11.984,0,0,0,7.775-13.36A11.734,11.734,0,0,0,24.8,2.832,11.99,11.99,0,0,0,17.052,0Z" transform="translate(-5.039 0)"/>
      </g>
    </g>
  </g>
</svg>
