<svg xmlns="http://www.w3.org/2000/svg" viewBox="1316.679 43.5 28.901 18.984">
  <defs>
    <style>
      .cls-1 {
        fill: #fff;
      }
    </style>
  </defs>
  <g id="Group_1010" data-name="Group 1010" transform="translate(1316.679 43.5)">
    <path id="Path_766" data-name="Path 766" class="cls-1" d="M69.4,37.153v2.139a.535.535,0,0,0,.535.535h5.308a.534.534,0,0,0,.454-.816l-1.327-2.139a.535.535,0,0,0-.454-.253H69.931A.534.534,0,0,0,69.4,37.153Z" transform="translate(-47.356 -30.371)"/>
    <path id="Path_767" data-name="Path 767" class="cls-1" d="M3.937,32.9H5.9a.668.668,0,1,0,0-1.337H3.937a.668.668,0,1,0,0,1.337Z" transform="translate(-2.399 -26.934)"/>
    <path id="Path_768" data-name="Path 768" class="cls-1" d="M1.221,43.757h.044a.668.668,0,0,0,0-1.337H1.221a.668.668,0,0,0,0,1.337Z" transform="translate(-0.553 -34.315)"/>
    <path id="Path_769" data-name="Path 769" class="cls-1" d="M5.5,20.752h6.619a.894.894,0,0,1,.015.98H8.156a.668.668,0,0,0-.668.668v2.807H5.029a.668.668,0,0,0,0,1.337H10.1a1.127,1.127,0,0,1,.01.994H8.156a.663.663,0,0,0-.657.61H3.937a.668.668,0,0,0,0,1.337h3.55v2.871a.668.668,0,0,0,.668.668H9.209a3.226,3.226,0,0,0,6.444,0h5.628V18.915a3.272,3.272,0,0,0-.568-.8A3.567,3.567,0,0,0,18.045,17.1H8.156a.668.668,0,0,0-.668.668v1.644H5.5a.668.668,0,1,0,0,1.337Zm8.822,12.106a1.893,1.893,0,1,1-1.894-1.893A1.9,1.9,0,0,1,14.324,32.858Z" transform="translate(-2.399 -17.103)"/>
    <path id="Path_770" data-name="Path 770" class="cls-1" d="M63.591,33.6V30.128a.669.669,0,0,1,.668-.668h4.354L67.45,27.585a.669.669,0,0,0-.568-.316H62.037V39.937h.036a3.225,3.225,0,0,0,6.443,0h2.069a.669.669,0,0,0,.668-.668v-5H64.259A.668.668,0,0,1,63.591,33.6Zm3.6,6.166A1.893,1.893,0,1,1,65.3,37.877,1.894,1.894,0,0,1,67.188,39.769Z" transform="translate(-42.353 -24.014)"/>
  </g>
</svg>
