<svg xmlns="http://www.w3.org/2000/svg" viewBox="3291.687 834.572 21.554 21.554">
  <defs>
    <style>
      .cls-1, .cls-2 {
        fill: #ffd;
      }

      .cls-2 {
        stroke: #ffd;
        stroke-width: 0.5px;
      }
    </style>
  </defs>
  <g id="Group_240" data-name="Group 240" transform="translate(3291.937 834.822)">
    <g id="Group_239" data-name="Group 239" transform="translate(0)">
      <g id="Group_236" data-name="Group 236" transform="translate(18.17 4.876)">
        <path id="Path_175" data-name="Path 175" class="cls-1" d="M-21.209-42.709a.746.746,0,0,1-.663-.355l-.006-.01a.814.814,0,0,1-.089-.635.747.747,0,0,1,.365-.462l.007,0,.007,0a.752.752,0,0,1,.4-.114.788.788,0,0,1,.677.4l0,.005a.744.744,0,0,1,.093.573.8.8,0,0,1-.372.494.892.892,0,0,1-.417.11" transform="translate(21.996 44.293)"/>
      </g>
      <g id="Group_237" data-name="Group 237" transform="translate(14.596 1.304)">
        <path id="Path_176" data-name="Path 176" class="cls-1" d="M-21.453-42.925a.832.832,0,0,1-.408-.1.826.826,0,0,1-.284-1.1.821.821,0,0,1,.7-.384.861.861,0,0,1,.408.1.8.8,0,0,1,.276,1.077l0,.007a.783.783,0,0,1-.687.4" transform="translate(22.248 44.517)"/>
      </g>
      <g id="Group_238" data-name="Group 238">
        <path id="Path_177" data-name="Path 177" class="cls-2" d="M-283.879-567.76a10.458,10.458,0,0,1-7.444-3.083,10.458,10.458,0,0,1-3.083-7.444,10.459,10.459,0,0,1,3.083-7.444,10.458,10.458,0,0,1,7.444-3.083.789.789,0,0,1,.8.8.789.789,0,0,1-.8.8,8.942,8.942,0,0,0-8.932,8.932,8.942,8.942,0,0,0,8.932,8.932,8.942,8.942,0,0,0,8.932-8.932.789.789,0,0,1,.8-.8.789.789,0,0,1,.8.8,10.459,10.459,0,0,1-3.083,7.444,10.459,10.459,0,0,1-7.444,3.083" transform="translate(294.406 588.814)"/>
      </g>
    </g>
  </g>
</svg>
