<svg xmlns="http://www.w3.org/2000/svg" viewBox="112.849 517.278 40.651 15.345">
  <defs>
    <style>
      .cls-1 {
        fill: #d84040;
        fill-rule: evenodd;
      }
    </style>
  </defs>
  <g id="noun_164565_cc" transform="translate(136.351 364.941)">
    <g id="Group_1009" data-name="Group 1009" transform="translate(-23.502 152.336)">
      <path id="Path_771" data-name="Path 771" class="cls-1" d="M-9.5,25.161A2.26,2.26,0,0,1-7.247,22.9l31.063.108a2.169,2.169,0,0,1,1.5.635l5.2,5.395a2.3,2.3,0,0,1,0,3.177l-5.2,5.395a2.159,2.159,0,0,1-1.5.635l-31.063-.108A2.257,2.257,0,0,1-9.5,35.878V25.161m35.431,7.018a1.552,1.552,0,1,0-1.552-1.552,1.551,1.551,0,0,0,1.552,1.552" transform="translate(9.502 -22.9)"/>
    </g>
  </g>
</svg>
