<svg xmlns="http://www.w3.org/2000/svg" viewBox="1650.899 246.935 34.239 22.065">
  <defs>
    <style>
      .cls-1 {
        fill: #ffd;
      }

      .cls-2 {
        fill: #d5a86c;
      }

      .cls-3 {
        fill: #583318;
      }
    </style>
  </defs>
  <g id="Group_1297" data-name="Group 1297" transform="translate(1604)">
    <g id="Group_1296" data-name="Group 1296">
      <g id="Group_1295" data-name="Group 1295">
        <path id="Path_872" data-name="Path 872" class="cls-1" d="M1250.957,248.442v19.193h32.24V248.442Z" transform="translate(-1203)"/>
        <g id="noun_1262910_cc" transform="translate(41.899 225.935)">
          <g id="Group_1277" data-name="Group 1277" transform="translate(5 21)">
            <rect id="Rectangle_197" data-name="Rectangle 197" class="cls-2" width="33" height="4" transform="translate(0.101 5.065)"/>
            <circle id="Ellipse_76" data-name="Ellipse 76" class="cls-2" cx="2" cy="2" r="2" transform="translate(21.101 13.065)"/>
            <path id="Path_867" data-name="Path 867" class="cls-3" d="M7.663,973.362A2.674,2.674,0,0,0,5,976.025v16.739a2.674,2.674,0,0,0,2.663,2.663H36.576a2.674,2.674,0,0,0,2.663-2.663V976.025a2.674,2.674,0,0,0-2.663-2.663Zm0,1.522H36.576a1.123,1.123,0,0,1,1.141,1.141v1.141H6.522v-1.141A1.123,1.123,0,0,1,7.663,974.884Zm-1.141,3.8h31.2v2.283H6.522Zm0,3.8h31.2v10.272a1.122,1.122,0,0,1-1.141,1.141H7.663a1.122,1.122,0,0,1-1.141-1.141Zm21.3,3.032a3.049,3.049,0,0,0,0,6.1,3.033,3.033,0,0,0,1.9-.678,3.018,3.018,0,0,0,1.9.678,3.044,3.044,0,1,0-1.89-5.421A3.041,3.041,0,0,0,27.826,985.524Zm0,1.534A1.516,1.516,0,1,1,26.3,988.58,1.51,1.51,0,0,1,27.826,987.058Zm3.8,0a1.522,1.522,0,1,1-.987,2.675,2.979,2.979,0,0,0,.226-1.153,3.032,3.032,0,0,0-.226-1.153A1.523,1.523,0,0,1,31.631,987.058Z" transform="translate(-5 -973.362)"/>
          </g>
        </g>
      </g>
    </g>
  </g>
</svg>
