<svg xmlns="http://www.w3.org/2000/svg" viewBox="-479.058 48.105 24.075 24.048">
  <defs>
    <style>
      .cls-1, .cls-2 {
        fill: #583318;
      }

      .cls-1 {
        stroke: #583318;
        stroke-width: 0.5px;
      }

      .cls-3 {
        fill: #d84040;
      }
    </style>
  </defs>
  <g id="noun_1057503_cc" transform="translate(-484.567 42.597)">
    <g id="Group_1181" data-name="Group 1181" transform="translate(5.8 5.8)">
      <path id="Path_828" data-name="Path 828" class="cls-1" d="M8.835,22.864a.514.514,0,0,0,.745,0A1.911,1.911,0,0,1,12.3,25.553a.515.515,0,0,0,0,.745l2.848,2.848a.515.515,0,0,0,.745,0L29.173,15.863a.515.515,0,0,0,0-.745L26.3,12.269a.542.542,0,0,0-.4-.16.483.483,0,0,0-.373.16l-.027.053-.027.027a1.92,1.92,0,0,1-2.715-2.715l.027-.027.027-.027A.71.71,0,0,0,23,9.208a.486.486,0,0,0-.16-.4L19.989,5.96a.515.515,0,0,0-.745,0L5.96,19.244a.515.515,0,0,0,0,.745ZM15.81,10.911l.293.293a.515.515,0,0,0,.745,0,.515.515,0,0,0,0-.745l-.293-.293L19.616,7.1l2.13,2.13A2.964,2.964,0,0,0,25.9,13.387l2.13,2.13-3.035,3.035-.293-.293a.527.527,0,1,0-.745.745l.293.293-8.732,8.732-2.13-2.13a2.985,2.985,0,0,0-4.153-4.153L7.1,19.616Z" transform="translate(-5.8 -5.8)"/>
      <path id="Path_829" data-name="Path 829" class="cls-2" d="M52.011,31.456a.515.515,0,0,0,.745,0,.515.515,0,0,0,0-.745L51.505,29.46a.527.527,0,0,0-.745.745Z" transform="translate(-38.674 -23.044)"/>
      <path id="Path_830" data-name="Path 830" class="cls-2" d="M63.411,42.856a.515.515,0,0,0,.745,0,.515.515,0,0,0,0-.745L62.905,40.86a.527.527,0,0,0-.745.745Z" transform="translate(-47.039 -31.409)"/>
      <path id="Path_831" data-name="Path 831" class="cls-3" d="M35.282,47.065l1.491,2.1.772-2.449,2.449-.772-2.1-1.491.027-2.556-2.05,1.517-2.449-.825.825,2.449L32.7,47.091Z" transform="translate(-25.539 -32.29)"/>
    </g>
  </g>
</svg>
