<svg xmlns="http://www.w3.org/2000/svg" viewBox="-779.5 41 33.502 33.502">
  <defs>
    <style>
      .cls-1 {
        fill: #ffd;
      }

      .cls-2 {
        fill: #583318;
      }

      .cls-3, .cls-5 {
        fill: none;
      }

      .cls-3 {
        stroke: #583318;
        stroke-width: 2px;
      }

      .cls-4 {
        stroke: none;
      }
    </style>
  </defs>
  <g id="Group_1305" data-name="Group 1305" transform="translate(-802)">
    <circle id="Ellipse_82" data-name="Ellipse 82" class="cls-1" cx="16" cy="16" r="16" transform="translate(23 42)"/>
    <g id="Group_1300" data-name="Group 1300">
      <g id="Group_1299" data-name="Group 1299" transform="translate(-12.588 -79.178)">
        <g id="noun_642295_cc" transform="translate(40.131 131.167)">
          <g id="Group_1111" data-name="Group 1111" transform="translate(0 0)">
            <path id="Path_789" data-name="Path 789" class="cls-2" d="M2.82,0A2.82,2.82,0,1,1,0,2.82,2.82,2.82,0,0,1,2.82,0Z" transform="translate(8.253 6.161) rotate(-76.891)"/>
            <path id="Path_788" data-name="Path 788" class="cls-2" d="M24.576.175a.207.207,0,0,0-.269-.115l-.971.375a1.212,1.212,0,0,0-1.852.721,6.4,6.4,0,0,0-1.342.986A8.676,8.676,0,0,1,18.483,3a.06.06,0,0,0-.076-.025.059.059,0,0,0-.039.072l-.143.057-.018-.046c-.1.038-.161.113-.123.211l.155.4c.038.1.135.112.233.074L18.455,3.7l.144-.053a.063.063,0,0,0,.116-.042,8.652,8.652,0,0,1,1.8-.483,12.418,12.418,0,0,0,1.323-.085,5.4,5.4,0,0,1,.1.988,3.45,3.45,0,0,1-.629,2.074,5.246,5.246,0,0,1-2.342,1.7,8.055,8.055,0,0,1-1.062.341c-.134.033-.24.055-.309.068l-.074.013-.011,0h0a1.211,1.211,0,0,0-.189.046,1.229,1.229,0,0,0-.26-.028H11.171c-.506-.58-1.42-1.6-2.582-2.756a42.683,42.683,0,0,0-4.351-3.82,1.061,1.061,0,0,0-1.638.2C2.27,2.442,2.309,3.235,3.308,4A38.965,38.965,0,0,1,6.874,7.2c.858.856,1.58,1.636,2.084,2.2.252.281.45.509.584.665l.152.178.019.023V20.3c.427,1.642,8.792,1.521,8.575,0V10.537a10.115,10.115,0,0,0,2.737-1.044A6.979,6.979,0,0,0,23.291,7.5a5.9,5.9,0,0,0,1.078-3.48,8.1,8.1,0,0,0-.222-1.831L25,1.858a.207.207,0,0,0,.122-.265Z" transform="translate(-2.415 -0.046)"/>
          </g>
        </g>
        <g id="Ellipse_43" data-name="Ellipse 43" class="cls-3" transform="translate(35.088 120.178)">
          <ellipse class="cls-4" cx="16.751" cy="16.751" rx="16.751" ry="16.751"/>
          <ellipse class="cls-5" cx="16.751" cy="16.751" rx="15.751" ry="15.751"/>
        </g>
      </g>
    </g>
  </g>
</svg>
