<svg xmlns="http://www.w3.org/2000/svg" viewBox="5030.203 333.88 35.595 34.268">
  <defs>
    <style>
      .cls-1 {
        fill: #583318;
      }
    </style>
  </defs>
  <g id="noun_748518_cc" transform="translate(5006.185 308.894)">
    <g id="Group_56" data-name="Group 56" transform="translate(24.017 24.986)">
      <path id="Path_16" data-name="Path 16" class="cls-1" d="M52.146,1011.606a1.363,1.363,0,0,0,.927-.543,1.384,1.384,0,0,0,.252-1.051l-1.742-10.667,7.625-7.6a1.383,1.383,0,0,0,.338-1.4,1.368,1.368,0,0,0-1.088-.935l-10.613-1.634-4.811-9.668a1.36,1.36,0,0,0-2.439,0l-4.811,9.668-10.613,1.634a1.368,1.368,0,0,0-1.088.935,1.383,1.383,0,0,0,.338,1.4l7.625,7.6L30.3,1010.012a1.38,1.38,0,0,0,.546,1.343,1.356,1.356,0,0,0,1.437.1l9.527-4.969,9.527,4.969a1.356,1.356,0,0,0,.8.149Zm-1.956-3.848-7.745-4.037a1.356,1.356,0,0,0-1.26,0l-7.745,4.037,1.42-8.669a1.382,1.382,0,0,0-.389-1.2l-6.2-6.184,8.616-1.31a1.366,1.366,0,0,0,1.018-.743l3.913-7.859,3.913,7.859a1.366,1.366,0,0,0,1.018.743l8.616,1.31-6.2,6.184a1.382,1.382,0,0,0-.389,1.2l1.42,8.669Z" transform="translate(-24.017 -977.349)"/>
    </g>
  </g>
</svg>
