<svg xmlns="http://www.w3.org/2000/svg" xmlns:xlink="http://www.w3.org/1999/xlink" viewBox="326.331 1356.348 22.719 22.72">
  <defs>
    <style>
      .cls-1 {
        fill: none;
      }

      .cls-2 {
        clip-path: url(#clip-path);
      }

      .cls-3 {
        fill: #fff;
      }
    </style>
    <clipPath id="clip-path">
      <path id="Path_56" data-name="Path 56" class="cls-1" d="M0-659.417H22.719v22.72H0Z" transform="translate(0 659.417)"/>
    </clipPath>
  </defs>
  <g id="Group_73" data-name="Group 73" transform="translate(326.331 1356.348)">
    <g id="Group_72" data-name="Group 72" class="cls-2">
      <g id="Group_70" data-name="Group 70" transform="translate(0 0)">
        <path id="Path_54" data-name="Path 54" class="cls-3" d="M-318.348-590.762a9.657,9.657,0,0,1-6.871-2.85,9.652,9.652,0,0,1-2.851-6.87,9.658,9.658,0,0,1,2.851-6.872,9.656,9.656,0,0,1,6.871-2.851,9.734,9.734,0,0,1,9.72,9.723,9.731,9.731,0,0,1-9.72,9.72m0-21.081a11.374,11.374,0,0,0-11.36,11.361,11.372,11.372,0,0,0,11.36,11.359,11.372,11.372,0,0,0,11.359-11.359,11.373,11.373,0,0,0-11.359-11.361" transform="translate(329.708 611.843)"/>
      </g>
      <g id="Group_71" data-name="Group 71" transform="translate(4.94 7.01)">
        <path id="Path_55" data-name="Path 55" class="cls-3" d="M-198.713-6.745a.815.815,0,0,0-.58-.241.8.8,0,0,0-.581.243l-5.693,5.693a.824.824,0,0,0,0,1.158.813.813,0,0,0,.579.24h0a.821.821,0,0,0,.58-.24l5.115-5.115,5.114,5.114a.816.816,0,0,0,.581.241.816.816,0,0,0,.575-.236.812.812,0,0,0,.243-.583.813.813,0,0,0-.24-.579Z" transform="translate(205.804 6.986)"/>
      </g>
    </g>
  </g>
</svg>
