<svg xmlns="http://www.w3.org/2000/svg" viewBox="427.295 788.378 29.417 29.417">
  <defs>
    <style>
      .cls-1 {
        fill: #583318;
      }
    </style>
  </defs>
  <g id="Group_1046" data-name="Group 1046" transform="translate(662.548 713.631)">
    <path id="Path_637" data-name="Path 637" class="cls-1" d="M36.709,974.362a14.709,14.709,0,1,0,14.709,14.709A14.733,14.733,0,0,0,36.709,974.362Zm0,3.152a11.557,11.557,0,1,1-11.557,11.557A11.533,11.533,0,0,1,36.709,977.514Zm0,2.1a1.576,1.576,0,0,0-1.576,1.576v7.879a1.574,1.574,0,0,0,.788,1.363l5.91,3.414a1.574,1.574,0,1,0,1.576-2.725l-5.122-2.955v-6.977A1.576,1.576,0,0,0,36.709,979.615Z" transform="translate(-257.253 -899.616)"/>
  </g>
</svg>
