<svg xmlns="http://www.w3.org/2000/svg" xmlns:xlink="http://www.w3.org/1999/xlink" viewBox="1561 -919 542.138 498.434">
  <defs>
    <style>
      .cls-1 {
        fill: none;
      }

      .cls-2 {
        clip-path: url(#clip-path);
      }

      .cls-3 {
        fill: #fff;
      }
    </style>
    <clipPath id="clip-path">
      <path class="cls-1" d="M0-498.434H542.138V0H0Z" transform="translate(0 498.434)"/>
    </clipPath>
  </defs>
  <g id="Group_10" data-name="Group 10" transform="translate(1561 -919)">
    <g class="cls-2">
      <path class="cls-3" d="M0,0A43.772,43.772,0,0,1-43.729,43.729H-72.852a43.269,43.269,0,0,1-17.514-3.71V-98.271a43.314,43.314,0,0,1,17.514-3.71h29.123A43.771,43.771,0,0,1,0-58.253ZM-125.346,174.858a17.492,17.492,0,0,1-17.49,17.491H-437.215a17.5,17.5,0,0,1-17.49-17.491V-218.6a17.5,17.5,0,0,1,17.49-17.49h294.388a17.5,17.5,0,0,1,17.489,17.49V174.858Zm15.574-433.9c-13.994-8.335-20.464-12.05-33.055-12.05H-437.215c-13.329,0-25.049,6.238-34.62,13.328s-17.047,31.073-17.047,31.073a55.738,55.738,0,0,0-.8,8.085V174.883a52.517,52.517,0,0,0,52.461,52.462h294.388a52.513,52.513,0,0,0,52.462-52.462V94.52a95.665,95.665,0,0,0,17.515,1.663h29.122A96.305,96.305,0,0,0,52.453-.008V-58.285A96.319,96.319,0,0,0-43.729-154.5H-72.852a95.708,95.708,0,0,0-17.514,1.663V-218.6a53.644,53.644,0,0,0-1.057-10.453s-4.356-21.656-18.349-29.991" transform="translate(489.685 271.089)"/>
    </g>
  </g>
</svg>
