<svg xmlns="http://www.w3.org/2000/svg" xmlns:xlink="http://www.w3.org/1999/xlink" viewBox="882.533 236.57 210.467 147.068">
  <defs>
    <style>
      .cls-1 {
        fill: none;
      }

      .cls-2 {
        clip-path: url(#clip-path);
      }

      .cls-3 {
        fill: #573317;
      }
    </style>
    <clipPath id="clip-path">
      <path id="path" class="cls-1" d="M0-606.208H210.467V-459.14H0Z" transform="translate(0 606.208)"/>
    </clipPath>
  </defs>
  <g id="group" transform="translate(882.533 236.57)">
    <g id="group-2" data-name="group" class="cls-2">
      <g id="group-3" data-name="group" transform="translate(147.466 109.308)">
        <path id="path-2" data-name="path" class="cls-3" d="M-11.169,0c-1.192.994-2.385,2.186-3.577,3.18A31.557,31.557,0,0,0-1.232,24.445v-.4a15.134,15.134,0,0,1,.6-4.174A27.208,27.208,0,0,1-11.169,0" transform="translate(14.746)"/>
      </g>
      <g id="group-4" data-name="group" transform="translate(169.129 75.522)">
        <path id="path-3" data-name="path" class="cls-3" d="M-29.782,0A36.588,36.588,0,0,0-37.93.994a30.7,30.7,0,0,1-1.391,4.571,30.1,30.1,0,0,1,9.54-1.789A27.906,27.906,0,0,1-1.958,31.6,27.915,27.915,0,0,1-12.491,53.263a15.133,15.133,0,0,1,.6,4.174v.4A31.835,31.835,0,0,0,2.017,31.6,31.851,31.851,0,0,0-29.782,0" transform="translate(39.321)"/>
      </g>
      <g id="group-5" data-name="group" transform="translate(48.89 109.705)">
        <path id="path-4" data-name="path" class="cls-3" d="M-33.5,0A27.222,27.222,0,0,1-44.237,19.476a24.478,24.478,0,0,1,.4,3.975v.6A32.365,32.365,0,0,0-29.928,2.981L-33.5,0" transform="translate(44.237)"/>
      </g>
      <g id="group-6" data-name="group" transform="translate(0 75.323)">
        <path id="path-5" data-name="path" class="cls-3" d="M-99.894-12.409a26.433,26.433,0,0,1,8.943,1.59c-.4-1.391-.994-2.981-1.391-4.571a31.808,31.808,0,0,0-7.751-.994,31.892,31.892,0,0,0-31.8,31.8A31.9,31.9,0,0,0-118.377,41.45a18.049,18.049,0,0,1,.6-4.571,28.089,28.089,0,0,1-10.136-21.464A28.207,28.207,0,0,1-99.894-12.409" transform="translate(131.891 16.384)"/>
      </g>
      <g id="group-7" data-name="group" transform="translate(77.311 17.887)">
        <path id="path-6" data-name="path" class="cls-3" d="M-15.511-93.069c-.795,0-.994.2-.994.2v1.789c0,3.975.8,3.975.994,3.975h.994a1.878,1.878,0,0,1,1.987,1.987v1.987c0,5.565,12.322,17.887,17.887,17.887H9.332c5.565,0,17.887-12.322,17.887-17.887v-1.987a1.878,1.878,0,0,1,1.987-1.987H30.2c.2,0,.994,0,.994-3.975a4.457,4.457,0,0,0-.2-1.987H29.206a1.878,1.878,0,0,1-1.987-1.987v-5.962c0-5.962-5.366-17.887-17.887-17.887H5.357c-12.521,0-17.887,11.924-17.887,17.887v5.962a1.878,1.878,0,0,1-1.987,1.987ZM9.332-61.27H5.357C-2.394-61.27-16.5-75.381-16.5-83.132c-3.975-.8-3.975-5.962-3.975-7.95s0-5.366,3.975-5.962v-3.975c0-7.354,6.558-21.862,21.862-21.862H9.332c15.3,0,21.862,14.508,21.862,21.862v3.975c3.975.4,3.975,3.776,3.975,5.962,0,1.789,0,7.155-3.975,7.95,0,7.751-14.111,21.862-21.862,21.862" transform="translate(20.479 122.88)"/>
      </g>
      <g id="group-8" data-name="group" transform="translate(83.074 29.215)">
        <path id="path-7" data-name="path" class="cls-3" d="M-93.689-39.088c-6.757,0-12.322-3.776-16.1-7.155A20.779,20.779,0,0,1-123.5-40.281l-.2-3.975c5.366-.2,8.347-2.186,12.521-6.161l1.391-1.192,1.391,1.391c3.379,3.18,8.546,7.354,14.707,7.354a16.638,16.638,0,0,0,11.527-3.975l2.584,2.981a21.648,21.648,0,0,1-14.111,4.77" transform="translate(123.699 51.609)"/>
      </g>
      <g id="group-9" data-name="group" transform="translate(65.585 81.484)">
        <path id="path-8" data-name="path" class="cls-3" d="M-117.266,0c-19.476.6-35.376,9.937-37.562,22.06l3.975.6c1.789-9.937,16.3-18.085,33.587-18.682Z" transform="translate(154.828)"/>
      </g>
      <g id="group-10" data-name="group" transform="translate(107.122 81.484)">
        <path id="path-9" data-name="path" class="cls-3" d="M0,0V3.975c17.291.6,31.8,8.546,33.587,18.682l3.975-.6C35.376,9.937,19.476.6,0,0"/>
      </g>
      <g id="group-11" data-name="group" transform="translate(99.172 77.509)">
        <path id="path-10" data-name="path" class="cls-3" d="M-24.819,0V5.962A1.878,1.878,0,0,1-26.807,7.95a1.878,1.878,0,0,1-1.988-1.988V0h-3.975V5.962a5.856,5.856,0,0,0,5.962,5.962,5.856,5.856,0,0,0,5.962-5.962V0Z" transform="translate(32.769)"/>
      </g>
      <g id="group-12" data-name="group" transform="translate(110.898 84.465)">
        <path id="path-11" data-name="path" class="cls-3" d="M-14.891-29.161a19.37,19.37,0,0,0,5.962-7.751l-3.776-1.59a14.429,14.429,0,0,1-6.956,7.552,19.666,19.666,0,0,1,4.77,1.789" transform="translate(19.661 38.502)"/>
      </g>
      <g id="group-13" data-name="group" transform="translate(88.639 84.664)">
        <path id="path-12" data-name="path" class="cls-3" d="M-18.613-28.541a22.429,22.429,0,0,1,4.77-1.59A13.7,13.7,0,0,1-20.8-37.683l-3.776,1.59a18.391,18.391,0,0,0,5.962,7.552" transform="translate(24.575 37.683)"/>
      </g>
      <g id="group-14" data-name="group" transform="translate(45.512 0)">
        <path id="path-13" data-name="path" class="cls-3" d="M-186.138,0A59.542,59.542,0,0,0-245.76,59.622a59.369,59.369,0,0,0,34.184,53.859,23.444,23.444,0,0,1,.795-3.975,55.856,55.856,0,0,1-31-49.884A55.811,55.811,0,0,1-186.138,3.975,55.811,55.811,0,0,1-130.49,59.622a55.856,55.856,0,0,1-31,49.884,28.136,28.136,0,0,1,.795,3.975,59.369,59.369,0,0,0,34.184-53.859A59.542,59.542,0,0,0-186.138,0" transform="translate(245.76)"/>
      </g>
      <g id="group-15" data-name="group" transform="translate(19.079 95.197)">
        <path id="path-14" data-name="path" class="cls-3" d="M-55.842-25.439c-2.782,0-6.956,0-9.54-3.18a10.846,10.846,0,0,1-5.565,1.192h-.994a1.835,1.835,0,0,1-1.789-1.988A1.835,1.835,0,0,1-71.94-31.4h.994c2.385-.2,3.776-.2,4.969-1.59a2.255,2.255,0,0,1,1.59-.6,2.035,2.035,0,0,1,1.192.994c1.192,2.583,3.975,2.782,7.354,2.782,1.59,0,2.385-.8,3.379-1.789l.8-.8a1.708,1.708,0,0,1,2.584.2,2.112,2.112,0,0,1-.2,2.782l-.6.6c-1.391,1.789-2.981,3.379-5.962,3.379" transform="translate(73.729 33.588)"/>
      </g>
      <g id="group-16" data-name="group" transform="translate(165.551 95.197)">
        <path id="path-15" data-name="path" class="cls-3" d="M-58.323-25.439c-2.981,0-7.155,0-9.937-3.18a11.587,11.587,0,0,1-5.764,1.192h-.994A1.992,1.992,0,0,1-77-29.414,1.835,1.835,0,0,1-75.216-31.4h.994c2.583-.2,3.776-.2,5.167-1.59a2.255,2.255,0,0,1,1.59-.6,3.564,3.564,0,0,1,1.391.994c1.192,2.583,4.174,2.782,7.751,2.782A4.509,4.509,0,0,0-54.746-31.6l.8-.8a1.7,1.7,0,0,1,2.584.2,2.112,2.112,0,0,1-.2,2.782l-.6.6a6.944,6.944,0,0,1-6.161,3.379" transform="translate(77.005 33.588)"/>
      </g>
      <g id="group-17" data-name="group" transform="translate(15.701 87.446)">
        <path id="path-16" data-name="path" class="cls-3" d="M-6.825-70.111c.4,2.186,2.584,5.167,5.167,7.552a17.968,17.968,0,0,1,4.174-1.59c-2.583-1.987-5.565-5.167-5.565-6.559V-71.7a1.878,1.878,0,0,0-1.987-1.987v-.994h.2A1.878,1.878,0,0,0-2.85-76.67v-2.981C-2.85-81.44-1.459-88.4,4.9-88.4H8.876c6.558,0,7.751,6.956,7.751,8.745v2.981a1.877,1.877,0,0,0,1.987,1.987h.2v.994h-.2A1.878,1.878,0,0,0,16.627-71.7v.994c0,1.391-2.782,4.77-5.565,6.559a20.328,20.328,0,0,1,4.174,1.59c2.584-2.385,4.77-5.167,5.167-7.552,1.193-.4,2.186-1.789,2.186-4.77,0-.795,0-3.18-2.186-3.776V-79.85c0-4.174-2.782-12.719-11.726-12.719H4.7c-8.943,0-11.726,8.546-11.726,12.719v1.192c-1.987.8-1.987,2.981-1.987,3.776,0,2.981.994,4.372,2.186,4.77" transform="translate(9.011 92.569)"/>
      </g>
      <g id="group-18" data-name="group" transform="translate(162.769 87.446)">
        <path id="path-17" data-name="path" class="cls-3" d="M-6.825-70.111c.4,2.186,2.583,5.167,5.167,7.552a17.964,17.964,0,0,1,4.174-1.59c-2.584-1.987-5.565-5.167-5.565-6.559V-71.7a1.878,1.878,0,0,0-1.987-1.987v-.994h.2A1.878,1.878,0,0,0-2.85-76.67v-2.981C-2.85-81.44-1.459-88.4,4.9-88.4H8.876c6.559,0,7.751,6.956,7.751,8.745v2.981a1.877,1.877,0,0,0,1.987,1.987h.2v.994h-.2A1.878,1.878,0,0,0,16.627-71.7v.994c0,1.391-2.782,4.77-5.565,6.559a20.33,20.33,0,0,1,4.174,1.59c2.583-2.385,4.77-5.167,5.167-7.552,1.193-.4,2.186-1.789,2.186-4.77,0-.795,0-3.18-2.186-3.776V-79.85c0-4.174-2.782-12.719-11.726-12.719H4.7c-8.944,0-11.726,8.546-11.726,12.719v1.192c-1.987.8-1.987,2.981-1.987,3.776,0,2.981.994,4.372,2.186,4.77" transform="translate(9.011 92.569)"/>
      </g>
      <g id="group-19" data-name="group" transform="translate(85.26 97.383)">
        <path id="path-18" data-name="path" class="cls-3" d="M-78.119-55.6a12.084,12.084,0,0,1-.8.943q-.278.277-.735.707t-.776.749q-.319.319-.513.541a2.647,2.647,0,0,0-.5,1.719V-49.7H-84.58v-1.692a3.938,3.938,0,0,1,.263-1.65,6.094,6.094,0,0,1,1.151-1.428l2.024-2.025A2.444,2.444,0,0,0-80.5-58.21a2.339,2.339,0,0,0-.665-1.705,2.3,2.3,0,0,0-1.719-.68,2.5,2.5,0,0,0-1.761.652,2.628,2.628,0,0,0-.818,1.733h-3.355A5.682,5.682,0,0,1-86.9-62.079a6.144,6.144,0,0,1,4.118-1.4,5.924,5.924,0,0,1,4.021,1.345A4.706,4.706,0,0,1-77.2-58.377a4.211,4.211,0,0,1-.915,2.773M-81.46-44.151a2.065,2.065,0,0,1-1.5.61,2.138,2.138,0,0,1-1.511-.6,1.9,1.9,0,0,1-.638-1.442,1.966,1.966,0,0,1,.624-1.456,2.068,2.068,0,0,1,1.5-.61,2.139,2.139,0,0,1,1.511.6,1.9,1.9,0,0,1,.638,1.442,1.965,1.965,0,0,1-.624,1.456m-1.807-29.263A19.933,19.933,0,0,0-103.141-53.54,19.933,19.933,0,0,0-83.267-33.666,19.933,19.933,0,0,0-63.393-53.54,19.932,19.932,0,0,0-83.267-73.414" transform="translate(103.141 73.414)"/>
      </g>
      <g id="group-20" data-name="group" transform="translate(164.757 119.244)">
        <path id="path-19" data-name="path" class="cls-3" d="M-52.624-41.23a7.489,7.489,0,0,1-.5.586q-.172.172-.457.44t-.483.466q-.2.2-.319.336a1.644,1.644,0,0,0-.31,1.069v.776h-1.949v-1.052a2.449,2.449,0,0,1,.164-1.026,3.789,3.789,0,0,1,.715-.888l1.259-1.259a1.52,1.52,0,0,0,.4-1.069,1.454,1.454,0,0,0-.414-1.06,1.431,1.431,0,0,0-1.069-.423,1.554,1.554,0,0,0-1.095.405,1.634,1.634,0,0,0-.509,1.077H-59.28a3.534,3.534,0,0,1,1.2-2.405,3.82,3.82,0,0,1,2.561-.871,3.684,3.684,0,0,1,2.5.836,2.927,2.927,0,0,1,.966,2.337,2.62,2.62,0,0,1-.569,1.724M-54.7-34.108a1.285,1.285,0,0,1-.931.379,1.329,1.329,0,0,1-.94-.37,1.182,1.182,0,0,1-.4-.9,1.221,1.221,0,0,1,.388-.905,1.285,1.285,0,0,1,.931-.38,1.329,1.329,0,0,1,.94.371,1.182,1.182,0,0,1,.4.9,1.222,1.222,0,0,1-.388.905m-.867-20.328A13.826,13.826,0,0,0-69.48-40.524,13.826,13.826,0,0,0-55.568-26.612,13.827,13.827,0,0,0-41.656-40.524,13.827,13.827,0,0,0-55.568-54.436" transform="translate(69.48 54.436)"/>
      </g>
      <g id="group-21" data-name="group" transform="translate(17.688 119.244)">
        <path id="path-20" data-name="path" class="cls-3" d="M-52.977-41.23a7.489,7.489,0,0,1-.5.586q-.172.172-.457.44t-.483.466q-.2.2-.319.336a1.644,1.644,0,0,0-.31,1.069v.776h-1.949v-1.052a2.449,2.449,0,0,1,.164-1.026,3.789,3.789,0,0,1,.715-.888l1.259-1.259a1.52,1.52,0,0,0,.4-1.069,1.454,1.454,0,0,0-.414-1.06,1.431,1.431,0,0,0-1.069-.423,1.554,1.554,0,0,0-1.095.405,1.634,1.634,0,0,0-.509,1.077h-2.086a3.534,3.534,0,0,1,1.2-2.405,3.82,3.82,0,0,1,2.561-.871,3.684,3.684,0,0,1,2.5.836,2.927,2.927,0,0,1,.966,2.337,2.62,2.62,0,0,1-.569,1.724m-2.078,7.121a1.285,1.285,0,0,1-.931.379,1.329,1.329,0,0,1-.94-.37,1.182,1.182,0,0,1-.4-.9,1.221,1.221,0,0,1,.388-.905,1.285,1.285,0,0,1,.931-.38,1.329,1.329,0,0,1,.94.371,1.182,1.182,0,0,1,.4.9,1.222,1.222,0,0,1-.388.905m-.979-20.328A13.826,13.826,0,0,0-69.946-40.524,13.826,13.826,0,0,0-56.034-26.612,13.826,13.826,0,0,0-42.122-40.524,13.826,13.826,0,0,0-56.034-54.436" transform="translate(69.946 54.436)"/>
      </g>
    </g>
  </g>
</svg>
