<svg xmlns="http://www.w3.org/2000/svg" xmlns:xlink="http://www.w3.org/1999/xlink" viewBox="3317.553 42.703 156.091 42.766">
  <defs>
    <style>
      .cls-1 {
        fill: none;
      }

      .cls-2 {
        clip-path: url(#clip-path);
      }

      .cls-3 {
        fill: #573317;
      }
    </style>
    <clipPath id="clip-path">
      <path id="Path_102" data-name="Path 102" class="cls-1" d="M0-204.172H156.091v42.766H0Z" transform="translate(0 204.172)"/>
    </clipPath>
  </defs>
  <g id="Group_137" data-name="Group 137" transform="translate(3317.553 42.703)">
    <g id="Group_136" data-name="Group 136" class="cls-2">
      <g id="Group_130" data-name="Group 130" transform="translate(2.945 2.945)">
        <path id="Path_96" data-name="Path 96" class="cls-3" d="M-398.239-44.134c-.05.293-.1.554-.162.779l-.547,1.788a26.714,26.714,0,0,1-1.3,3.022,19.344,19.344,0,0,1-1.518,2.53A8.55,8.55,0,0,1-403.33-34.3a2.307,2.307,0,0,1-1.435.608.878.878,0,0,1-.433-.179,1.286,1.286,0,0,1-.381-.474,2.356,2.356,0,0,1-.209-.8,3.5,3.5,0,0,1,.084-1.12,15.088,15.088,0,0,1,.684-2.05q.455-1.119,1.033-2.252t1.244-2.193a13.789,13.789,0,0,1,1.383-1.858,6.379,6.379,0,0,1,1.433-1.225,1.84,1.84,0,0,1,1.348-.29.553.553,0,0,1,.335.437,3.418,3.418,0,0,1,.08.732,4.849,4.849,0,0,1-.076.831M-423.42-22.912a8.488,8.488,0,0,1-2.249,1.478,2.1,2.1,0,0,1-1.375.231.632.632,0,0,1-.467-.525,1.293,1.293,0,0,1,.362-.841,2.854,2.854,0,0,1,1.062-.836l0,.04,4.174-2.138.409.367a12.69,12.69,0,0,1-1.92,2.224m-47.714-8.859a.344.344,0,0,1,.081-.195l-.028.127a11.885,11.885,0,0,1,1.394-2.908,14.789,14.789,0,0,1,1.792-2.273,5.536,5.536,0,0,1,1.58-1.2q.686-.3.749.269a2.041,2.041,0,0,1-.09.689,6.686,6.686,0,0,1-.451,1.14,19.051,19.051,0,0,1-2.156,2.722,14.482,14.482,0,0,1-2.818,2.3,5.133,5.133,0,0,1-.052-.673m45.852-4.955a.354.354,0,0,1,.083-.193l-.029.126a11.961,11.961,0,0,1,1.394-2.909,14.718,14.718,0,0,1,1.791-2.272,5.552,5.552,0,0,1,1.579-1.2q.689-.3.751.269a2.093,2.093,0,0,1-.091.69,6.717,6.717,0,0,1-.454,1.14,18.867,18.867,0,0,1-2.155,2.723,14.5,14.5,0,0,1-2.817,2.3,5.468,5.468,0,0,1-.052-.674m29.721,1.511c-.582.349-.908.219-.974-.4a2.532,2.532,0,0,1,.1-.773c.086-.352.2-.742.347-1.169q.3-1.02.8-2.289t1.007-2.5q.506-1.228.974-2.224a12.956,12.956,0,0,1,.786-1.485,2.041,2.041,0,0,0,.354-.717,1.992,1.992,0,0,0,.034-.642,1.5,1.5,0,0,0-.781-1.129,2.387,2.387,0,0,0-1.56-.346,2.7,2.7,0,0,0-.974.311,2.479,2.479,0,0,0-.846.75l0,.04-.362.452a6.409,6.409,0,0,0-.975-.636,3.458,3.458,0,0,0-.987-.387,8.64,8.64,0,0,0-2.883.949,13.929,13.929,0,0,0-2.716,1.9,19.035,19.035,0,0,0-2.4,2.564,19.206,19.206,0,0,0-1.888,2.92,13.837,13.837,0,0,0-1.111,2.842q-.313.468-.679.953a24.873,24.873,0,0,1-1.79,2.108,20.427,20.427,0,0,1-2.383,2.13l-.017-.9.125-.384c.071-.337.18-.747.319-1.229s.3-1,.47-1.553.36-1.115.56-1.686.406-1.115.625-1.632q.455-1.12.965-2.121t.882-1.742l.564-1.254,0,.04c.061-.2.114-.39.164-.574a1.622,1.622,0,0,0,.037-.6,1.3,1.3,0,0,0-.715-1.1,2.523,2.523,0,0,0-1.445-.235,3.444,3.444,0,0,0-1.353.455,2.177,2.177,0,0,0-.948,1.111l-.037.045a16.828,16.828,0,0,0-1.954,4.389c-.21.7-.414,1.409-.619,2.13q-.454.7-.932,1.413a23.462,23.462,0,0,1-2.131,2.74,11.041,11.041,0,0,1-2.3,1.958,3.97,3.97,0,0,1-2.483.638q-1.058-.257-1.219-1.762a19.026,19.026,0,0,0,4.372-2.777,15.561,15.561,0,0,0,3.322-3.734,6.259,6.259,0,0,0,.725-1.663,4.542,4.542,0,0,0,.148-1.683,2.707,2.707,0,0,0-.936-1.813,3.458,3.458,0,0,0-2.536-.611,7.257,7.257,0,0,0-3.288.993,10.891,10.891,0,0,0-2.662,2.223,15.742,15.742,0,0,0-2.06,3.021,23.219,23.219,0,0,0-1.072,2.323,2.6,2.6,0,0,1-.5.276,2.431,2.431,0,0,1-1.553.106,4.436,4.436,0,0,1-1.2-.59,1.9,1.9,0,0,1-.786-1.006A10.52,10.52,0,0,0-432.577-41a3.284,3.284,0,0,0,.311-1.495,1.142,1.142,0,0,0-.68-.976,2.58,2.58,0,0,0-1.5-.147,3.423,3.423,0,0,0-1.471.674,6.161,6.161,0,0,0-1.3,1.313,4.846,4.846,0,0,0-.79,1.649,2.873,2.873,0,0,0,.013,1.646,3.134,3.134,0,0,1-.378,2.223,16.392,16.392,0,0,1-1.576,2.557,19.718,19.718,0,0,1-1.863,2.177,14.923,14.923,0,0,1-1.2,1.117q-.876.671-1.285.3a1.789,1.789,0,0,1-.5-1.18,5.07,5.07,0,0,1-.013-.884c.02-.317.05-.623.086-.914s.078-.558.119-.794a3.453,3.453,0,0,1,.128-.53q.315-.9.665-1.842t.712-1.806q.359-.862.711-1.6a10.882,10.882,0,0,1,.671-1.225,2.183,2.183,0,0,0,.348-1.355,1.526,1.526,0,0,0-.761-1.133,2.314,2.314,0,0,0-1.54-.348,2.621,2.621,0,0,0-1.861,1.065,11.551,11.551,0,0,0-.712,1.209q-.428.808-.872,1.843t-.909,2.239q-.467,1.2-.877,2.359a14.086,14.086,0,0,0-.3,1.388c-.406.7-.821,1.36-1.246,1.968a10.1,10.1,0,0,1-1.425,1.678q-.693.63-1.222.316a.978.978,0,0,1-.421-.859,4.638,4.638,0,0,1,.179-1.378,14.539,14.539,0,0,1,.565-1.646q.357-.883.745-1.665a13.966,13.966,0,0,1,.777-1.381,6.6,6.6,0,0,1,.646-.873.531.531,0,0,0,.029-.683,3.235,3.235,0,0,0-.684-.81,10.966,10.966,0,0,0-.99-.778,6.957,6.957,0,0,0-.881-.543,1.983,1.983,0,0,0-1.111-.188,9.368,9.368,0,0,0-1.357.209,5.321,5.321,0,0,1-.729.119l-.813.088a11.824,11.824,0,0,0,.594-1.36,2.479,2.479,0,0,0,.173-1.069,2.65,2.65,0,0,0-.449-1.1,1.41,1.41,0,0,0-1.164-.492,2.606,2.606,0,0,0-1.258.548,5.752,5.752,0,0,0-1.169,1.176,7.336,7.336,0,0,0-.868,1.493,3.418,3.418,0,0,0-.306,1.535,3.412,3.412,0,0,0,.2,1.255,2.933,2.933,0,0,0,.528.89l-.75,1.439-.1.186q-.9,1.432-1.906,2.933a23.2,23.2,0,0,1-2.132,2.74,11.046,11.046,0,0,1-2.3,1.958,3.966,3.966,0,0,1-2.483.639q-1.057-.256-1.219-1.761a19.153,19.153,0,0,0,4.372-2.777,15.626,15.626,0,0,0,3.321-3.734,6.348,6.348,0,0,0,.725-1.663,4.521,4.521,0,0,0,.147-1.683,2.7,2.7,0,0,0-.935-1.813,3.457,3.457,0,0,0-2.536-.611,7.249,7.249,0,0,0-3.288.993,10.851,10.851,0,0,0-2.662,2.222,15.729,15.729,0,0,0-2.062,3.022,22.7,22.7,0,0,0-1.449,3.346c-.016.061-.031.121-.046.181a20.318,20.318,0,0,1-1.527,2.006A19.536,19.536,0,0,1-481-26.362a18.651,18.651,0,0,1-3.885,2.148,17.08,17.08,0,0,1-4.3,1.124,9.822,9.822,0,0,1-3.764-.169,7.291,7.291,0,0,1-2.85-1.441,7.4,7.4,0,0,1-1.914-2.468,9.949,9.949,0,0,1-.911-3.3,14.4,14.4,0,0,1,.287-4.579,21.058,21.058,0,0,1,1.808-4.99,28.067,28.067,0,0,1,5.266-7.258,17.944,17.944,0,0,1,6.821-4.3A7.192,7.192,0,0,1-483.158-52q.625-.13,1.192-.191a4.246,4.246,0,0,1,3,.5,2.729,2.729,0,0,1,1.1,1.98,4.576,4.576,0,0,1-.134,1.6,7.2,7.2,0,0,1-.68,1.72,10.291,10.291,0,0,1-1.137,1.666,9.364,9.364,0,0,1-1.471,1.435,1.29,1.29,0,0,0-.6,1.259,2,2,0,0,0,.416,1,2.607,2.607,0,0,0,.884.748,2.765,2.765,0,0,0,1.125.31,1.706,1.706,0,0,0,1.135-.348,14.191,14.191,0,0,0,2.075-1.747,13.909,13.909,0,0,0,1.744-2.144,9.956,9.956,0,0,0,1.146-2.347,6.119,6.119,0,0,0,.316-2.4,9.506,9.506,0,0,0-.423-2.217,6.652,6.652,0,0,0-.993-1.951,6.142,6.142,0,0,0-1.6-1.494,7.2,7.2,0,0,0-2.262-.929l.041,0a14,14,0,0,0-4.261-.2,16.869,16.869,0,0,0-5.607,1.635,28.256,28.256,0,0,0-5.089,3.184,33.183,33.183,0,0,0-4.3,4.025,29.964,29.964,0,0,0-3.153,4.148,26.009,26.009,0,0,0-2.462,6.357,17.8,17.8,0,0,0-.513,6.107,14.2,14.2,0,0,0,1.282,4.635,10.719,10.719,0,0,0,2.754,3.593,11.013,11.013,0,0,0,4.146,2.166,13.253,13.253,0,0,0,5.442.275,16.877,16.877,0,0,0,5.336-1.462,20.24,20.24,0,0,0,4.583-2.923,23.629,23.629,0,0,0,3.61-3.828c.353,2.2,1.927,3.394,4.737,3.565a7.084,7.084,0,0,0,1.315-.019,7.114,7.114,0,0,0,3.151-1.122,13.519,13.519,0,0,0,2.673-2.306,22.393,22.393,0,0,0,2.268-3q1.037-1.633,1.892-3.249a4.076,4.076,0,0,0,.394-.9l.38-.7.581-1.092c.27-.03.5-.06.69-.1s.389-.076.6-.127q.605-.1,1.092-.18a1.378,1.378,0,0,1,.744.043.447.447,0,0,1,.239.489,3,3,0,0,1-.434,1.117,17.542,17.542,0,0,0-1.4,3.2,6.016,6.016,0,0,0-.107,3.387,3.181,3.181,0,0,0,1.11,1.71,3.445,3.445,0,0,0,1.914.761,4.367,4.367,0,0,0,2.849-.864,11.17,11.17,0,0,0,2.433-2.444c.106-.145.21-.3.315-.447a4.682,4.682,0,0,0,1.02,1.765,3.527,3.527,0,0,0,3.07.985,6.734,6.734,0,0,0,2.4-.61,7.258,7.258,0,0,0,2.056-1.538,17.2,17.2,0,0,0,2.04-2.649q1.039-1.615,2.389-3.984a5.871,5.871,0,0,0,4.324,1.55,4.938,4.938,0,0,0,1.145-.262c-.008.047-.018.1-.025.143a6.2,6.2,0,0,0-.048,1.65q.387,3.581,4.779,3.847a7.059,7.059,0,0,0,1.315-.019,7.1,7.1,0,0,0,3.151-1.122,13.527,13.527,0,0,0,2.674-2.305c.19-.211.374-.427.557-.647l-.162.687q-.238.849-.512,1.742c-.182.6-.355,1.149-.519,1.662l-1.96.911q-1.65.753-3.2,1.457a29.219,29.219,0,0,0-2.674,1.359,5.824,5.824,0,0,0-1.984,1.819,2.962,2.962,0,0,0-.5,1.865,2.605,2.605,0,0,0,.58,1.357,3.69,3.69,0,0,0,1.3,1.013,5.356,5.356,0,0,0,1.882.475,6.477,6.477,0,0,0,2.278-.245,8.038,8.038,0,0,0,2.878-1.362,10.729,10.729,0,0,0,2.187-2.233,15.933,15.933,0,0,0,1.651-2.833,33.8,33.8,0,0,0,1.258-3.2,27.8,27.8,0,0,0,3.154-2.255,21.345,21.345,0,0,0,2.741-2.765q.431,2.158,3.21,2.432a6.364,6.364,0,0,0,3.53-1.041,11.8,11.8,0,0,0,2.931-2.787,5.075,5.075,0,0,0,.913,1.981,2.272,2.272,0,0,0,1.618.875,4.883,4.883,0,0,0,2.915-1.014.038.038,0,0,1,.013-.01,5.84,5.84,0,0,1-.86-1.784" transform="translate(503.757 55.827)"/>
      </g>
      <g id="Group_131" data-name="Group 131" transform="translate(96.212 3.745)">
        <path id="Path_97" data-name="Path 97" class="cls-3" d="M-1.46-18.46a2.3,2.3,0,0,0,.8.7,2.581,2.581,0,0,0,1.021.3,2.354,2.354,0,0,0,1.091-.18A3.242,3.242,0,0,0,2.8-18.879,5.446,5.446,0,0,0,3.6-20.922a2.3,2.3,0,0,0-.286-1.326,2.144,2.144,0,0,0-.85-.815,2.579,2.579,0,0,0-1.143-.287A2.3,2.3,0,0,0,.2-23.106a3.115,3.115,0,0,0-.944.782,6.723,6.723,0,0,0-.662,1.12,3.2,3.2,0,0,0-.43,1.735A2.09,2.09,0,0,0-1.46-18.46" transform="translate(1.847 23.351)"/>
      </g>
      <g id="Group_132" data-name="Group 132" transform="translate(120.077 13.953)">
        <path id="Path_98" data-name="Path 98" class="cls-3" d="M-91.69-27.979a.279.279,0,0,1,.065-.153l-.023.1a9.438,9.438,0,0,1,1.1-2.292,11.571,11.571,0,0,1,1.412-1.789,4.347,4.347,0,0,1,1.243-.946q.543-.236.59.212a1.587,1.587,0,0,1-.071.542,5.22,5.22,0,0,1-.357.9,14.822,14.822,0,0,1-1.7,2.146,11.373,11.373,0,0,1-2.222,1.813,4.669,4.669,0,0,1-.04-.53m8.765-3.072c-.039-.363-.165-.534-.379-.51a1.583,1.583,0,0,0-.931.684q-.72,1.147-1.529,2.354a18.45,18.45,0,0,1-1.681,2.159,8.688,8.688,0,0,1-1.811,1.541,3.131,3.131,0,0,1-1.957.5c-.554-.135-.876-.6-.96-1.388a15.042,15.042,0,0,0,3.444-2.189,12.243,12.243,0,0,0,2.616-2.942,4.961,4.961,0,0,0,.573-1.31,3.609,3.609,0,0,0,.116-1.326,2.136,2.136,0,0,0-.74-1.428,2.722,2.722,0,0,0-2-.482,5.708,5.708,0,0,0-2.59.784,8.539,8.539,0,0,0-2.1,1.75,12.353,12.353,0,0,0-1.623,2.381,17.782,17.782,0,0,0-1.143,2.637c-.071.261-.133.512-.187.753-.066.109-.132.217-.2.326q-.455.73-.92,1.38a9.845,9.845,0,0,1-.843,1.048q-.9.94-1.233.6T-98.7-26.1c.066-.179.146-.4.235-.674a6.221,6.221,0,0,1,.321-.781q.258-.612.524-1.306t.482-1.4a12.736,12.736,0,0,0,.338-1.367,4.164,4.164,0,0,0,.068-1.174,1.406,1.406,0,0,0-.464-.988,1.953,1.953,0,0,0-1.54-.45,5.138,5.138,0,0,0-2.3.962,14.993,14.993,0,0,0-2.346,2,5.659,5.659,0,0,0-.171-1.132,1.512,1.512,0,0,0-.385-.721,2.054,2.054,0,0,0-1.566-.382,4.881,4.881,0,0,0-1.975.781,14.036,14.036,0,0,0-2.17,1.678,2.225,2.225,0,0,0-.218-1.128,1.272,1.272,0,0,0-.815-.641,1.811,1.811,0,0,0-1.513.261,2.713,2.713,0,0,0-.991,1.177c-.256.625-.493,1.275-.721,1.935a5.758,5.758,0,0,1,.384,2.074,5.806,5.806,0,0,1-2.191,4.541c-.121.612-.212,1.153-.267,1.611a.743.743,0,0,0,.14.536,1.442,1.442,0,0,0,.449.405,2.078,2.078,0,0,0,.626.241A2.145,2.145,0,0,0-114.1-20a1,1,0,0,0,.953-.785l0,.032c.056-.266.152-.644.282-1.133s.289-1.03.474-1.623.386-1.226.6-1.9.446-1.334.678-1.987a3.933,3.933,0,0,1,.425-.872,7.793,7.793,0,0,1,.622-.846,9.183,9.183,0,0,1,.711-.758,8.014,8.014,0,0,1,.668-.575q.742-.632,1.1-.282a1.133,1.133,0,0,1,.158,1.15l-.643,1.854q-.5,1.415-.94,2.841a18.486,18.486,0,0,0-.665,3.008.628.628,0,0,0,.17.516,1.879,1.879,0,0,0,.495.384,2.276,2.276,0,0,0,.658.237,2.328,2.328,0,0,0,.718.036,1.152,1.152,0,0,0,.634-.279,1.6,1.6,0,0,0,.413-.516q.114-.464.395-1.452t.589-2.058a6.275,6.275,0,0,1,.323-.911c.138-.318.285-.668.438-1.052.124-.252.253-.546.391-.885s.265-.656.384-.949a5.993,5.993,0,0,1,.978-1.306,12.926,12.926,0,0,1,1.133-1.062q.744-.632,1.12-.284t.141,1.152l-.541,1.583q-.278.744-.581,1.538t-.513,1.564a14.969,14.969,0,0,0-.326,1.478,3.94,3.94,0,0,0-.023,1.283,1.649,1.649,0,0,0,.991,1.223,3.467,3.467,0,0,0,1.692.206,5.446,5.446,0,0,0,1.622-.451,4.748,4.748,0,0,0,1.262-.768,9.208,9.208,0,0,0,.814-1.012c.159-.225.313-.46.468-.7q.643,2.1,3.612,2.285a5.535,5.535,0,0,0,1.036-.016,5.609,5.609,0,0,0,2.484-.884,10.661,10.661,0,0,0,2.106-1.817,17.712,17.712,0,0,0,1.786-2.366q.818-1.288,1.49-2.561a2.254,2.254,0,0,0,.375-1.338" transform="translate(115.984 35.392)"/>
      </g>
      <g id="Group_133" data-name="Group 133" transform="translate(113.588 18.831)">
        <path id="Path_99" data-name="Path 99" class="cls-3" d="M-23.724-11.861A3.143,3.143,0,0,0-26.868-15a3.143,3.143,0,0,0-3.142,3.143,3.144,3.144,0,0,0,3.142,3.143,3.144,3.144,0,0,0,3.144-3.143" transform="translate(30.01 15.004)"/>
      </g>
      <g id="Group_134" data-name="Group 134" transform="translate(117.133 11.007)">
        <path id="Path_100" data-name="Path 100" class="cls-3" d="M-2.91-64.34a2.937,2.937,0,0,0,.542,1.866,3.6,3.6,0,0,0,1.11,1.015,4.229,4.229,0,0,0,1.279.5,4.312,4.312,0,0,0,1.366.079A3.154,3.154,0,0,0,3.9-62.5l.229-.417.358.31a4.166,4.166,0,0,0,.7.484,4.493,4.493,0,0,0,1.288.471,4.5,4.5,0,0,0,1.388.068,3.364,3.364,0,0,0,1.819-.795,3.778,3.778,0,0,0,.954-1.216l.279-.578.382.454a3.693,3.693,0,0,0,1.463,1.054,5.658,5.658,0,0,0,2.74.351,7.608,7.608,0,0,0,2.271-.625,7.432,7.432,0,0,0,1.5-.859l.2-.154.222.127a7.3,7.3,0,0,0,3.2.872,7.752,7.752,0,0,0,1.424-.021,7.771,7.771,0,0,0,3.434-1.224,12.861,12.861,0,0,0,2.538-2.186A19.992,19.992,0,0,0,32.3-69.035c.566-.89,1.09-1.79,1.558-2.675a4.363,4.363,0,0,0,.634-2.624,2.58,2.58,0,0,0-2.216-2.438l-.28-.035-.052-.279a4.3,4.3,0,0,0-1.424-2.506,4.564,4.564,0,0,0-3.1-1.028c-.148,0-.3,0-.465.015a7.885,7.885,0,0,0-3.563,1.082,10.785,10.785,0,0,0-2.518,2.067l-.364.406-.258-.481a3.3,3.3,0,0,0-.8-.982,4.142,4.142,0,0,0-3.168-.941,7.282,7.282,0,0,0-3.292,1.33l-.324.226-.219-.151a4.292,4.292,0,0,0-2.93-.675,6.946,6.946,0,0,0-2.887,1.095l-.324.205-.206-.128a3.681,3.681,0,0,0-.917-.408l-.1-.026a4.024,4.024,0,0,0-3.248.578A4.874,4.874,0,0,0,.067-75.3l-.023.056-.061.152a6.159,6.159,0,0,1,2.129,4.672A6.22,6.22,0,0,1-2.91-64.34M.95-60.09a5.169,5.169,0,0,1-1.093-.119A5.016,5.016,0,0,1-1.652-60.8a4.357,4.357,0,0,1-1.341-1.228A3.692,3.692,0,0,1-3.657-64.6l.052-.408.289-.041a5.446,5.446,0,0,0,4.658-5.371A5.4,5.4,0,0,0-.716-74.674l-.223-.176.1-.264c.056-.145.112-.287.169-.425L-.64-75.6A5.649,5.649,0,0,1,1.4-78.043a4.786,4.786,0,0,1,3.862-.689l.131.035a4.428,4.428,0,0,1,.9.372,7.6,7.6,0,0,1,3.137-1.162,5.1,5.1,0,0,1,3.223.661,7.967,7.967,0,0,1,3.543-1.392,4.9,4.9,0,0,1,3.74,1.115,4.043,4.043,0,0,1,.714.764A11.4,11.4,0,0,1,23-80.184,8.663,8.663,0,0,1,26.9-81.372c.183-.01.35-.016.512-.016a5.305,5.305,0,0,1,3.605,1.218,5.068,5.068,0,0,1,1.62,2.682,3.337,3.337,0,0,1,2.611,3.071,5.1,5.1,0,0,1-.723,3.076c-.473.893-1.008,1.81-1.584,2.718a20.637,20.637,0,0,1-2.085,2.758,13.706,13.706,0,0,1-2.69,2.316A8.539,8.539,0,0,1,24.4-62.206a8.638,8.638,0,0,1-1.56.024,8.237,8.237,0,0,1-3.309-.851,8.529,8.529,0,0,1-1.446.8,8.4,8.4,0,0,1-2.5.687,6.422,6.422,0,0,1-3.11-.4,4.5,4.5,0,0,1-1.388-.876,4.635,4.635,0,0,1-.9,1.033,4.126,4.126,0,0,1-2.237.974A5.24,5.24,0,0,1,6.322-60.9a5.265,5.265,0,0,1-1.508-.552,5.256,5.256,0,0,1-.473-.3,3.937,3.937,0,0,1-2.872,1.628,4.584,4.584,0,0,1-.519.028" transform="translate(3.681 81.388)"/>
      </g>
      <g id="Group_135" data-name="Group 135" transform="translate(0 0)">
        <path id="Path_101" data-name="Path 101" class="cls-3" d="M-96.734-35.771a5.508,5.508,0,0,0-.577.034c-.282.03-.59.079-.913.147a4.18,4.18,0,0,0-.761.243l-.182.069a15.125,15.125,0,0,0-5.707,3.611,25.255,25.255,0,0,0-4.7,6.491,18.1,18.1,0,0,0-1.551,4.272,11.529,11.529,0,0,0-.24,3.645,7.071,7.071,0,0,0,.632,2.325,4.433,4.433,0,0,0,1.155,1.5,4.316,4.316,0,0,0,1.719.854,6.975,6.975,0,0,0,2.635.1,14.21,14.21,0,0,0,3.567-.93,15.705,15.705,0,0,0,3.27-1.811A16.47,16.47,0,0,0-95.576-17.8a16.624,16.624,0,0,0,1.064-1.362,25.768,25.768,0,0,1,1.58-3.616,19.612,19.612,0,0,1,1.245-2.045q-.308.235-.623.45a4.638,4.638,0,0,1-3.011.874,5.7,5.7,0,0,1-2.3-.639,5.533,5.533,0,0,1-1.871-1.583,4.909,4.909,0,0,1-1-2.466,4.219,4.219,0,0,1,1.767-3.932,6.54,6.54,0,0,0,.968-.956,7.453,7.453,0,0,0,.819-1.2,4.351,4.351,0,0,0,.407-1.021,2.115,2.115,0,0,0,.071-.463,2.709,2.709,0,0,0-.279-.013m45.713,16.186.306.129a7.392,7.392,0,0,0,1.955.528l.274.035.055.269a5.951,5.951,0,0,0,3.738,4.48l.664.265-.586.408A7.359,7.359,0,0,0-46.763-11.3a5.064,5.064,0,0,0-.806,3.237,4.721,4.721,0,0,0,1.042,2.481A5.846,5.846,0,0,0-44.464-3.96a7.494,7.494,0,0,0,2.646.683A8.62,8.62,0,0,0-38.8-3.59a10.234,10.234,0,0,0,3.63-1.728A12.966,12.966,0,0,0-32.539-8a18.309,18.309,0,0,0,1.876-3.219c.371-.819.721-1.678,1.039-2.551l.044-.119.107-.07A29.7,29.7,0,0,0-26.846-15.9c.3-.245.593-.508.885-.778l.218-.2.25.161a7.025,7.025,0,0,0,3,.977l.218.011a8.529,8.529,0,0,0,4.711-1.392c.336-.219.67-.459.993-.718l.256-.2.242.217a4.406,4.406,0,0,0,2.571,1.115l.214.01a7.041,7.041,0,0,0,4.2-1.431,6.192,6.192,0,0,1-2.732-5.138,6.2,6.2,0,0,1,4.421-5.936c.141-.319.277-.621.411-.9A11.456,11.456,0,0,1-6.38-31.3,4.138,4.138,0,0,0-5.7-32.786a4.2,4.2,0,0,0,.069-1.332,3.682,3.682,0,0,0-1.8-2.746,4.565,4.565,0,0,0-2.943-.661,4.86,4.86,0,0,0-1.765.554,4.625,4.625,0,0,0-.421.255l-.172.117-.191-.079a4.782,4.782,0,0,0-.961-.293l-.344-.064-.348.047a10.879,10.879,0,0,0-3.6,1.181c-.351.186-.713.4-1.076.63l-1.537.982.076-.026-1.229,1.184c-.249.241-.475.468-.689.694l-.534.564-.124-.768A3.732,3.732,0,0,0-23.391-33l-.121-.419.431-.068a4.611,4.611,0,0,0,.753-.185l1.492-.5,1.1-1.6c.012-.018.027-.037.039-.056a7.6,7.6,0,0,0,1.135-2.853l.026-.141.008-.145a4.465,4.465,0,0,0-.6-2.561,4.318,4.318,0,0,0-1.707-1.619,4.761,4.761,0,0,0-2.095-.533h-.122a4.447,4.447,0,0,0-2.053.486l-.087.047a5.315,5.315,0,0,0-1.6,1.354,8.753,8.753,0,0,0-.875,1.467,5.283,5.283,0,0,0-.645,2.937,4.323,4.323,0,0,0,.353,1.319l.2.445-.48.091a5.664,5.664,0,0,0-1.788.669,4.3,4.3,0,0,0-1.537,1.494l-.261.425-.345-.36c-.105-.11-.218-.218-.335-.32a5.223,5.223,0,0,0-3.549-1.161c-.182,0-.362.006-.555.017a9.435,9.435,0,0,0-4.26,1.292,13.133,13.133,0,0,0-3.194,2.663,17.433,17.433,0,0,0-1.078,1.373l-.506.714-.183-.856a3.3,3.3,0,0,0-1.864-2.336,4.719,4.719,0,0,0-2.75-.326l-.026,0a5.571,5.571,0,0,0-2.417,1.076,8.373,8.373,0,0,0-1.555,1.513l-.41.518-.247-.613a3.844,3.844,0,0,0-1.514-1.782,4.483,4.483,0,0,0-2.949-.68A4.793,4.793,0,0,0-62.911-30.3l-.047.064a12.959,12.959,0,0,0-.859,1.447c-.3.563-.593,1.179-.9,1.887l-.218.5-.4-.376c-.045-.043-.09-.086-.14-.128a13.3,13.3,0,0,0-1.18-.928,9.047,9.047,0,0,0-1.133-.7,3.95,3.95,0,0,0-1.745-.438l-.314-.009-.055-.308a4.874,4.874,0,0,0-.745-1.792l-.125-.194-.162-.164a3.582,3.582,0,0,0-2.581-1.141,3.36,3.36,0,0,0-.362.019,4.756,4.756,0,0,0-2.325.965,8.019,8.019,0,0,0-1.61,1.615c-.19.251-.368.517-.532.787l-.2.335-.331-.208a5.592,5.592,0,0,0-3.025-.77c-.181,0-.362.006-.555.017a9.436,9.436,0,0,0-4.26,1.292,13.071,13.071,0,0,0-3.193,2.663,17.989,17.989,0,0,0-2.346,3.437A24.907,24.907,0,0,0-93.8-18.866l-.018.05-.031.045A17.927,17.927,0,0,1-95-17.3,17.385,17.385,0,0,1-97.94-14.6a16.5,16.5,0,0,1-3.431,1.9,14.989,14.989,0,0,1-3.76.981,7.729,7.729,0,0,1-2.93-.114,5.1,5.1,0,0,1-2.014-1.008,5.2,5.2,0,0,1-1.352-1.751,7.833,7.833,0,0,1-.705-2.578,12.3,12.3,0,0,1,.252-3.89,18.922,18.922,0,0,1,1.619-4.458,25.984,25.984,0,0,1,4.85-6.691,15.87,15.87,0,0,1,6-3.791l.133-.05a4.983,4.983,0,0,1,.9-.286c.347-.072.678-.125.988-.158a5.982,5.982,0,0,1,.658-.039,2.346,2.346,0,0,1,.724.086l.083.028.062.06a.617.617,0,0,1,.169.415,2.447,2.447,0,0,1-.084.84,5.108,5.108,0,0,1-.479,1.2,8.232,8.232,0,0,1-.9,1.318,7.354,7.354,0,0,1-1.1,1.078,3.476,3.476,0,0,0-1.469,3.239,4.166,4.166,0,0,0,.847,2.084,4.753,4.753,0,0,0,1.613,1.366,4.94,4.94,0,0,0,1.991.554c.084.005.167.008.248.008a3.9,3.9,0,0,0,2.275-.745,16.338,16.338,0,0,0,2.376-2,16.278,16.278,0,0,0,2.016-2.479,12.3,12.3,0,0,0,1.393-2.859,8.352,8.352,0,0,0,.421-3.242,11.849,11.849,0,0,0-.522-2.722A8.875,8.875,0,0,0-88.384-40.9a8.393,8.393,0,0,0-2.167-2.024,9.422,9.422,0,0,0-2.94-1.218l.013-.053-.046-.006-.008.038a16.273,16.273,0,0,0-4.919-.227,19.146,19.146,0,0,0-6.327,1.841,30.554,30.554,0,0,0-5.48,3.429,35.592,35.592,0,0,0-4.58,4.29,32.481,32.481,0,0,0-3.38,4.453l-.058.1a28.356,28.356,0,0,0-2.667,6.886,20.061,20.061,0,0,0-.561,6.854,16.361,16.361,0,0,0,1.484,5.341,12.879,12.879,0,0,0,3.31,4.315,13.24,13.24,0,0,0,4.952,2.6,15.47,15.47,0,0,0,6.3.345,19.219,19.219,0,0,0,6-1.649A22.558,22.558,0,0,0-94.389-8.82c.527-.446,1.046-.923,1.544-1.422l.249-.248.27.226A8.386,8.386,0,0,0-87.6-8.575,9.3,9.3,0,0,0-85.9-8.6a9.307,9.307,0,0,0,4.1-1.461,15.717,15.717,0,0,0,3.1-2.675,24.7,24.7,0,0,0,2.335-3.054l.554-.852.147,1.006c.043.284.1.571.17.854l.01.031a5.33,5.33,0,0,0,1.848,2.846,5.581,5.581,0,0,0,3.1,1.235l.069,0c.114.005.234.01.352.01a6.543,6.543,0,0,0,3.877-1.279,11.874,11.874,0,0,0,1.029-.83l.238-.214.255.2a5.608,5.608,0,0,0,3.54,1.136c.221,0,.453-.009.672-.028a8.937,8.937,0,0,0,3.177-.818,9.4,9.4,0,0,0,2.681-1.989,19.272,19.272,0,0,0,2.3-2.983c.357-.551.738-1.168,1.137-1.832Zm9.839,17.1c-.233,0-.468-.01-.7-.028A8.313,8.313,0,0,1-44.8-3.267,6.626,6.626,0,0,1-47.129-5.1a5.5,5.5,0,0,1-1.206-2.878,5.836,5.836,0,0,1,.916-3.722,7.714,7.714,0,0,1,1.828-2.01A6.742,6.742,0,0,1-49.121-18.2a8.241,8.241,0,0,1-1.581-.423c-.342.566-.673,1.094-.981,1.574a20.309,20.309,0,0,1-2.4,3.1,10.179,10.179,0,0,1-2.9,2.148,9.679,9.679,0,0,1-3.447.89c-.236.021-.491.031-.735.031a6.438,6.438,0,0,1-3.755-1.107c-.281.24-.57.467-.858.674A7.252,7.252,0,0,1-70.5-9.9l-.079-.005a6.361,6.361,0,0,1-3.524-1.4,6.092,6.092,0,0,1-2.113-3.25l-.008-.036s0-.006,0-.01a25.159,25.159,0,0,1-1.891,2.38,16.441,16.441,0,0,1-3.257,2.8,10.044,10.044,0,0,1-4.44,1.582,9.952,9.952,0,0,1-1.837.028,9.333,9.333,0,0,1-4.892-1.649c-.438.426-.89.836-1.347,1.224a23.368,23.368,0,0,1-5.245,3.346,19.932,19.932,0,0,1-6.226,1.715,16.253,16.253,0,0,1-6.6-.371,13.966,13.966,0,0,1-5.237-2.751,13.646,13.646,0,0,1-3.508-4.569,17.139,17.139,0,0,1-1.553-5.589,20.784,20.784,0,0,1,.578-7.119,29.155,29.155,0,0,1,2.739-7.074l.079-.134a33.153,33.153,0,0,1,3.459-4.56,36.243,36.243,0,0,1,4.679-4.383,31.355,31.355,0,0,1,5.619-3.516,19.912,19.912,0,0,1,6.58-1.914,16.944,16.944,0,0,1,4.845.18v0l.054.013c.084.015.168.031.252.048l.322.064,0,.027a9.988,9.988,0,0,1,2.928,1.258,9.126,9.126,0,0,1,2.367,2.211,9.6,9.6,0,0,1,1.435,2.812,12.708,12.708,0,0,1,.556,2.9,9.1,9.1,0,0,1-.459,3.54,13.05,13.05,0,0,1-1.48,3.038c-.11.168-.224.334-.343.5q.464-.329.952-.619a10.2,10.2,0,0,1,4.606-1.4c.207-.013.4-.019.6-.019a6.554,6.554,0,0,1,3.1.7c.119-.181.246-.359.374-.532a8.7,8.7,0,0,1,1.767-1.77,5.52,5.52,0,0,1,2.7-1.113,4.186,4.186,0,0,1,.445-.023,4.335,4.335,0,0,1,3.126,1.368l.243.256.146.229a5.825,5.825,0,0,1,.791,1.772,4.618,4.618,0,0,1,1.771.505,9.81,9.81,0,0,1,1.224.749c.349.245.686.5,1,.772.24-.53.475-1.011.711-1.459a13.535,13.535,0,0,1,.918-1.54l.053-.074a5.549,5.549,0,0,1,3.889-2.209,5.232,5.232,0,0,1,3.446.8,4.718,4.718,0,0,1,1.54,1.589,9.068,9.068,0,0,1,1.312-1.194A6.344,6.344,0,0,1-50.587-33l.029-.005a5.475,5.475,0,0,1,3.2.39A4.042,4.042,0,0,1-45.308-30.5c.218-.282.444-.556.674-.821a13.888,13.888,0,0,1,3.38-2.819,10.2,10.2,0,0,1,4.6-1.4c.208-.013.4-.019.6-.019A5.962,5.962,0,0,1-31.994-34.2a.5.5,0,0,1,.047.04A5.049,5.049,0,0,1-30.4-35.53a6.509,6.509,0,0,1,1.58-.657,5.1,5.1,0,0,1-.245-1.119,6.017,6.017,0,0,1,.721-3.361,9.369,9.369,0,0,1,.952-1.592,6.018,6.018,0,0,1,1.825-1.556l.12-.065a5.205,5.205,0,0,1,2.545-.57,5.511,5.511,0,0,1,2.43.62,5.049,5.049,0,0,1,2.01,1.9,5.2,5.2,0,0,1,.708,3l-.014.22-.031.166a8.614,8.614,0,0,1-.621,2,11.6,11.6,0,0,1,3.753-1.207l.469-.064.468.087a5.3,5.3,0,0,1,.922.262c.1-.066.212-.127.32-.186a5.651,5.651,0,0,1,2.043-.639,5.315,5.315,0,0,1,3.429.772A4.431,4.431,0,0,1-4.863-34.2a4.944,4.944,0,0,1-.083,1.577,4.847,4.847,0,0,1-.793,1.748A10.984,10.984,0,0,0-6.3-29.787c-.152.324-.311.677-.474,1.05l-.074.17-.181.047a5.432,5.432,0,0,0-4.031,5.245A5.427,5.427,0,0,0-8.222-18.5l.532.289-.941.69a7.807,7.807,0,0,1-4.661,1.588l-.289-.014a5.253,5.253,0,0,1-2.762-1.1c-.265.2-.534.392-.8.568a9.306,9.306,0,0,1-5.131,1.515l-.292-.014a7.962,7.962,0,0,1-3.08-.941c-.232.21-.468.415-.7.611a30.09,30.09,0,0,1-2.593,1.921c-.312.851-.655,1.688-1.018,2.487A18.821,18.821,0,0,1-31.92-7.547,13.735,13.735,0,0,1-34.7-4.705a11.018,11.018,0,0,1-3.9,1.858,9.71,9.71,0,0,1-2.582.365" transform="translate(122.365 45.249)"/>
      </g>
    </g>
  </g>
</svg>
