<svg xmlns="http://www.w3.org/2000/svg" xmlns:xlink="http://www.w3.org/1999/xlink" viewBox="110.42 -428.495 154.358 132.457">
  <defs>
    <style>
      .cls-1 {
        fill: none;
      }

      .cls-2 {
        clip-path: url(#clip-path);
      }

      .cls-3 {
        fill: #fff;
      }
    </style>
    <clipPath id="clip-path">
      <path id="Path_416" data-name="Path 416" class="cls-1" d="M0-639.468H154.358v132.457H0Z" transform="translate(0 639.468)"/>
    </clipPath>
  </defs>
  <g id="Group_512" data-name="Group 512" transform="translate(110.42 -428.495)">
    <g id="Group_511" data-name="Group 511" class="cls-2">
      <g id="Group_494" data-name="Group 494" transform="translate(2.912 47.996)">
        <path id="Path_399" data-name="Path 399" class="cls-3" d="M-399.411-44.263c-.05.29-.1.548-.161.77l-.541,1.768a26.406,26.406,0,0,1-1.285,2.988,19.125,19.125,0,0,1-1.5,2.5,8.453,8.453,0,0,1-1.547,1.694,2.282,2.282,0,0,1-1.419.6.868.868,0,0,1-.428-.177,1.272,1.272,0,0,1-.377-.469,2.331,2.331,0,0,1-.206-.791,3.463,3.463,0,0,1,.083-1.108,14.93,14.93,0,0,1,.676-2.027q.45-1.106,1.022-2.227t1.231-2.169a13.637,13.637,0,0,1,1.367-1.837,6.306,6.306,0,0,1,1.417-1.211,1.819,1.819,0,0,1,1.333-.287.547.547,0,0,1,.332.433,3.383,3.383,0,0,1,.079.724,4.8,4.8,0,0,1-.075.822m-24.9,20.986a8.394,8.394,0,0,1-2.224,1.462,2.075,2.075,0,0,1-1.36.228.625.625,0,0,1-.462-.519,1.279,1.279,0,0,1,.357-.832,2.822,2.822,0,0,1,1.05-.826l0,.04,4.128-2.115.4.363a12.549,12.549,0,0,1-1.9,2.2m-47.185-8.76a.341.341,0,0,1,.08-.192l-.028.125a11.757,11.757,0,0,1,1.379-2.876,14.623,14.623,0,0,1,1.772-2.247,5.474,5.474,0,0,1,1.562-1.187q.678-.3.74.266a2.018,2.018,0,0,1-.089.682,6.614,6.614,0,0,1-.446,1.127,18.841,18.841,0,0,1-2.132,2.692,14.325,14.325,0,0,1-2.786,2.275,5.083,5.083,0,0,1-.051-.666m45.343-4.9a.351.351,0,0,1,.082-.191L-426.1-37a11.825,11.825,0,0,1,1.378-2.876,14.551,14.551,0,0,1,1.771-2.247,5.49,5.49,0,0,1,1.562-1.187q.681-.3.742.266a2.071,2.071,0,0,1-.09.682,6.643,6.643,0,0,1-.449,1.127,18.653,18.653,0,0,1-2.131,2.693,14.337,14.337,0,0,1-2.786,2.275,5.406,5.406,0,0,1-.052-.666m29.391,1.494c-.576.345-.9.216-.963-.392a2.5,2.5,0,0,1,.1-.765c.085-.348.2-.733.343-1.156q.3-1.009.794-2.263t1-2.469q.5-1.214.964-2.2a12.807,12.807,0,0,1,.777-1.469,2.018,2.018,0,0,0,.35-.709,1.968,1.968,0,0,0,.033-.635,1.482,1.482,0,0,0-.772-1.117,2.36,2.36,0,0,0-1.543-.342,2.665,2.665,0,0,0-.963.308,2.452,2.452,0,0,0-.837.742l0,.04-.358.447a6.339,6.339,0,0,0-.964-.628,3.42,3.42,0,0,0-.976-.383,8.544,8.544,0,0,0-2.851.938,13.776,13.776,0,0,0-2.686,1.877,18.82,18.82,0,0,0-2.372,2.536,18.994,18.994,0,0,0-1.867,2.887,13.688,13.688,0,0,0-1.1,2.811q-.309.463-.671.943a24.59,24.59,0,0,1-1.77,2.084,20.194,20.194,0,0,1-2.357,2.107l-.016-.894.124-.379c.07-.333.178-.738.316-1.215s.294-.987.465-1.536.356-1.1.554-1.667.4-1.1.618-1.613q.45-1.107.955-2.1t.872-1.722l.558-1.241,0,.04c.06-.2.113-.386.163-.568a1.6,1.6,0,0,0,.037-.594,1.285,1.285,0,0,0-.707-1.083,2.5,2.5,0,0,0-1.429-.232,3.406,3.406,0,0,0-1.338.45,2.153,2.153,0,0,0-.938,1.1l-.037.044a16.642,16.642,0,0,0-1.932,4.341c-.208.69-.41,1.393-.612,2.106q-.449.692-.922,1.4a23.2,23.2,0,0,1-2.108,2.71,10.919,10.919,0,0,1-2.275,1.936,3.926,3.926,0,0,1-2.455.631q-1.046-.254-1.206-1.742a18.817,18.817,0,0,0,4.323-2.747,15.389,15.389,0,0,0,3.285-3.693,6.191,6.191,0,0,0,.717-1.644,4.492,4.492,0,0,0,.146-1.665,2.677,2.677,0,0,0-.926-1.793,3.419,3.419,0,0,0-2.508-.6,7.176,7.176,0,0,0-3.252.982,10.769,10.769,0,0,0-2.633,2.2,15.566,15.566,0,0,0-2.037,2.987,22.972,22.972,0,0,0-1.06,2.3,2.571,2.571,0,0,1-.494.273,2.4,2.4,0,0,1-1.536.105,4.386,4.386,0,0,1-1.183-.584,1.88,1.88,0,0,1-.778-.994,10.405,10.405,0,0,0,1.329-2.2,3.248,3.248,0,0,0,.308-1.478,1.13,1.13,0,0,0-.673-.965,2.552,2.552,0,0,0-1.482-.146,3.385,3.385,0,0,0-1.455.666,6.092,6.092,0,0,0-1.283,1.3,4.792,4.792,0,0,0-.781,1.631,2.841,2.841,0,0,0,.013,1.627,3.1,3.1,0,0,1-.373,2.2,16.214,16.214,0,0,1-1.559,2.529,19.5,19.5,0,0,1-1.842,2.153,14.765,14.765,0,0,1-1.183,1.1q-.866.664-1.271.3a1.769,1.769,0,0,1-.492-1.167,5.01,5.01,0,0,1-.013-.874c.02-.313.049-.616.085-.9s.077-.552.118-.786a3.416,3.416,0,0,1,.127-.524q.311-.889.658-1.821t.7-1.786q.355-.852.7-1.582A10.759,10.759,0,0,1-442.4-40.9a2.159,2.159,0,0,0,.344-1.34,1.509,1.509,0,0,0-.753-1.12,2.289,2.289,0,0,0-1.523-.344,2.592,2.592,0,0,0-1.84,1.053,11.429,11.429,0,0,0-.7,1.2q-.423.8-.862,1.823t-.9,2.214q-.462,1.189-.867,2.333a13.938,13.938,0,0,0-.3,1.373c-.4.693-.812,1.345-1.232,1.946a9.977,9.977,0,0,1-1.409,1.659q-.685.623-1.209.313a.968.968,0,0,1-.416-.85,4.586,4.586,0,0,1,.177-1.363,14.374,14.374,0,0,1,.558-1.627q.353-.873.737-1.647a13.819,13.819,0,0,1,.769-1.365,6.524,6.524,0,0,1,.639-.863.525.525,0,0,0,.029-.675,3.2,3.2,0,0,0-.677-.8,10.842,10.842,0,0,0-.979-.77,6.873,6.873,0,0,0-.871-.537,1.96,1.96,0,0,0-1.1-.186,9.264,9.264,0,0,0-1.342.206,5.26,5.26,0,0,1-.72.118l-.8.087a11.692,11.692,0,0,0,.587-1.345,2.453,2.453,0,0,0,.171-1.057,2.621,2.621,0,0,0-.444-1.091,1.394,1.394,0,0,0-1.151-.486,2.577,2.577,0,0,0-1.244.542,5.688,5.688,0,0,0-1.156,1.163,7.259,7.259,0,0,0-.859,1.477,3.382,3.382,0,0,0-.3,1.518,3.375,3.375,0,0,0,.2,1.241,2.9,2.9,0,0,0,.522.881l-.742,1.423-.1.184q-.888,1.416-1.885,2.9a22.936,22.936,0,0,1-2.108,2.71,10.922,10.922,0,0,1-2.273,1.936,3.922,3.922,0,0,1-2.455.632q-1.045-.254-1.206-1.742a18.94,18.94,0,0,0,4.324-2.746,15.452,15.452,0,0,0,3.284-3.693,6.277,6.277,0,0,0,.717-1.645,4.47,4.47,0,0,0,.146-1.664,2.675,2.675,0,0,0-.925-1.793,3.419,3.419,0,0,0-2.508-.6,7.168,7.168,0,0,0-3.251.982,10.732,10.732,0,0,0-2.633,2.2,15.557,15.557,0,0,0-2.039,2.989,22.445,22.445,0,0,0-1.433,3.309l-.046.179a20.1,20.1,0,0,1-1.51,1.983,19.32,19.32,0,0,1-3.279,3,18.444,18.444,0,0,1-3.842,2.124,16.89,16.89,0,0,1-4.255,1.111,9.712,9.712,0,0,1-3.723-.168,7.21,7.21,0,0,1-2.819-1.425,7.315,7.315,0,0,1-1.893-2.441,9.838,9.838,0,0,1-.9-3.261,14.239,14.239,0,0,1,.284-4.528,20.827,20.827,0,0,1,1.788-4.935,27.756,27.756,0,0,1,5.207-7.177,17.745,17.745,0,0,1,6.745-4.25,7.114,7.114,0,0,1,1.28-.4q.618-.129,1.179-.188a4.2,4.2,0,0,1,2.966.494,2.7,2.7,0,0,1,1.085,1.958,4.529,4.529,0,0,1-.133,1.582,7.124,7.124,0,0,1-.672,1.7,10.18,10.18,0,0,1-1.124,1.648,9.261,9.261,0,0,1-1.454,1.419,1.276,1.276,0,0,0-.6,1.245,1.975,1.975,0,0,0,.412.994,2.578,2.578,0,0,0,.874.74,2.735,2.735,0,0,0,1.113.307,1.687,1.687,0,0,0,1.122-.344,14.036,14.036,0,0,0,2.052-1.728,13.758,13.758,0,0,0,1.724-2.12,9.845,9.845,0,0,0,1.133-2.321,6.05,6.05,0,0,0,.313-2.374,9.4,9.4,0,0,0-.419-2.193,6.579,6.579,0,0,0-.982-1.93,6.073,6.073,0,0,0-1.584-1.477,7.116,7.116,0,0,0-2.236-.918l.041,0a13.848,13.848,0,0,0-4.214-.2,16.682,16.682,0,0,0-5.545,1.616,27.94,27.94,0,0,0-5.032,3.149,32.808,32.808,0,0,0-4.25,3.98,29.63,29.63,0,0,0-3.118,4.1,25.718,25.718,0,0,0-2.434,6.287,17.607,17.607,0,0,0-.508,6.039,14.043,14.043,0,0,0,1.268,4.584,10.6,10.6,0,0,0,2.724,3.553,10.892,10.892,0,0,0,4.1,2.142,13.107,13.107,0,0,0,5.382.272,16.689,16.689,0,0,0,5.277-1.446,20.016,20.016,0,0,0,4.532-2.891,23.366,23.366,0,0,0,3.57-3.785c.349,2.18,1.905,3.357,4.684,3.526a7.006,7.006,0,0,0,1.3-.019,7.035,7.035,0,0,0,3.116-1.11,13.369,13.369,0,0,0,2.643-2.281A22.14,22.14,0,0,0-462.837-31q1.025-1.615,1.872-3.213a4.029,4.029,0,0,0,.389-.892l.376-.7.575-1.08c.267-.03.5-.06.682-.094s.384-.075.6-.126q.6-.1,1.08-.178a1.363,1.363,0,0,1,.736.042.442.442,0,0,1,.236.483,2.962,2.962,0,0,1-.43,1.1,17.348,17.348,0,0,0-1.388,3.162,5.95,5.95,0,0,0-.106,3.349,3.146,3.146,0,0,0,1.1,1.691,3.407,3.407,0,0,0,1.893.752,4.318,4.318,0,0,0,2.818-.854,11.045,11.045,0,0,0,2.406-2.417c.105-.143.208-.293.312-.442a4.628,4.628,0,0,0,1.009,1.745,3.487,3.487,0,0,0,3.036.974,6.66,6.66,0,0,0,2.376-.6,7.177,7.177,0,0,0,2.033-1.521,17.009,17.009,0,0,0,2.017-2.62q1.028-1.6,2.362-3.939a5.806,5.806,0,0,0,4.276,1.532,4.883,4.883,0,0,0,1.132-.26c-.008.046-.017.095-.025.141a6.134,6.134,0,0,0-.047,1.632q.383,3.541,4.726,3.8a6.98,6.98,0,0,0,1.3-.018,7.023,7.023,0,0,0,3.116-1.11,13.378,13.378,0,0,0,2.644-2.28c.188-.208.37-.422.551-.64l-.16.679q-.235.839-.506,1.723c-.18.59-.351,1.136-.513,1.643l-1.938.9q-1.631.745-3.162,1.44a28.893,28.893,0,0,0-2.644,1.344,5.759,5.759,0,0,0-1.962,1.8,2.929,2.929,0,0,0-.494,1.845,2.575,2.575,0,0,0,.574,1.342,3.648,3.648,0,0,0,1.289,1,5.3,5.3,0,0,0,1.861.47,6.4,6.4,0,0,0,2.253-.242,7.95,7.95,0,0,0,2.846-1.347,10.609,10.609,0,0,0,2.162-2.208,15.756,15.756,0,0,0,1.633-2.8,33.436,33.436,0,0,0,1.244-3.166,27.5,27.5,0,0,0,3.119-2.23,21.111,21.111,0,0,0,2.711-2.735q.426,2.134,3.175,2.4a6.293,6.293,0,0,0,3.491-1.029,11.668,11.668,0,0,0,2.9-2.756,5.02,5.02,0,0,0,.9,1.959,2.247,2.247,0,0,0,1.6.865,4.829,4.829,0,0,0,2.883-1,.038.038,0,0,1,.013-.01,5.775,5.775,0,0,1-.85-1.764" transform="translate(503.757 55.827)"/>
      </g>
      <g id="Group_495" data-name="Group 495" transform="translate(95.144 48.786)">
        <path id="Path_400" data-name="Path 400" class="cls-3" d="M-1.464-18.514a2.276,2.276,0,0,0,.787.688,2.553,2.553,0,0,0,1.01.3,2.328,2.328,0,0,0,1.079-.178,3.206,3.206,0,0,0,1.334-1.223,5.385,5.385,0,0,0,.8-2.021,2.276,2.276,0,0,0-.283-1.311,2.12,2.12,0,0,0-.841-.806,2.55,2.55,0,0,0-1.13-.284,2.276,2.276,0,0,0-1.113.242,3.08,3.08,0,0,0-.934.773,6.648,6.648,0,0,0-.655,1.108,3.16,3.16,0,0,0-.425,1.716,2.066,2.066,0,0,0,.372,1" transform="translate(1.847 23.351)"/>
      </g>
      <g id="Group_496" data-name="Group 496" transform="translate(118.744 58.881)">
        <path id="Path_401" data-name="Path 401" class="cls-3" d="M-91.96-28.061a.276.276,0,0,1,.064-.151l-.023.1a9.333,9.333,0,0,1,1.087-2.267,11.442,11.442,0,0,1,1.4-1.77,4.3,4.3,0,0,1,1.23-.935q.537-.234.584.21a1.57,1.57,0,0,1-.07.536,5.16,5.16,0,0,1-.353.888,14.657,14.657,0,0,1-1.678,2.122,11.247,11.247,0,0,1-2.2,1.793,4.617,4.617,0,0,1-.04-.524m8.667-3.037c-.039-.359-.163-.528-.375-.5a1.565,1.565,0,0,0-.92.677Q-85.3-29.792-86.1-28.6a18.245,18.245,0,0,1-1.662,2.135,8.592,8.592,0,0,1-1.791,1.524,3.1,3.1,0,0,1-1.935.5c-.548-.133-.866-.592-.949-1.372a14.876,14.876,0,0,0,3.406-2.165,12.107,12.107,0,0,0,2.587-2.909,4.906,4.906,0,0,0,.567-1.3,3.569,3.569,0,0,0,.115-1.311,2.112,2.112,0,0,0-.731-1.412,2.692,2.692,0,0,0-1.975-.477,5.645,5.645,0,0,0-2.561.775A8.445,8.445,0,0,0-93.1-32.876a12.216,12.216,0,0,0-1.605,2.354,17.583,17.583,0,0,0-1.13,2.608c-.07.258-.131.506-.185.745-.066.108-.131.215-.2.323q-.45.722-.91,1.365a9.736,9.736,0,0,1-.834,1.037q-.894.929-1.219.6t.291-2.356c.066-.177.144-.4.232-.666a6.154,6.154,0,0,1,.318-.772q.255-.6.518-1.291t.476-1.382a12.592,12.592,0,0,0,.335-1.352,4.117,4.117,0,0,0,.067-1.161,1.39,1.39,0,0,0-.459-.977,1.931,1.931,0,0,0-1.523-.445,5.081,5.081,0,0,0-2.271.951,14.826,14.826,0,0,0-2.32,1.981,5.6,5.6,0,0,0-.169-1.119,1.5,1.5,0,0,0-.381-.713,2.031,2.031,0,0,0-1.549-.377,4.827,4.827,0,0,0-1.953.772,13.881,13.881,0,0,0-2.146,1.659,2.2,2.2,0,0,0-.216-1.115,1.258,1.258,0,0,0-.806-.634,1.791,1.791,0,0,0-1.5.258,2.683,2.683,0,0,0-.98,1.164c-.253.619-.487,1.261-.713,1.914a5.694,5.694,0,0,1,.38,2.051,5.742,5.742,0,0,1-2.166,4.491c-.12.6-.209,1.14-.264,1.593a.734.734,0,0,0,.138.53,1.426,1.426,0,0,0,.444.4,2.055,2.055,0,0,0,.619.238,2.121,2.121,0,0,0,.661.041.992.992,0,0,0,.943-.776l0,.032c.056-.263.15-.637.279-1.121s.286-1.019.468-1.6.382-1.212.6-1.878.441-1.319.67-1.964a3.889,3.889,0,0,1,.42-.863,7.706,7.706,0,0,1,.615-.836,9.077,9.077,0,0,1,.7-.749,7.926,7.926,0,0,1,.661-.568q.734-.625,1.092-.279a1.12,1.12,0,0,1,.156,1.138l-.636,1.833q-.491,1.4-.93,2.81a18.28,18.28,0,0,0-.657,2.974.621.621,0,0,0,.168.51,1.858,1.858,0,0,0,.489.379,2.251,2.251,0,0,0,.651.235,2.3,2.3,0,0,0,.71.035,1.139,1.139,0,0,0,.627-.275,1.587,1.587,0,0,0,.409-.51q.113-.459.39-1.436t.582-2.035a6.2,6.2,0,0,1,.32-.9c.137-.314.282-.661.433-1.04.122-.249.25-.54.387-.876s.262-.649.38-.939a5.927,5.927,0,0,1,.967-1.292,12.786,12.786,0,0,1,1.121-1.05q.736-.625,1.108-.28t.139,1.139l-.535,1.566q-.275.735-.574,1.521t-.507,1.546a14.8,14.8,0,0,0-.323,1.462,3.9,3.9,0,0,0-.023,1.269,1.631,1.631,0,0,0,.98,1.209,3.428,3.428,0,0,0,1.674.2,5.386,5.386,0,0,0,1.6-.446,4.7,4.7,0,0,0,1.248-.76,9.105,9.105,0,0,0,.8-1c.158-.223.31-.455.463-.692q.636,2.079,3.571,2.26a5.474,5.474,0,0,0,1.025-.015,5.547,5.547,0,0,0,2.456-.875A10.542,10.542,0,0,0-86.9-24.9a17.517,17.517,0,0,0,1.767-2.339q.809-1.273,1.474-2.532a2.229,2.229,0,0,0,.371-1.323" transform="translate(115.984 35.392)"/>
      </g>
      <g id="Group_497" data-name="Group 497" transform="translate(112.327 63.704)">
        <path id="Path_402" data-name="Path 402" class="cls-3" d="M-23.794-11.9A3.108,3.108,0,0,0-26.9-15,3.108,3.108,0,0,0-30.01-11.9,3.109,3.109,0,0,0-26.9-8.788,3.109,3.109,0,0,0-23.794-11.9" transform="translate(30.01 15.004)"/>
      </g>
      <g id="Group_498" data-name="Group 498" transform="translate(115.832 55.967)">
        <path id="Path_403" data-name="Path 403" class="cls-3" d="M-2.919-64.53a2.9,2.9,0,0,0,.536,1.846,3.563,3.563,0,0,0,1.1,1,4.182,4.182,0,0,0,1.265.493,4.265,4.265,0,0,0,1.351.078,3.119,3.119,0,0,0,2.488-1.6l.226-.412.354.306a4.121,4.121,0,0,0,.69.479,4.444,4.444,0,0,0,1.274.466,4.449,4.449,0,0,0,1.372.067,3.327,3.327,0,0,0,1.8-.786,3.736,3.736,0,0,0,.943-1.2l.276-.572.378.449a3.652,3.652,0,0,0,1.447,1.042,5.6,5.6,0,0,0,2.709.347,7.523,7.523,0,0,0,2.246-.618,7.349,7.349,0,0,0,1.481-.849l.2-.152.219.125a7.221,7.221,0,0,0,3.165.863,7.666,7.666,0,0,0,1.408-.021,7.685,7.685,0,0,0,3.4-1.211,12.719,12.719,0,0,0,2.51-2.161A19.769,19.769,0,0,0,31.9-69.173c.559-.88,1.078-1.77,1.541-2.645a4.314,4.314,0,0,0,.627-2.6,2.552,2.552,0,0,0-2.192-2.411l-.277-.035-.051-.276a4.251,4.251,0,0,0-1.408-2.478,4.513,4.513,0,0,0-3.065-1.017c-.146,0-.3,0-.46.015a7.8,7.8,0,0,0-3.524,1.07A10.665,10.665,0,0,0,20.6-77.5l-.36.4-.256-.476a3.264,3.264,0,0,0-.795-.971,4.1,4.1,0,0,0-3.133-.93A7.2,7.2,0,0,0,12.8-78.16l-.321.224-.216-.149a4.244,4.244,0,0,0-2.9-.667A6.869,6.869,0,0,0,6.509-77.67l-.321.2-.2-.126a3.64,3.64,0,0,0-.907-.4l-.1-.026a3.98,3.98,0,0,0-3.211.571A4.82,4.82,0,0,0,.025-75.369L0-75.314l-.06.151a6.09,6.09,0,0,1,2.1,4.62A6.151,6.151,0,0,1-2.919-64.53M.9-60.327a5.112,5.112,0,0,1-1.081-.118,4.961,4.961,0,0,1-1.492-.583A4.308,4.308,0,0,1-3-62.242a3.651,3.651,0,0,1-.656-2.546l.051-.4.286-.04a5.386,5.386,0,0,0,4.607-5.311A5.343,5.343,0,0,0-.748-74.749l-.221-.174.1-.261c.055-.143.111-.283.167-.42l.025-.063A5.586,5.586,0,0,1,1.342-78.08a4.733,4.733,0,0,1,3.819-.681l.13.034a4.378,4.378,0,0,1,.89.368,7.52,7.52,0,0,1,3.1-1.149,5.047,5.047,0,0,1,3.187.654,7.878,7.878,0,0,1,3.5-1.376,4.841,4.841,0,0,1,3.7,1.1,4,4,0,0,1,.706.755A11.279,11.279,0,0,1,22.7-80.2a8.566,8.566,0,0,1,3.864-1.175c.181-.01.346-.016.506-.016a5.246,5.246,0,0,1,3.565,1.2,5.012,5.012,0,0,1,1.6,2.653,3.3,3.3,0,0,1,2.582,3.037,5.045,5.045,0,0,1-.715,3.042c-.468.883-1,1.79-1.566,2.687a20.408,20.408,0,0,1-2.062,2.728,13.554,13.554,0,0,1-2.66,2.29,8.444,8.444,0,0,1-3.729,1.328,8.542,8.542,0,0,1-1.543.024,8.146,8.146,0,0,1-3.273-.842,8.434,8.434,0,0,1-1.43.792,8.308,8.308,0,0,1-2.473.679,6.35,6.35,0,0,1-3.076-.4,4.454,4.454,0,0,1-1.373-.866,4.583,4.583,0,0,1-.893,1.021,4.08,4.08,0,0,1-2.212.963,5.182,5.182,0,0,1-1.606-.078,5.207,5.207,0,0,1-1.491-.546,5.2,5.2,0,0,1-.468-.295,3.894,3.894,0,0,1-2.84,1.609,4.534,4.534,0,0,1-.513.028" transform="translate(3.681 81.388)"/>
      </g>
      <g id="Group_499" data-name="Group 499" transform="translate(0 45.083)">
        <path id="Path_404" data-name="Path 404" class="cls-3" d="M-97.018-35.876a5.447,5.447,0,0,0-.57.034c-.279.03-.583.079-.9.146a4.133,4.133,0,0,0-.752.24l-.18.068a14.957,14.957,0,0,0-5.643,3.571,24.974,24.974,0,0,0-4.651,6.419,17.9,17.9,0,0,0-1.534,4.225,11.4,11.4,0,0,0-.237,3.6,6.992,6.992,0,0,0,.625,2.3,4.383,4.383,0,0,0,1.142,1.48,4.269,4.269,0,0,0,1.7.845,6.9,6.9,0,0,0,2.606.094,14.052,14.052,0,0,0,3.527-.919,15.531,15.531,0,0,0,3.234-1.791,16.287,16.287,0,0,0,2.782-2.547,16.442,16.442,0,0,0,1.052-1.347,25.483,25.483,0,0,1,1.562-3.575,19.4,19.4,0,0,1,1.231-2.022q-.3.232-.616.445a4.586,4.586,0,0,1-2.977.865,5.638,5.638,0,0,1-2.272-.632,5.472,5.472,0,0,1-1.85-1.566,4.854,4.854,0,0,1-.986-2.439,4.173,4.173,0,0,1,1.748-3.888,6.468,6.468,0,0,0,.957-.945,7.371,7.371,0,0,0,.81-1.182,4.3,4.3,0,0,0,.4-1.01,2.092,2.092,0,0,0,.07-.458,2.679,2.679,0,0,0-.276-.012M-51.813-19.87l.3.128a7.31,7.31,0,0,0,1.933.523l.271.034.054.266a5.885,5.885,0,0,0,3.7,4.43l.657.262-.58.4A7.277,7.277,0,0,0-47.6-11.673a5.008,5.008,0,0,0-.8,3.2,4.669,4.669,0,0,0,1.031,2.454,5.781,5.781,0,0,0,2.039,1.6,7.411,7.411,0,0,0,2.616.675,8.525,8.525,0,0,0,2.985-.308,10.121,10.121,0,0,0,3.59-1.709,12.821,12.821,0,0,0,2.6-2.653A18.105,18.105,0,0,0-31.682-11.6c.367-.81.713-1.659,1.027-2.523l.043-.118.105-.069a29.373,29.373,0,0,0,2.6-1.921c.293-.243.587-.5.876-.769l.215-.2.248.159a6.947,6.947,0,0,0,2.963.966l.215.011a8.434,8.434,0,0,0,4.659-1.376c.332-.217.662-.454.982-.71l.253-.2.239.215a4.357,4.357,0,0,0,2.543,1.1l.211.01a6.963,6.963,0,0,0,4.149-1.416,6.123,6.123,0,0,1-2.7-5.081,6.13,6.13,0,0,1,4.372-5.87c.14-.315.274-.614.406-.893a11.329,11.329,0,0,1,.609-1.171,4.092,4.092,0,0,0,.676-1.47,4.152,4.152,0,0,0,.068-1.317A3.641,3.641,0,0,0-8.7-36.956a4.514,4.514,0,0,0-2.91-.653,4.806,4.806,0,0,0-1.745.547,4.574,4.574,0,0,0-.416.252l-.17.115-.189-.078a4.729,4.729,0,0,0-.95-.289l-.341-.063-.344.046A10.758,10.758,0,0,0-19.33-35.91c-.347.184-.7.392-1.064.623l-1.52.971.076-.025-1.215,1.171c-.247.238-.47.463-.682.686l-.528.558-.123-.759a3.691,3.691,0,0,0-.1-.454l-.12-.414.426-.067a4.561,4.561,0,0,0,.745-.183l1.475-.5,1.091-1.579c.012-.018.027-.036.038-.055a7.515,7.515,0,0,0,1.122-2.821l.026-.14.008-.143a4.415,4.415,0,0,0-.593-2.532,4.27,4.27,0,0,0-1.688-1.6,4.708,4.708,0,0,0-2.071-.527h-.121a4.4,4.4,0,0,0-2.03.481l-.086.047a5.256,5.256,0,0,0-1.579,1.339,8.657,8.657,0,0,0-.865,1.451,5.224,5.224,0,0,0-.638,2.9,4.275,4.275,0,0,0,.349,1.3l.2.44-.475.09a5.6,5.6,0,0,0-1.768.662,4.257,4.257,0,0,0-1.52,1.477l-.258.42-.341-.356c-.1-.109-.216-.216-.332-.316A5.165,5.165,0,0,0-37-34.9c-.18,0-.358.006-.549.017a9.33,9.33,0,0,0-4.213,1.278,12.987,12.987,0,0,0-3.158,2.633,17.235,17.235,0,0,0-1.066,1.358l-.5.706-.181-.847a3.259,3.259,0,0,0-1.843-2.31,4.667,4.667,0,0,0-2.719-.322l-.026,0a5.509,5.509,0,0,0-2.39,1.064,8.28,8.28,0,0,0-1.538,1.5l-.406.512-.244-.606a3.8,3.8,0,0,0-1.5-1.762,4.434,4.434,0,0,0-2.916-.672,4.74,4.74,0,0,0-3.319,1.886l-.047.063a12.815,12.815,0,0,0-.85,1.431c-.295.556-.586,1.166-.888,1.866l-.216.5-.395-.372c-.044-.042-.089-.085-.138-.127a13.146,13.146,0,0,0-1.167-.918,8.947,8.947,0,0,0-1.121-.688,3.906,3.906,0,0,0-1.725-.433l-.31-.009-.054-.3a4.82,4.82,0,0,0-.737-1.772l-.123-.192-.161-.162a3.542,3.542,0,0,0-2.552-1.129,3.322,3.322,0,0,0-.358.019,4.7,4.7,0,0,0-2.3.955,7.929,7.929,0,0,0-1.592,1.6c-.187.249-.364.511-.526.778l-.2.331-.327-.206A5.53,5.53,0,0,0-82.349-30c-.179,0-.358.006-.548.017a9.331,9.331,0,0,0-4.212,1.278,12.925,12.925,0,0,0-3.158,2.634,17.788,17.788,0,0,0-2.32,3.4,24.63,24.63,0,0,0-1.531,3.518l-.018.05-.031.044A17.724,17.724,0,0,1-95.3-17.61a17.192,17.192,0,0,1-2.911,2.665,16.319,16.319,0,0,1-3.393,1.877,14.823,14.823,0,0,1-3.718.97,7.644,7.644,0,0,1-2.9-.113,5.04,5.04,0,0,1-1.991-1,5.141,5.141,0,0,1-1.337-1.731,7.746,7.746,0,0,1-.7-2.549A12.166,12.166,0,0,1-112-21.334a18.711,18.711,0,0,1,1.6-4.408,25.7,25.7,0,0,1,4.8-6.616,15.693,15.693,0,0,1,5.931-3.749l.132-.05a4.929,4.929,0,0,1,.89-.283c.343-.071.67-.124.977-.157a5.916,5.916,0,0,1,.65-.038,2.32,2.32,0,0,1,.716.085l.082.028.062.059a.61.61,0,0,1,.167.411,2.42,2.42,0,0,1-.083.831,5.051,5.051,0,0,1-.474,1.19,8.14,8.14,0,0,1-.89,1.3,7.272,7.272,0,0,1-1.084,1.066,3.437,3.437,0,0,0-1.453,3.2,4.12,4.12,0,0,0,.837,2.06,4.7,4.7,0,0,0,1.595,1.351,4.885,4.885,0,0,0,1.969.548c.083.005.165.007.245.007a3.861,3.861,0,0,0,2.25-.737A16.157,16.157,0,0,0-90.73-27.21a16.1,16.1,0,0,0,1.994-2.451,12.162,12.162,0,0,0,1.378-2.827,8.26,8.26,0,0,0,.417-3.206,11.72,11.72,0,0,0-.517-2.692,8.777,8.777,0,0,0-1.3-2.558,8.3,8.3,0,0,0-2.143-2,9.318,9.318,0,0,0-2.907-1.2l.013-.053-.045-.006-.008.037a16.093,16.093,0,0,0-4.864-.225,18.933,18.933,0,0,0-6.257,1.821,30.215,30.215,0,0,0-5.419,3.391,35.2,35.2,0,0,0-4.529,4.242,32.12,32.12,0,0,0-3.343,4.4l-.058.1a28.041,28.041,0,0,0-2.638,6.81,19.839,19.839,0,0,0-.555,6.778,16.179,16.179,0,0,0,1.467,5.282,12.736,12.736,0,0,0,3.273,4.267,13.093,13.093,0,0,0,4.9,2.57,15.3,15.3,0,0,0,6.231.341,19.005,19.005,0,0,0,5.929-1.63,22.308,22.308,0,0,0,5.015-3.2c.521-.441,1.034-.913,1.526-1.406l.246-.245.267.223a8.293,8.293,0,0,0,4.674,1.671A9.2,9.2,0,0,0-86.3-9.008a9.2,9.2,0,0,0,4.058-1.445,15.543,15.543,0,0,0,3.07-2.646,24.422,24.422,0,0,0,2.309-3.02l.548-.843.146.995c.042.281.1.564.168.845l.01.031a5.271,5.271,0,0,0,1.827,2.815A5.519,5.519,0,0,0-71.1-11.056l.068,0c.113.005.231.01.348.01a6.471,6.471,0,0,0,3.834-1.264,11.743,11.743,0,0,0,1.018-.821l.235-.211.252.194a5.546,5.546,0,0,0,3.5,1.123c.219,0,.448-.008.664-.028a8.838,8.838,0,0,0,3.142-.809,9.291,9.291,0,0,0,2.652-1.967,19.059,19.059,0,0,0,2.279-2.95c.353-.545.73-1.155,1.124-1.812Zm9.729,16.913c-.23,0-.463-.01-.692-.028a8.221,8.221,0,0,1-2.884-.748,6.552,6.552,0,0,1-2.3-1.81,5.438,5.438,0,0,1-1.193-2.846,5.771,5.771,0,0,1,.906-3.681,7.629,7.629,0,0,1,1.807-1.988,6.667,6.667,0,0,1-3.49-4.443,8.15,8.15,0,0,1-1.563-.418c-.339.559-.666,1.082-.97,1.557A20.083,20.083,0,0,1-54.839-14.3a10.066,10.066,0,0,1-2.869,2.124,9.572,9.572,0,0,1-3.409.88c-.234.021-.485.031-.727.031a6.366,6.366,0,0,1-3.714-1.095c-.278.237-.563.461-.848.667a7.171,7.171,0,0,1-4.673,1.4l-.078,0a6.29,6.29,0,0,1-3.485-1.388A6.024,6.024,0,0,1-76.732-14.9l-.008-.035s0-.006,0-.01a24.88,24.88,0,0,1-1.87,2.354,16.259,16.259,0,0,1-3.221,2.774,9.933,9.933,0,0,1-4.391,1.564,9.842,9.842,0,0,1-1.817.028,9.229,9.229,0,0,1-4.837-1.63c-.433.422-.88.827-1.332,1.21A23.109,23.109,0,0,1-99.4-5.335a19.711,19.711,0,0,1-6.157,1.7,16.073,16.073,0,0,1-6.532-.367,13.811,13.811,0,0,1-5.179-2.72,13.5,13.5,0,0,1-3.469-4.518,16.949,16.949,0,0,1-1.536-5.527,20.553,20.553,0,0,1,.572-7.04,28.831,28.831,0,0,1,2.709-7l.078-.133a32.784,32.784,0,0,1,3.421-4.509,35.842,35.842,0,0,1,4.627-4.334A31.008,31.008,0,0,1-105.3-43.26,19.691,19.691,0,0,1-98.8-45.153a16.756,16.756,0,0,1,4.792.178v0l.053.013c.083.015.166.03.25.048l.318.063,0,.027a9.877,9.877,0,0,1,2.9,1.244,9.025,9.025,0,0,1,2.34,2.186,9.494,9.494,0,0,1,1.419,2.78,12.567,12.567,0,0,1,.55,2.867,9,9,0,0,1-.454,3.5,12.905,12.905,0,0,1-1.463,3c-.109.166-.222.33-.339.494q.459-.325.941-.612a10.09,10.09,0,0,1,4.555-1.382c.2-.013.4-.019.594-.019a6.481,6.481,0,0,1,3.067.688c.118-.179.243-.355.37-.526a8.606,8.606,0,0,1,1.747-1.75,5.458,5.458,0,0,1,2.669-1.1,4.14,4.14,0,0,1,.44-.023,4.287,4.287,0,0,1,3.091,1.353l.24.253.145.226A5.76,5.76,0,0,1-69.8-29.89a4.567,4.567,0,0,1,1.751.5,9.7,9.7,0,0,1,1.21.741c.345.242.678.5.993.764.237-.524.469-1,.7-1.443a13.384,13.384,0,0,1,.908-1.523l.053-.073a5.487,5.487,0,0,1,3.846-2.185,5.174,5.174,0,0,1,3.408.789A4.665,4.665,0,0,1-55.4-30.749a8.967,8.967,0,0,1,1.3-1.181,6.274,6.274,0,0,1,2.722-1.205l.029-.005a5.414,5.414,0,0,1,3.16.385,4,4,0,0,1,2.032,2.092c.216-.279.439-.55.667-.812a13.734,13.734,0,0,1,3.343-2.787A10.089,10.089,0,0,1-37.6-35.645c.206-.012.4-.018.595-.018A5.9,5.9,0,0,1-33-34.327a.5.5,0,0,1,.047.04,4.993,4.993,0,0,1,1.525-1.351,6.436,6.436,0,0,1,1.562-.65,5.041,5.041,0,0,1-.243-1.107,5.95,5.95,0,0,1,.713-3.323,9.265,9.265,0,0,1,.942-1.574,5.951,5.951,0,0,1,1.8-1.539l.118-.064a5.147,5.147,0,0,1,2.517-.563,5.45,5.45,0,0,1,2.4.613,4.993,4.993,0,0,1,1.988,1.882A5.143,5.143,0,0,1-18.92-39l-.014.218-.03.164a8.518,8.518,0,0,1-.614,1.98,11.468,11.468,0,0,1,3.711-1.194l.464-.063.462.086a5.245,5.245,0,0,1,.912.259c.1-.065.209-.126.317-.184a5.588,5.588,0,0,1,2.02-.632A5.256,5.256,0,0,1-8.3-37.6a4.382,4.382,0,0,1,2.134,3.279,4.89,4.89,0,0,1-.082,1.56,4.793,4.793,0,0,1-.784,1.729,10.861,10.861,0,0,0-.556,1.076c-.15.321-.308.669-.468,1.038l-.073.168-.179.047A5.371,5.371,0,0,0-12.3-23.519,5.366,5.366,0,0,0-9.489-18.8l.526.286-.93.683a7.721,7.721,0,0,1-4.61,1.57l-.286-.014a5.2,5.2,0,0,1-2.732-1.086c-.262.2-.528.388-.8.562a9.2,9.2,0,0,1-5.074,1.5l-.289-.013a7.874,7.874,0,0,1-3.046-.931c-.23.208-.463.41-.7.6a29.756,29.756,0,0,1-2.564,1.9c-.308.842-.647,1.669-1.007,2.46a18.612,18.612,0,0,1-1.933,3.317,13.583,13.583,0,0,1-2.753,2.81A10.9,10.9,0,0,1-39.53-3.318a9.6,9.6,0,0,1-2.553.361" transform="translate(122.365 45.249)"/>
      </g>
      <g id="Group_500" data-name="Group 500" transform="translate(18.695 87.039)">
        <path id="Path_405" data-name="Path 405" class="cls-3" d="M-224.177-173.849a66.133,66.133,0,0,1-58.567-35.281l1.405-.744a64.546,64.546,0,0,0,57.161,34.435,64.623,64.623,0,0,0,61.216-43.828l1.505.512a66.212,66.212,0,0,1-62.722,44.907" transform="translate(282.744 219.267)"/>
      </g>
      <g id="Group_501" data-name="Group 501" transform="translate(20.295 0)">
        <path id="Path_406" data-name="Path 406" class="cls-3" d="M-450.053-167.344a64.487,64.487,0,0,0-23.314-30.29,64.213,64.213,0,0,0-37.3-11.839,64.607,64.607,0,0,0-32.442,8.718,65.031,65.031,0,0,0-23.158,22.933l-1.367-.813a66.626,66.626,0,0,1,23.725-23.5,66.2,66.2,0,0,1,33.242-8.933,65.8,65.8,0,0,1,38.214,12.131A66.08,66.08,0,0,1-448.562-167.9Z" transform="translate(567.63 211.063)"/>
      </g>
      <g id="Group_502" data-name="Group 502" transform="translate(47.388 106.373)">
        <path id="Path_407" data-name="Path 407" class="cls-3" d="M-12.884-18.509a1.515,1.515,0,0,0,1-.73,1.552,1.552,0,0,0,.3-1.21,1.816,1.816,0,0,0-.858-1.064l-.535-.356-1.741,2.613.609.405a1.708,1.708,0,0,0,1.232.342m2.405-2.086a2.42,2.42,0,0,1-.427,1.974,2.539,2.539,0,0,1-1.656,1.187,3.039,3.039,0,0,1-2.218-.634l-1.47-.979,2.863-4.3,1.519,1.012a3.031,3.031,0,0,1,1.39,1.738" transform="translate(16.25 23.345)"/>
      </g>
      <g id="Group_503" data-name="Group 503" transform="translate(54.4 110.285)">
        <path id="Path_408" data-name="Path 408" class="cls-3" d="M-21.292-6.047l-.436.93-2.328-1.091-.451.963,2.094.981-.417.89-2.094-.981-.455.97,2.4,1.125-.432.923L-26.855-2.95l2.191-4.677Z" transform="translate(26.855 7.627)"/>
      </g>
      <g id="Group_504" data-name="Group 504" transform="translate(61.049 113.161)">
        <path id="Path_409" data-name="Path 409" class="cls-3" d="M-9.461-4.1a.444.444,0,0,0-.265.3.409.409,0,0,0,.088.4,3.721,3.721,0,0,0,.805.575,2.642,2.642,0,0,1,.932.854A1.342,1.342,0,0,1-7.822-.843a1.394,1.394,0,0,1-.829.924,2.076,2.076,0,0,1-1.436.011,3.171,3.171,0,0,1-1.845-1.517l.9-.6A2.444,2.444,0,0,0-9.768-.876a.809.809,0,0,0,.517.016.439.439,0,0,0,.281-.3.43.43,0,0,0-.075-.409,2.506,2.506,0,0,0-.646-.488,3.3,3.3,0,0,1-1.1-.92,1.317,1.317,0,0,1-.083-1.154,1.337,1.337,0,0,1,.838-.929,2.125,2.125,0,0,1,1.378.006,3.171,3.171,0,0,1,.936.473A2.775,2.775,0,0,1-7-3.838l-.8.634a2.274,2.274,0,0,0-1.178-.9.694.694,0,0,0-.475,0" transform="translate(11.933 5.173)"/>
      </g>
      <g id="Group_505" data-name="Group 505" transform="translate(68.154 114.612)">
        <path id="Path_410" data-name="Path 410" class="cls-3" d="M-12.538-15.94a1.514,1.514,0,0,0,.592-1.084,1.552,1.552,0,0,0-.246-1.221,1.816,1.816,0,0,0-1.229-.6l-.636-.1-.466,3.1.723.109a1.709,1.709,0,0,0,1.261-.214m1.292-2.91a2.42,2.42,0,0,1,.451,1.969,2.538,2.538,0,0,1-1,1.778,3.039,3.039,0,0,1-2.278.368L-15.813-15l.766-5.107,1.8.271a3.032,3.032,0,0,1,2,.983" transform="translate(15.813 20.104)"/>
      </g>
      <g id="Group_506" data-name="Group 506" transform="translate(76.342 115.444)">
        <path id="Path_411" data-name="Path 411" class="cls-3" d="M-14.475-.16-14.487.867-17.058.838-17.07,1.9l2.312.026-.011.983-2.312-.026-.012,1.071,2.652.03L-14.453,5l-3.8-.043L-18.2-.2Z" transform="translate(18.257 0.202)"/>
      </g>
      <g id="Group_507" data-name="Group 507" transform="translate(86.692 114.204)">
        <path id="Path_412" data-name="Path 412" class="cls-3" d="M-9.254-7.846a.931.931,0,0,0,.076-.565A.593.593,0,0,0-9.437-8.8.583.583,0,0,0-9.9-8.873q-.476.1-.753.876l-1.019-.336a2.869,2.869,0,0,1,.593-1,1.948,1.948,0,0,1,1.014-.518,1.774,1.774,0,0,1,1.239.163,1.431,1.431,0,0,1,.742,1.021,1.555,1.555,0,0,1-.034.791A4.994,4.994,0,0,1-8.65-6.8l-.7,1.145L-7.36-6.1l.222,1.01L-10.7-4.3l-.184-.837,1.146-1.84a6.605,6.605,0,0,0,.479-.866" transform="translate(11.672 9.896)"/>
      </g>
      <g id="Group_508" data-name="Group 508" transform="translate(93.235 112.24)">
        <path id="Path_413" data-name="Path 413" class="cls-3" d="M-4.3-6.748a2.738,2.738,0,0,0,.208,1.255,2.737,2.737,0,0,0,.665,1.085.8.8,0,0,0,.878.177A.8.8,0,0,0-2-4.939,2.735,2.735,0,0,0-2.2-6.195a2.736,2.736,0,0,0-.665-1.085.8.8,0,0,0-.878-.177.8.8,0,0,0-.548.709m2.081,3.4a1.857,1.857,0,0,1-1.757-.122A3.224,3.224,0,0,1-5.148-5.1a3.222,3.222,0,0,1-.18-2.006A1.857,1.857,0,0,1-4.08-8.349a1.857,1.857,0,0,1,1.757.122A3.223,3.223,0,0,1-1.147-6.593a3.221,3.221,0,0,1,.18,2.007A1.856,1.856,0,0,1-2.214-3.345" transform="translate(5.417 8.51)"/>
      </g>
      <g id="Group_509" data-name="Group 509" transform="translate(98.839 109.744)">
        <path id="Path_414" data-name="Path 414" class="cls-3" d="M0-3.709l1.853-.969L4.246-.1,3.264.412,1.326-3.294l-.871.455Z" transform="translate(0 4.678)"/>
      </g>
      <g id="Group_510" data-name="Group 510" transform="translate(104.004 106.599)">
        <path id="Path_415" data-name="Path 415" class="cls-3" d="M-9.343-10.713a.844.844,0,0,0-.36.494.668.668,0,0,0,.107.567.781.781,0,0,0,.5.334.733.733,0,0,0,.588-.122.78.78,0,0,0,.34-.484.7.7,0,0,0-.121-.567.806.806,0,0,0-.478-.344.688.688,0,0,0-.575.122m-.929-1.62a.9.9,0,0,0-.43.685,1.629,1.629,0,0,0,.231.9,1.845,1.845,0,0,1,.665-.833,1.66,1.66,0,0,1,1.263-.294,1.681,1.681,0,0,1,1.112.765,1.62,1.62,0,0,1,.284,1.333,1.878,1.878,0,0,1-.814,1.132,2.023,2.023,0,0,1-.9.364,1.527,1.527,0,0,1-.847-.131,3.479,3.479,0,0,1-1.4-1.259,4.043,4.043,0,0,1-.562-1.125,2.128,2.128,0,0,1-.086-.967,1.94,1.94,0,0,1,.855-1.34,2.221,2.221,0,0,1,.63-.3,2.364,2.364,0,0,1,.54-.107,4.4,4.4,0,0,1,.482.01l.009.979c-.041-.007-.1-.016-.174-.024a1.64,1.64,0,0,0-.386.032,1.143,1.143,0,0,0-.469.179" transform="translate(11.783 13.512)"/>
      </g>
    </g>
  </g>
</svg>
