<svg xmlns="http://www.w3.org/2000/svg" viewBox="1440.922 288.184 59.731 66.516">
  <defs>
    <style>
      .cls-1 {
        fill: #fff;
      }

      .cls-2 {
        fill: #d84040;
      }

      .cls-3 {
        fill: #583318;
      }

      .cls-4, .cls-6 {
        fill: none;
      }

      .cls-4 {
        stroke: #583318;
        stroke-width: 2px;
      }

      .cls-5 {
        stroke: none;
      }
    </style>
  </defs>
  <g id="Group_1115" data-name="Group 1115" transform="translate(1203)">
    <g id="Group_1112" data-name="Group 1112" transform="translate(106 -12)">
      <path id="Path_787" data-name="Path 787" class="cls-1" d="M34.231,4.155m0-4.155a29.194,29.194,0,0,0-9.869,56.681,9.937,9.937,0,0,1,4.675,3.441c.974,1.234,1.948,2.467,2.857,3.7a2.932,2.932,0,0,0,4.61,0c.974-1.234,1.948-2.467,2.857-3.7a10.474,10.474,0,0,1,4.675-3.376A29.12,29.12,0,0,0,62.929,24.283a28.513,28.513,0,0,0-9.869-17.4A29.136,29.136,0,0,0,34.231,0Z" transform="translate(127.59 300.971)"/>
      <circle id="Ellipse_39" data-name="Ellipse 39" class="cls-2" cx="21" cy="21" r="21" transform="translate(141 309)"/>
      <g id="Group_1108" data-name="Group 1108" transform="translate(131.922 300.184)">
        <path id="Path_786" data-name="Path 786" class="cls-3" d="M34.938,4.256A25.352,25.352,0,0,1,51.43,10.307a25.988,25.988,0,0,1,8.778,15.228A25.606,25.606,0,0,1,43.716,54.064a15.21,15.21,0,0,0-6.783,4.921L35.6,60.714a.748.748,0,0,1-1.2,0l-1.33-1.729a14.854,14.854,0,0,0-6.783-4.921,26.084,26.084,0,0,1-13.5-11.238,25.327,25.327,0,0,1-3.059-17.29,25.648,25.648,0,0,1,8.778-15.228A25.048,25.048,0,0,1,34.938,4.256m0-4.256A29.9,29.9,0,0,0,24.83,58.054a10.178,10.178,0,0,1,4.788,3.524c1,1.263,1.995,2.527,2.926,3.79a3,3,0,0,0,4.721,0c1-1.263,1.995-2.527,2.926-3.79a10.728,10.728,0,0,1,4.788-3.458,29.826,29.826,0,0,0,19.351-33.25A29.2,29.2,0,0,0,54.223,7.049,29.841,29.841,0,0,0,34.938,0Z" transform="translate(-5.039 0)"/>
      </g>
    </g>
    <g id="noun_642295_cc" transform="translate(252.6 312.26)">
      <g id="Group_1111" data-name="Group 1111" transform="translate(0 0)">
        <path id="Path_789" data-name="Path 789" class="cls-1" d="M3.709,0A3.709,3.709,0,1,1,0,3.709,3.709,3.709,0,0,1,3.709,0Z" transform="translate(10.856 8.104) rotate(-76.891)"/>
        <path id="Path_788" data-name="Path 788" class="cls-1" d="M31.566.216a.272.272,0,0,0-.353-.151L29.935.559a1.595,1.595,0,0,0-2.436.948,8.412,8.412,0,0,0-1.766,1.3A11.412,11.412,0,0,1,23.55,3.929a.078.078,0,0,0-.1-.032.077.077,0,0,0-.051.095l-.188.075-.024-.061c-.129.05-.212.149-.162.278l.2.527c.05.13.177.147.307.1l-.024-.061.19-.07a.083.083,0,0,0,.153-.056,11.381,11.381,0,0,1,2.373-.636,16.335,16.335,0,0,0,1.741-.112,7.1,7.1,0,0,1,.127,1.3A4.538,4.538,0,0,1,27.27,8a6.9,6.9,0,0,1-3.08,2.231,10.6,10.6,0,0,1-1.4.449c-.176.043-.316.072-.406.09l-.1.017-.014,0h0a1.593,1.593,0,0,0-.249.06,1.616,1.616,0,0,0-.341-.037H13.933c-.666-.762-1.867-2.1-3.4-3.625A56.144,56.144,0,0,0,4.814,2.166a1.4,1.4,0,0,0-2.154.264c-.435.768-.384,1.812.931,2.823a51.254,51.254,0,0,1,4.689,4.2c1.129,1.126,2.078,2.152,2.741,2.893.331.37.592.669.768.874.088.1.155.181.2.234l.026.031v13.2c.561,2.16,11.564,2,11.279,0V13.845a13.3,13.3,0,0,0,3.6-1.373,9.18,9.18,0,0,0,2.982-2.621,7.76,7.76,0,0,0,1.418-4.578A10.648,10.648,0,0,0,31,2.864l1.125-.435a.272.272,0,0,0,.16-.349Z" transform="translate(-2.415 -0.046)"/>
      </g>
    </g>
    <g id="Ellipse_42" data-name="Ellipse 42" class="cls-4" transform="translate(245.966 295.956)">
      <circle class="cls-5" cx="22.034" cy="22.034" r="22.034"/>
      <circle class="cls-6" cx="22.034" cy="22.034" r="21.034"/>
    </g>
  </g>
</svg>
