<svg xmlns="http://www.w3.org/2000/svg" xmlns:xlink="http://www.w3.org/1999/xlink" viewBox="1336.67 -496.096 109.557 97.096">
  <defs>
    <style>
      .cls-1 {
        fill: none;
      }

      .cls-2 {
        clip-path: url(#clip-path);
      }

      .cls-3 {
        fill: #583318;
      }
    </style>
    <clipPath id="clip-path">
      <path id="Path_5" data-name="Path 5" class="cls-1" d="M0-638.9H109.557v97.1H0Z" transform="translate(0 638.904)"/>
    </clipPath>
  </defs>
  <g id="Group_26" data-name="Group 26" transform="translate(1336.67 -496.096)">
    <g id="Group_25" data-name="Group 25" class="cls-2">
      <g id="Group_24" data-name="Group 24" transform="translate(0 0)">
        <path id="Path_4" data-name="Path 4" class="cls-3" d="M-527.976-277.882h6.264a1.122,1.122,0,0,1,1.206,1.167v23.81a1.122,1.122,0,0,1-1.206,1.167h-4.941a3.735,3.735,0,0,0-3.748,3.722,3.72,3.72,0,0,0,.052.635l.389,2.218-5.6-5.525a3.736,3.736,0,0,0-2.607-1.05h-19.725A1.122,1.122,0,0,1-559.1-252.9v-2.568h19.919a11.263,11.263,0,0,0,11.2-11.2Zm-74.7-1.245a3.735,3.735,0,0,0-3.735,3.735,3.735,3.735,0,0,0,3.735,3.735H-547.9a3.735,3.735,0,0,0,3.735-3.735,3.735,3.735,0,0,0-3.735-3.735Zm0-16.184a3.735,3.735,0,0,0-3.735,3.735,3.735,3.735,0,0,0,3.735,3.735H-547.9a3.735,3.735,0,0,0,3.735-3.735,3.735,3.735,0,0,0-3.735-3.735Zm0-16.185a3.735,3.735,0,0,0-3.735,3.735,3.735,3.735,0,0,0,3.735,3.735H-547.9a3.735,3.735,0,0,0,3.735-3.735A3.735,3.735,0,0,0-547.9-311.5Zm-8.715-8.715h72.208a3.648,3.648,0,0,1,3.735,3.735v49.8a3.648,3.648,0,0,1-3.735,3.735h-38.594a3.735,3.735,0,0,0-2.646,1.089l-17.546,17.468,1.479-14.473a3.736,3.736,0,0,0-3.369-4.069q-.163-.015-.327-.016h-11.2a3.647,3.647,0,0,1-3.735-3.735v-49.8a3.647,3.647,0,0,1,3.735-3.735m0-7.47a11.263,11.263,0,0,0-11.2,11.2v49.8a11.263,11.263,0,0,0,11.2,11.2h7.081l-2.14,20.775a3.735,3.735,0,0,0,3.339,4.094,3.735,3.735,0,0,0,3-1.059l23.888-23.81h9.648v2.568a8.718,8.718,0,0,0,8.676,8.637h18.207l12.839,12.605a3.735,3.735,0,0,0,5.282-.034,3.736,3.736,0,0,0,1.02-3.273l-1.634-9.3h.467a8.718,8.718,0,0,0,8.676-8.637v-23.81a8.718,8.718,0,0,0-8.676-8.637h-6.264v-31.124a11.263,11.263,0,0,0-11.2-11.2Z" transform="translate(622.593 327.68)"/>
      </g>
    </g>
  </g>
</svg>
