<svg xmlns="http://www.w3.org/2000/svg" viewBox="827.964 445.865 18.664 25.174">
  <defs>
    <style>
      .cls-1 {
        fill: #583318;
        stroke: #583318;
      }
    </style>
  </defs>
  <g id="noun_649672_cc" transform="translate(831.216 446.365)">
    <path id="Path_1" data-name="Path 1" class="cls-1" d="M40.827,24.893h-.952v-5.2a4.343,4.343,0,0,0-4.33-4.347h-2.6a4.343,4.343,0,0,0-4.33,4.347v5.2h-.952a2.259,2.259,0,0,0-2.251,2.261V37.259a2.259,2.259,0,0,0,2.251,2.261H40.827a2.259,2.259,0,0,0,2.251-2.261V27.153A2.259,2.259,0,0,0,40.827,24.893Zm-10.477-5.2a2.606,2.606,0,0,1,2.6-2.608h2.6a2.606,2.606,0,0,1,2.6,2.608v5.2H30.35Zm11,17.566a.521.521,0,0,1-.52.522H27.665a.521.521,0,0,1-.52-.522V27.153a.521.521,0,0,1,.52-.522H40.827a.521.521,0,0,1,.52.522Zm-7.1-8.115a1.621,1.621,0,0,0-.952,2.929v2.5a.952.952,0,1,0,1.9,0v-2.5a1.621,1.621,0,0,0-.952-2.929Z" transform="translate(-28.166 -15.346)"/>
  </g>
</svg>
