<svg xmlns="http://www.w3.org/2000/svg" xmlns:xlink="http://www.w3.org/1999/xlink" viewBox="-118.605 179.404 31.359 23.805">
  <defs>
    <style>
      .cls-1 {
        fill: none;
      }

      .cls-2 {
        clip-path: url(#clip-path);
      }

      .cls-3 {
        fill: #fff;
      }
    </style>
    <clipPath id="clip-path">
      <path id="Path_765" data-name="Path 765" class="cls-1" d="M0-62.209H31.359V-38.4H0Z" transform="translate(0 62.209)"/>
    </clipPath>
  </defs>
  <g id="Group_1005" data-name="Group 1005" transform="translate(-118.605 179.403)">
    <g id="Group_1004" data-name="Group 1004" class="cls-2" transform="translate(0 0)">
      <g id="Group_1003" data-name="Group 1003" transform="translate(0 0)">
        <path id="Path_764" data-name="Path 764" class="cls-3" d="M-49.6-6.845a.974.974,0,0,0-.233-.252.252.252,0,0,1-.094-.166l-.234-1.665a.142.142,0,0,0,.068-.133v-.079a.13.13,0,0,0-.1-.135l-.007-.088h.054a.093.093,0,0,0,.065-.035.1.1,0,0,0,.008-.076s-.042-.146-.043-.149a.2.2,0,0,0-.2-.12h-.6a.2.2,0,0,0-.2.119l-.043.15a.115.115,0,0,0,.008.083.086.086,0,0,0,.065.028h.06l0,.085a.136.136,0,0,0-.121.139v.079a.146.146,0,0,0,.077.134L-51.3-7.263a.257.257,0,0,1-.1.167.971.971,0,0,0-.23.251.98.98,0,0,0-.095.422l.073,2.875a1.437,1.437,0,0,0,.048.34c.05.173.121.375.334.375h1.307c.213,0,.284-.2.334-.375a1.332,1.332,0,0,0,.048-.331l.072-2.883a1,1,0,0,0-.1-.424M-73.215-.611a.765.765,0,0,0-.765-.765.765.765,0,0,0-.765.765.766.766,0,0,0,.765.765.765.765,0,0,0,.765-.765m1.308,5.557a.712.712,0,0,0-.729-.729h-6.977a.712.712,0,0,0-.729.729.712.712,0,0,0,.729.729h6.977a.757.757,0,0,0,.729-.729M-71.569.02H-67.9a.712.712,0,0,0,.729-.729.712.712,0,0,0-.729-.729h-3.666a.712.712,0,0,0-.729.729.757.757,0,0,0,.729.729M-77.1,2.868h6.977a.711.711,0,0,0,.729-.729.712.712,0,0,0-.729-.729H-77.1a.712.712,0,0,0-.729.729.733.733,0,0,0,.729.729m26.94-4.207-4.513.006-2.847-4.374-.034-.035c-.035-.034-.035-.069-.069-.1s-.07-.1-.1-.1c-.035-.034-.07-.034-.1-.069s-.1-.07-.1-.1c-.035-.035-.07-.035-.1-.069-.07-.035-.1-.035-.139-.07-.035,0-5.554-1.492-5.554-1.492a1.167,1.167,0,0,0-1.007.173L-68.57-4.936a1.184,1.184,0,0,0-.313,1.666,1.184,1.184,0,0,0,1.666.312l3.377-2.3,3.055.8c-.278.382-7.29,10.136-7.29,10.136l-3.681,1.057A1.17,1.17,0,0,0-72.832,8.02,1.207,1.207,0,0,0-71.617,9.1h.1L-67.346,8a1.185,1.185,0,0,0,.833-.451l2.95-3.576,4.2,2.846-1.6,4.3a1.172,1.172,0,0,0,.729,1.528.877.877,0,0,0,.417.07,1.143,1.143,0,0,0,1.11-.8l1.978-5.407a1.175,1.175,0,0,0-.347-1.319l-3.5-2.888,2.679-4.257L-56.377.4a1.176,1.176,0,0,0,1.007.52L-50.2.917A1.186,1.186,0,0,0-48.983-.3c0-.694-.486-1.041-1.18-1.041m-6.424-5.1a2.326,2.326,0,0,0,2.325-2.326,2.326,2.326,0,0,0-2.325-2.326,2.326,2.326,0,0,0-2.326,2.326,2.349,2.349,0,0,0,2.326,2.326" transform="translate(80.342 11.088)"/>
      </g>
    </g>
  </g>
</svg>
