<svg xmlns="http://www.w3.org/2000/svg" xmlns:xlink="http://www.w3.org/1999/xlink" viewBox="900 -499.071 178.352 108.526">
  <defs>
    <style>
      .cls-1 {
        fill: none;
      }

      .cls-2 {
        clip-path: url(#clip-path);
      }

      .cls-3 {
        fill: #563316;
      }
    </style>
    <clipPath id="clip-path">
      <path id="path" class="cls-1" d="M0-528.384H178.352v108.526H0Z" transform="translate(0 528.384)"/>
    </clipPath>
  </defs>
  <g id="group" transform="translate(900 -499.071)">
    <g id="group-2" data-name="group" class="cls-2">
      <g id="group-3" data-name="group" transform="translate(42.695 0.21)">
        <path id="path-2" data-name="path" class="cls-3" d="M-12.205-24.41H2.728a3.234,3.234,0,0,0,3.155-3.155A3.234,3.234,0,0,0,2.728-30.72H-12.205a3.235,3.235,0,0,0-3.155,3.155,3.235,3.235,0,0,0,3.155,3.155" transform="translate(15.36 30.72)"/>
      </g>
      <g id="group-4" data-name="group" transform="translate(17.246 0)">
        <path id="path-3" data-name="path" class="cls-3" d="M-597.241-317.334a3.235,3.235,0,0,1-3.155,3.155h-9.254a16.005,16.005,0,0,0-13.671-7.992,15.571,15.571,0,0,0-13.671,7.992h-1.472v-57.207h22.083a3.6,3.6,0,0,1,2.734,1.472l15.774,25.028a2.267,2.267,0,0,1,.421,1.683v25.869Zm4.627-31.127L-608.6-373.49a9.267,9.267,0,0,0-7.992-4.417h-22.294v-11.988a9.425,9.425,0,0,0-9.464-9.464H-695.46a3.235,3.235,0,0,0-3.155,3.155,3.235,3.235,0,0,0,3.155,3.155h47.112a3.235,3.235,0,0,1,3.155,3.155v75.505h-61.834a16.006,16.006,0,0,0-13.671-7.992,15.57,15.57,0,0,0-13.671,7.992h-7.782a3.235,3.235,0,0,1-3.155-3.155v-10.937a3.235,3.235,0,0,0-3.155-3.155,3.235,3.235,0,0,0-3.155,3.155v10.937a9.425,9.425,0,0,0,9.464,9.464h5.679v1.472A15.889,15.889,0,0,0-720.7-290.834a15.889,15.889,0,0,0,15.774-15.774v-1.472h66.041v1.472a15.889,15.889,0,0,0,15.774,15.774,15.889,15.889,0,0,0,15.774-15.774v-1.472h7.361a9.425,9.425,0,0,0,9.465-9.464V-343.2a16.226,16.226,0,0,0-2.1-5.258" transform="translate(751.616 399.359)"/>
      </g>
      <g id="group-5" data-name="group" transform="translate(135.657 32.6)">
        <path id="path-4" data-name="path" class="cls-3" d="M-25.224-73.231V-85.85h3.786l7.992,12.619Zm8.2-17.457a3.6,3.6,0,0,0-2.734-1.472h-8.834a3.235,3.235,0,0,0-3.155,3.155v18.929a3.235,3.235,0,0,0,3.155,3.155H-7.767a3.235,3.235,0,0,0,3.155-3.155,2.7,2.7,0,0,0-.841-2.1Z" transform="translate(31.744 92.16)"/>
      </g>
      <g id="group-6" data-name="group" transform="translate(5.468 12.199)">
        <path id="path-5" data-name="path" class="cls-3" d="M-12.205-24.41H52.363a3.235,3.235,0,0,0,3.155-3.155,3.235,3.235,0,0,0-3.155-3.155H-12.205a3.235,3.235,0,0,0-3.155,3.155,3.1,3.1,0,0,0,3.155,3.155" transform="translate(15.36 30.72)"/>
      </g>
      <g id="group-7" data-name="group" transform="translate(25.238 47.953)">
        <path id="path-6" data-name="path" class="cls-3" d="M0-12.205A3.235,3.235,0,0,0,3.155-9.051H67.723a3.235,3.235,0,0,0,3.155-3.155,3.235,3.235,0,0,0-3.155-3.155H3.155A3.235,3.235,0,0,0,0-12.205" transform="translate(0 15.36)"/>
      </g>
      <g id="group-8" data-name="group" transform="translate(0 47.953)">
        <path id="path-7" data-name="path" class="cls-3" d="M-70.79-12.205a3.235,3.235,0,0,0-3.155-3.155H-85.933a3.235,3.235,0,0,0-3.155,3.155,3.235,3.235,0,0,0,3.155,3.155h11.988a3.1,3.1,0,0,0,3.155-3.155" transform="translate(89.088 15.36)"/>
      </g>
      <g id="group-9" data-name="group" transform="translate(30.707 30.707)">
        <path id="path-8" data-name="path" class="cls-3" d="M-139.139-24.41a3.235,3.235,0,0,0,3.155-3.155,3.235,3.235,0,0,0-3.155-3.155h-32.81a3.235,3.235,0,0,0-3.155,3.155,3.235,3.235,0,0,0,3.155,3.155Z" transform="translate(175.104 30.72)"/>
      </g>
    </g>
  </g>
</svg>
