<svg xmlns="http://www.w3.org/2000/svg" xmlns:xlink="http://www.w3.org/1999/xlink" viewBox="133.308 -503.755 109.249 153.755">
  <defs>
    <style>
      .cls-1 {
        fill: none;
      }

      .cls-2 {
        clip-path: url(#clip-path);
      }

      .cls-3 {
        fill: #573317;
      }
    </style>
    <clipPath id="clip-path">
      <path class="cls-1" d="M0-616.245H109.249V-462.49H0Z" transform="translate(0 616.245)"/>
    </clipPath>
  </defs>
  <g id="Group_4" data-name="Group 4" transform="translate(133.308 -503.755)">
    <g class="cls-2">
      <g transform="translate(0 0)">
        <path class="cls-3" d="M-305.65-424.224h-22.616a3.063,3.063,0,0,1-2.984-2.2h28.584a3.21,3.21,0,0,1-2.984,2.2m-34.238,8.01h-25.285a3.863,3.863,0,0,1-3.455-2.2h32.2a3.863,3.863,0,0,1-3.455,2.2m-36.907-8.01H-399.41a3.063,3.063,0,0,1-2.984-2.2h28.584a3.21,3.21,0,0,1-2.984,2.2m-25.757-50.1a11.777,11.777,0,0,1,9.423,11.465v11.308a11.777,11.777,0,0,1-9.423,11.465Zm1.1-18.061c.785-1.885,1.728-3.926,2.513-5.811,2.513-5.34,5.025-10.837,5.34-17.276l.942-16.962h8.952l.943,16.962c.314,6.282,2.827,11.936,5.34,17.276.942,1.885,1.728,3.769,2.513,5.811a13.46,13.46,0,0,1,1.1,5.654v57.167h-28.741v-7.224a14.86,14.86,0,0,0,12.564-14.606V-462.7a14.859,14.859,0,0,0-12.564-14.606v-9.423a13.464,13.464,0,0,1,1.1-5.654m18.375-59.994.314,2.356h-10.523l.314-2.356Zm-8.795,5.5h7.538l.628,11.308h-8.638Zm27.013,47.43c2.827-5.968,5.654-12.25,5.968-19.161l.942-18.375h10.679l.942,18.218c.314,7.067,3.3,13.193,5.968,19.161.942,2.042,2.042,4.241,2.827,6.439a17.417,17.417,0,0,1,1.257,6.439v65.02h-32.667v-64.863a18.064,18.064,0,0,1,1.257-6.439,57.352,57.352,0,0,1,2.827-6.439m18.218-60.937.471,3.612h-12.564l.471-3.612Zm-10.366,6.6h8.952l.785,13.664h-10.366Zm25.6,67.062a14.488,14.488,0,0,1,1.1-5.654c.785-1.885,1.728-3.926,2.513-5.811,2.513-5.34,5.026-10.837,5.34-17.276l.942-16.962h8.952l.942,16.962c.314,6.282,2.827,11.936,5.34,17.276.942,1.885,1.728,3.769,2.513,5.811a13.464,13.464,0,0,1,1.1,5.654v9.266A14.986,14.986,0,0,0-314.6-462.859v11.308a14.986,14.986,0,0,0,11.936,14.606v7.381h-28.74V-486.73Zm19.474-65.648.314,2.356h-10.523l.314-2.356Zm-8.795,5.5h7.538l.628,11.308H-321.2Zm18.218,106.639a11.641,11.641,0,0,1-8.795-11.308v-11.308a11.642,11.642,0,0,1,8.795-11.308Zm3.3-53.869c-.785-2.041-1.728-4.083-2.67-5.968-2.356-5.183-4.711-10.051-5.025-15.548L-308.477-545a3.208,3.208,0,0,0,1.414-.785,2.741,2.741,0,0,0,.628-1.885l-1.1-7.382a2.378,2.378,0,0,0-2.356-2.042h-13.978a2.508,2.508,0,0,0-2.356,2.042l-.942,7.382a2.159,2.159,0,0,0,.628,1.885,2.819,2.819,0,0,0,1.1.785l-1.57,29.526c-.314,5.34-2.513,10.366-5.026,15.549-.628,1.256-1.1,2.356-1.728,3.612-.785-1.728-1.413-3.3-2.2-5.026-2.67-5.811-5.183-11.308-5.654-17.433l-1.728-33.452a1.934,1.934,0,0,0,1.571-.785,2.744,2.744,0,0,0,.628-1.885l-1.1-8.324a2.379,2.379,0,0,0-2.356-2.042H-360.3a2.509,2.509,0,0,0-2.356,2.042l-1.1,8.324a2.158,2.158,0,0,0,.628,1.885,2.116,2.116,0,0,0,1.413.785l-1.728,33.3c-.314,6.125-2.827,11.622-5.654,17.433a48.559,48.559,0,0,0-2.2,5.025,25.568,25.568,0,0,0-1.728-3.612c-2.356-5.183-4.712-10.051-5.026-15.548L-379.622-545a3.208,3.208,0,0,0,1.414-.785,2.742,2.742,0,0,0,.628-1.885l-1.1-7.382a2.379,2.379,0,0,0-2.356-2.042h-13.978a2.508,2.508,0,0,0-2.356,2.042l-1.1,7.382a2.157,2.157,0,0,0,.628,1.885,2.814,2.814,0,0,0,1.1.785l-1.571,29.526c-.314,5.34-2.513,10.366-5.025,15.549-.943,1.884-1.885,3.926-2.67,5.968a21.116,21.116,0,0,0-1.256,7.225v59.366a7.776,7.776,0,0,0,7.853,7.853h22.459a10.154,10.154,0,0,0,3.141-.628v.157a8.446,8.446,0,0,0,8.481,8.481h25.285a8.446,8.446,0,0,0,8.481-8.481v-.157a7.025,7.025,0,0,0,3.141.628h22.459a7.777,7.777,0,0,0,7.853-7.853V-486.73a14.645,14.645,0,0,0-1.1-7.382" transform="translate(407.263 565.257)"/>
      </g>
      <g transform="translate(61.309 66.806)">
        <path class="cls-3" d="M-3.6-23.444v12.878A1.484,1.484,0,0,0-2.032-9,1.484,1.484,0,0,0-.461-10.566V-23.444A19.8,19.8,0,0,0-1.717-30.2a1.634,1.634,0,0,0-2.042-.942A1.634,1.634,0,0,0-4.7-29.1a14.483,14.483,0,0,1,1.1,5.654" transform="translate(4.8 31.238)"/>
      </g>
      <g transform="translate(39.734 92.033)">
        <path class="cls-3" d="M-9.921-44.879A11.763,11.763,0,0,1,1.858-56.658,11.763,11.763,0,0,1,13.637-44.879v11.308A11.763,11.763,0,0,1,1.858-21.792,11.763,11.763,0,0,1-9.921-33.571ZM1.7-18.651a14.913,14.913,0,0,0,14.92-14.92V-44.879A14.913,14.913,0,0,0,1.7-59.8a14.914,14.914,0,0,0-14.92,14.92v11.308A15.015,15.015,0,0,0,1.7-18.651" transform="translate(13.219 59.799)"/>
      </g>
    </g>
  </g>
</svg>
