<svg xmlns="http://www.w3.org/2000/svg" xmlns:xlink="http://www.w3.org/1999/xlink" viewBox="533.601 -502.39 110.771 151.908">
  <defs>
    <style>
      .cls-1 {
        fill: none;
      }

      .cls-2 {
        clip-path: url(#clip-path);
      }

      .cls-3 {
        clip-path: url(#clip-path-2);
      }

      .cls-4 {
        fill: #573317;
      }
    </style>
    <clipPath id="clip-path">
      <rect class="cls-1" width="110.771" height="151.908"/>
    </clipPath>
    <clipPath id="clip-path-2">
      <path class="cls-1" d="M0-787.128H110.771V-635.22H0Z" transform="translate(0 787.128)"/>
    </clipPath>
  </defs>
  <g id="Repeat_Grid_5" data-name="Repeat Grid 5" class="cls-2" transform="translate(533.601 -502.39)">
    <g id="Group_8" data-name="Group 8">
      <g class="cls-3">
        <g transform="translate(38.47 38.476)">
          <path class="cls-4" d="M-70.731-104.262a8.024,8.024,0,0,1-8.017-8.017,8.027,8.027,0,0,1,8.017-8.019,8.024,8.024,0,0,1,8.015,8.019,8.023,8.023,0,0,1-8.015,8.017m0-24.934A16.934,16.934,0,0,0-87.646-112.28,16.937,16.937,0,0,0-70.731-95.362,16.934,16.934,0,0,0-53.816-112.28,16.933,16.933,0,0,0-70.731-129.2" transform="translate(87.646 129.196)"/>
        </g>
        <g transform="translate(0 0)">
          <path class="cls-4" d="M-386.143-349.175l-36.958,39.3-30.258-32.141-.31-.3a46.257,46.257,0,0,1-5.952-6.278l-.436-.574a46.029,46.029,0,0,1-9.529-28.11A46.546,46.546,0,0,1-423.1-423.778a46.541,46.541,0,0,1,46.484,46.493,46.035,46.035,0,0,1-9.527,28.11m-36.958-83.5a55.451,55.451,0,0,0-55.385,55.392,54.815,54.815,0,0,0,3.556,19.462,69.41,69.41,0,0,0,14.194,21.044c.357.329.686.691,1.048,1.012L-423.1-296.9l1.355-1.439c9.295.25,14.787,2.945,15.864,4.31-1.13,1.431-7.075,4.359-17.218,4.359s-16.089-2.928-17.22-4.359c.8-1.015,4.087-2.775,9.544-3.719l-7.268-7.4c-6.509,2.082-11.29,5.723-11.29,11.118,0,9.108,13.6,13.256,26.233,13.256s26.23-4.148,26.23-13.256c0-6.917-7.843-10.966-17.149-12.518l27.654-29.379,5.747-6.134a71.262,71.262,0,0,0,7.788-12.031,54.722,54.722,0,0,0,5.113-23.2A55.454,55.454,0,0,0-423.1-432.677" transform="translate(478.486 432.677)"/>
        </g>
        <g transform="translate(55.353 16.937)">
          <path class="cls-4" d="M-.231,0-.286,5.932c1.2.016,29.344.757,34.236,32.97l5.862-.892C34.148.716.114,0-.231,0" transform="translate(0.286)"/>
        </g>
      </g>
    </g>
  </g>
</svg>
