<svg xmlns="http://www.w3.org/2000/svg" viewBox="827.519 392 19.61 19.661">
  <defs>
    <style>
      .cls-1 {
        fill: #583318;
      }
    </style>
  </defs>
  <g id="noun_24794_cc" transform="translate(849.519 392)">
    <path class="cls-1" d="M54.869,50.744a5.967,5.967,0,0,0,2.037-4.456,6.438,6.438,0,0,0-12.861,0A5.888,5.888,0,0,0,44.88,49.3c.086.144.18.282.287.435a6.326,6.326,0,0,0,.917,1.011A9.388,9.388,0,0,0,40.675,58.4a1.29,1.29,0,0,0,.37,1,1.43,1.43,0,0,0,1.025.425H58.882a1.433,1.433,0,0,0,1.025-.425,1.293,1.293,0,0,0,.37-1A9.394,9.394,0,0,0,54.869,50.744Zm-6-1.361c-.1-.048-.191-.1-.287-.152a3.567,3.567,0,0,1-1.1-.99c-.059-.083-.117-.167-.168-.252a3.284,3.284,0,0,1-.472-1.7,3.639,3.639,0,1,1,3.64,3.457h-.013A3.725,3.725,0,0,1,48.865,49.383ZM43.743,57.17a7.034,7.034,0,0,1,6.725-4.764h.016a7.032,7.032,0,0,1,6.726,4.764Z" transform="translate(-62.671 -40.17)"/>
  </g>
</svg>
